{"glyphs":{"0":{"ha":432,"x_min":65,"x_max":432,"o":"m 432 -263 l 432 -263 q 432 -208 420 -159 q 409 -110 385 -73 q 362 -37 328 -15 q 293 7 249 7 q 204 7 169 -15 q 135 -37 112 -73 l 112 -73 q 65 -148 65 -262 l 65 -262 q 65 -378 112 -453 l 112 -453 q 162 -533 249 -533 l 249 -533 q 335 -533 386 -453 l 386 -453 q 432 -379 432 -263 z m 336 -111 q 350 -140 357 -178 q 364 -217 364 -262 q 364 -307 357 -346 q 350 -385 336 -414 q 322 -443 300 -460 q 278 -477 249 -477 q 219 -477 198 -460 q 176 -443 162 -414 l 162 -414 q 133 -356 133 -262 l 133 -262 q 133 -114 197 -65 l 197 -65 q 219 -48 249 -48 q 278 -48 300 -65 q 322 -82 336 -111 z"},"1":{"ha":192,"x_min":53,"x_max":192,"o":"m 192 -520 l 192 0 l 126 0 l 126 -444 l 53 -407 l 53 -475 l 145 -520 l 192 -520 z"},"2":{"ha":410,"x_min":64,"x_max":410,"o":"m 233 -477 l 233 -477 q 153 -477 125 -394 l 125 -394 l 64 -417 q 98 -501 180 -525 l 180 -525 q 206 -533 238 -533 q 270 -533 302 -521 q 333 -510 357 -488 l 357 -488 q 410 -441 410 -363 l 410 -363 q 410 -251 306 -198 l 306 -198 q 274 -182 248 -172 l 248 -172 q 188 -151 171 -137 l 171 -137 q 134 -107 134 -60 l 134 -60 l 134 -57 l 405 -57 l 405 0 l 65 0 l 65 -41 q 65 -154 154 -200 l 154 -200 q 180 -213 199 -220 q 218 -228 231 -233 q 244 -238 256 -244 l 256 -244 q 309 -267 329 -308 l 329 -308 q 341 -331 341 -360 q 341 -389 333 -409 q 326 -429 313 -443 l 313 -443 q 281 -477 233 -477 z"},"3":{"ha":424,"x_min":64,"x_max":424,"o":"m 64 -108 l 132 -131 q 162 -48 245 -48 l 245 -48 q 289 -48 319 -73 l 319 -73 q 354 -100 354 -145 l 354 -145 q 354 -190 322 -216 l 322 -216 q 292 -242 243 -242 l 243 -242 l 170 -242 l 170 -298 l 242 -298 q 310 -298 333 -352 l 333 -352 q 340 -368 340 -390 q 340 -411 332 -428 q 324 -445 311 -456 l 311 -456 q 285 -479 245 -479 l 245 -479 q 188 -479 158 -435 l 158 -435 q 148 -419 143 -399 l 143 -399 l 82 -421 q 104 -477 148 -505 q 192 -533 249 -533 l 249 -533 q 311 -533 355 -498 l 355 -498 q 407 -458 407 -389 l 407 -389 q 407 -330 364 -291 l 364 -291 q 352 -280 336 -273 l 336 -273 q 398 -246 417 -187 l 417 -187 q 424 -168 424 -137 q 424 -106 409 -77 q 394 -48 369 -29 l 369 -29 q 320 8 250 8 l 250 8 q 152 8 95 -58 l 95 -58 q 75 -79 64 -108 l 64 -108 z"},"4":{"ha":436,"x_min":65,"x_max":436,"o":"m 436 -157 l 436 -102 l 373 -102 l 373 0 l 306 0 l 306 -102 l 65 -102 l 65 -149 l 295 -520 l 373 -520 l 373 -157 l 436 -157 z m 144 -157 l 306 -157 l 306 -437 l 144 -157 z"},"5":{"ha":427,"x_min":65,"x_max":427,"o":"m 371 -298 q 396 -276 412 -243 q 427 -210 427 -168 q 427 -125 412 -93 q 397 -60 372 -38 l 372 -38 q 321 7 240 7 l 240 7 q 147 7 94 -54 l 94 -54 q 76 -74 65 -102 l 65 -102 l 127 -130 q 140 -91 170 -72 q 201 -52 233 -52 q 265 -52 286 -59 q 308 -67 324 -82 l 324 -82 q 358 -113 358 -167 l 358 -167 q 358 -222 322 -253 l 322 -253 q 288 -282 236 -282 l 236 -282 q 182 -282 148 -249 l 148 -249 q 136 -237 129 -222 l 129 -222 l 65 -231 l 106 -520 l 394 -520 l 394 -463 l 162 -463 l 141 -314 q 183 -343 230 -343 q 278 -343 311 -332 q 345 -320 371 -298 z"},"6":{"ha":438,"x_min":65,"x_max":438,"o":"m 438 -397 l 438 -397 l 368 -382 q 365 -426 337 -451 q 309 -476 272 -476 q 235 -476 215 -467 q 194 -458 180 -441 q 166 -425 157 -404 q 148 -383 144 -359 l 144 -359 q 136 -321 134 -264 l 134 -264 q 157 -294 191 -308 q 225 -322 261 -322 q 297 -322 329 -311 q 361 -300 384 -279 l 384 -279 q 435 -234 435 -158 l 435 -158 q 435 -83 384 -37 l 384 -37 q 335 7 270 7 q 205 7 167 -15 q 130 -37 107 -73 l 107 -73 q 65 -140 65 -253 l 65 -253 q 65 -472 193 -521 l 193 -521 q 223 -532 258 -532 q 293 -532 323 -523 q 352 -515 376 -498 l 376 -498 q 429 -460 438 -397 z m 364 -155 l 364 -155 q 364 -179 355 -198 q 347 -217 333 -230 l 333 -230 q 303 -260 258 -260 l 258 -260 q 211 -260 183 -230 l 183 -230 q 154 -201 154 -154 l 154 -154 q 154 -107 185 -79 l 185 -79 q 215 -50 260 -50 q 306 -50 334 -79 l 334 -79 q 364 -109 364 -155 z"},"7":{"ha":368,"x_min":56,"x_max":368,"o":"m 368 -520 l 368 -481 l 223 0 l 156 0 l 304 -465 l 56 -465 l 56 -520 l 368 -520 z"},"8":{"ha":439,"x_min":65,"x_max":439,"o":"m 439 -137 l 439 -137 q 439 -106 424 -77 q 408 -48 382 -29 l 382 -29 q 330 8 252 8 l 252 8 q 172 8 121 -29 l 121 -29 q 65 -70 65 -145 l 65 -145 q 65 -212 118 -252 l 118 -252 q 134 -265 153 -273 l 153 -273 q 104 -295 87 -351 l 87 -351 q 82 -369 82 -397 q 82 -426 97 -453 q 111 -480 135 -498 q 159 -516 190 -524 q 220 -533 252 -533 q 284 -533 314 -524 q 345 -516 369 -498 l 369 -498 q 422 -458 422 -389 l 422 -389 q 422 -330 379 -291 l 379 -291 q 367 -280 352 -273 l 352 -273 q 439 -235 439 -137 z m 328 -323 q 341 -335 348 -352 q 355 -369 355 -390 q 355 -411 347 -428 q 339 -445 325 -456 q 312 -467 293 -473 q 274 -479 252 -479 q 230 -479 211 -473 q 192 -467 179 -456 l 179 -456 q 149 -432 149 -389 l 149 -389 q 149 -325 208 -305 l 208 -305 q 228 -298 252 -298 q 276 -298 295 -304 q 314 -311 328 -323 z m 359 -103 l 359 -103 q 369 -121 369 -144 q 369 -167 361 -185 q 353 -203 337 -215 q 322 -228 301 -235 q 279 -242 252 -242 q 225 -242 204 -235 q 182 -228 167 -215 l 167 -215 q 136 -189 136 -145 l 136 -145 q 136 -100 171 -73 l 171 -73 q 203 -48 252 -48 l 252 -48 q 329 -48 359 -103 z"},"9":{"ha":438,"x_min":66,"x_max":440,"o":"m 401 -448 q 423 -410 431 -361 q 440 -312 438 -257 q 436 -202 424 -153 q 412 -104 387 -68 l 387 -68 q 333 11 233 7 l 233 7 q 169 5 123 -30 l 123 -30 q 74 -68 66 -128 l 66 -128 l 135 -143 q 140 -79 195 -57 l 195 -57 q 212 -50 241 -49 q 270 -48 295 -62 q 320 -77 336 -104 l 336 -104 q 365 -153 368 -250 l 368 -250 q 368 -255 368 -260 q 369 -264 369 -268 l 369 -268 q 336 -225 273 -214 l 273 -214 q 220 -205 178 -221 q 136 -237 114 -258 q 92 -280 80 -310 q 68 -341 69 -379 q 71 -417 86 -446 q 101 -475 126 -495 l 126 -495 q 177 -536 240 -533 q 304 -531 341 -508 q 378 -485 401 -448 z m 339 -328 l 339 -328 q 348 -347 349 -370 q 350 -393 343 -412 q 335 -431 322 -445 l 322 -445 q 294 -474 248 -476 l 248 -476 q 176 -478 148 -419 l 148 -419 q 129 -377 146 -334 l 146 -334 q 162 -296 201 -280 l 201 -280 q 241 -264 282 -277 l 282 -277 q 322 -291 339 -328 z"},"\r":{"ha":1000,"x_min":0,"x_max":0,"o":""}," ":{"ha":273,"x_min":0,"x_max":0,"o":""},"!":{"ha":144,"x_min":55,"x_max":144,"o":"m 77 -132 l 65 -573 q 73 -600 100 -600 q 127 -600 136 -573 l 136 -573 l 124 -132 l 77 -132 z m 55 -36 q 55 -79 99 -79 q 144 -79 144 -36 l 144 -36 q 144 -12 131 -2 q 118 8 99 8 q 81 8 68 -2 q 55 -12 55 -36 l 55 -36 z"},"\"":{"ha":226,"x_min":67,"x_max":226,"o":"m 160 -592 l 226 -592 l 221 -387 l 165 -387 l 160 -592 z m 67 -592 l 133 -592 l 128 -387 l 72 -387 l 67 -592 z"},"#":{"ha":514,"x_min":69,"x_max":514,"o":"m 514 -432 l 514 -391 l 444 -391 l 377 -201 l 495 -201 l 495 -160 l 366 -160 l 318 0 l 271 0 l 319 -160 l 172 -160 l 124 0 l 78 0 l 125 -160 l 69 -160 l 69 -201 l 137 -201 l 204 -391 l 89 -391 l 89 -432 l 216 -432 l 264 -591 l 310 -591 l 262 -432 l 410 -432 l 458 -591 l 504 -591 l 456 -432 l 514 -432 z m 331 -201 l 397 -391 l 250 -391 l 184 -201 l 331 -201 z"},"$":{"ha":437,"x_min":62,"x_max":437,"o":"m 382 -262 q 409 -241 423 -216 q 437 -191 437 -158 q 437 -124 425 -97 q 413 -69 392 -48 l 392 -48 q 347 -3 276 5 l 276 5 l 276 42 l 233 42 l 233 5 q 142 1 89 -61 l 89 -61 q 72 -80 62 -103 l 62 -103 l 117 -129 q 129 -78 190 -56 l 190 -56 q 210 -48 233 -47 l 233 -47 l 233 -263 q 164 -286 138 -307 q 112 -329 99 -353 q 86 -376 86 -407 q 86 -438 97 -463 q 107 -487 126 -506 l 126 -506 q 167 -546 233 -554 l 233 -554 l 233 -583 l 276 -583 l 276 -555 q 371 -546 421 -473 l 421 -473 l 368 -446 q 339 -495 276 -503 l 276 -503 l 276 -309 q 354 -282 382 -262 z m 233 -324 l 233 -324 l 233 -503 q 191 -496 169 -472 q 147 -449 147 -424 q 147 -399 154 -385 q 161 -371 172 -359 l 172 -359 q 193 -339 233 -324 z m 376 -152 l 376 -152 q 376 -171 368 -187 q 360 -202 346 -213 l 346 -213 q 323 -232 276 -248 l 276 -248 l 276 -50 q 321 -58 349 -86 l 349 -86 q 376 -114 376 -152 z"},"%":{"ha":743,"x_min":80,"x_max":743,"o":"m 742 -130 q 743 -70 701 -28 q 659 15 600 15 q 540 15 499 -27 q 458 -69 458 -129 l 458 -129 q 458 -188 499 -230 q 541 -272 601 -272 q 661 -272 702 -231 q 742 -189 742 -130 z m 603 -611 l 265 15 l 220 15 l 558 -611 l 603 -611 z m 365 -446 q 365 -386 323 -344 q 281 -303 222 -303 q 162 -303 121 -344 q 80 -385 80 -446 q 80 -506 121 -548 q 162 -589 222 -589 q 282 -589 323 -547 q 365 -505 365 -446 z m 694 -129 q 694 -168 667 -196 q 640 -224 600 -224 q 561 -224 534 -197 q 507 -169 507 -130 q 507 -90 534 -63 q 561 -36 600 -36 q 639 -36 667 -63 q 694 -90 694 -129 z m 315 -446 q 315 -485 289 -513 q 262 -541 222 -541 q 183 -541 156 -513 q 129 -485 129 -446 q 129 -407 156 -380 q 183 -353 222 -353 q 262 -353 289 -380 q 315 -407 315 -446 z"},"&":{"ha":567,"x_min":66,"x_max":567,"o":"m 448 -285 l 518 -285 q 516 -184 468 -118 l 468 -118 l 567 0 l 480 0 l 429 -65 q 360 16 251 16 l 251 16 q 162 16 110 -36 l 110 -36 q 66 -81 66 -146 l 66 -146 q 66 -229 157 -293 l 157 -293 q 184 -312 215 -327 l 215 -327 l 178 -373 q 137 -422 137 -474 l 137 -474 q 137 -529 176 -565 l 176 -565 q 215 -603 276 -603 l 276 -603 q 338 -603 377 -561 l 377 -561 q 413 -522 413 -466 l 413 -466 q 413 -395 354 -344 l 354 -344 q 333 -326 305 -313 l 305 -313 l 425 -172 q 448 -219 448 -285 l 448 -285 z m 242 -399 l 273 -359 q 347 -402 347 -476 l 347 -476 q 347 -523 306 -540 l 306 -540 q 292 -545 277 -545 q 262 -545 249 -541 q 236 -536 227 -527 l 227 -527 q 205 -508 205 -480 l 205 -480 q 205 -447 242 -399 l 242 -399 z m 386 -113 l 386 -113 l 250 -285 q 230 -272 211 -259 q 192 -247 177 -230 l 177 -230 q 144 -194 144 -139 l 144 -139 q 144 -101 172 -76 l 172 -76 q 204 -47 259 -47 l 259 -47 q 337 -47 386 -113 z"},"'":{"ha":138,"x_min":67,"x_max":138,"o":"m 67 -592 l 138 -592 l 133 -387 l 72 -387 l 67 -592 z"},"(":{"ha":255,"x_min":65,"x_max":255,"o":"m 255 -593 q 140 -403 140 -203 q 140 -2 255 186 l 255 186 l 210 186 q 105 64 75 -99 l 75 -99 q 65 -151 65 -203 q 65 -255 74 -307 q 84 -359 103 -409 l 103 -409 q 140 -511 210 -593 l 210 -593 l 255 -593 z"},")":{"ha":255,"x_min":65,"x_max":255,"o":"m 65 186 q 180 -1 180 -202 q 180 -404 65 -593 l 65 -593 l 110 -593 q 216 -469 246 -308 l 246 -308 q 255 -255 255 -203 q 255 -151 245 -99 q 235 -47 217 3 l 217 3 q 179 106 110 186 l 110 186 l 65 186 z"},"*":{"ha":341,"x_min":66,"x_max":341,"o":"m 325 -521 l 341 -481 l 248 -442 l 304 -359 l 267 -332 l 203 -411 l 137 -332 l 103 -359 l 159 -442 l 66 -481 l 83 -521 l 174 -493 l 181 -589 l 227 -589 l 232 -493 l 325 -521 z"},"+":{"ha":414,"x_min":78,"x_max":414,"o":"m 414 -245 l 414 -192 l 275 -192 l 275 -44 l 217 -44 l 217 -192 l 78 -192 l 78 -245 l 217 -245 l 217 -399 l 275 -399 l 275 -245 l 414 -245 z"},",":{"ha":178,"x_min":65,"x_max":178,"o":"m 83 132 l 65 113 q 116 65 115 18 l 115 18 l 115 13 q 94 12 81 -3 q 67 -18 67 -36 q 67 -53 72 -63 q 76 -74 83 -81 l 83 -81 q 99 -98 117 -98 q 136 -98 146 -91 q 157 -85 164 -74 l 164 -74 q 178 -54 178 -26 q 178 1 172 25 q 165 50 152 71 l 152 71 q 125 118 83 132 l 83 132 z"},"-":{"ha":414,"x_min":78,"x_max":414,"o":"m 414 -245 l 414 -192 l 78 -192 l 78 -245 l 414 -245 z"},".":{"ha":173,"x_min":64,"x_max":173,"o":"m 157 -87 q 165 -81 169 -71 q 173 -61 173 -39 q 173 -17 157 -4 q 142 9 119 9 q 96 9 80 -4 q 64 -17 64 -39 q 64 -61 68 -71 q 73 -81 80 -87 q 87 -93 97 -96 q 107 -99 119 -99 q 130 -99 140 -96 q 150 -93 157 -87 z"},"/":{"ha":342,"x_min":53,"x_max":342,"o":"m 296 -532 l 342 -532 l 99 87 l 53 87 l 296 -532 z"},":":{"ha":178,"x_min":69,"x_max":178,"o":"m 162 -370 q 169 -364 174 -354 q 178 -344 178 -322 q 178 -300 162 -287 q 146 -274 124 -274 q 101 -274 85 -287 q 69 -300 69 -322 q 69 -344 73 -354 q 78 -364 85 -370 q 92 -376 102 -379 q 112 -382 124 -382 q 135 -382 145 -379 q 155 -376 162 -370 z m 162 -136 q 169 -130 174 -120 q 178 -109 178 -87 q 178 -65 162 -52 q 146 -40 124 -40 q 101 -40 85 -52 q 69 -65 69 -87 q 69 -109 73 -120 q 78 -130 85 -136 q 92 -142 102 -145 q 112 -148 124 -148 q 135 -148 145 -145 q 155 -142 162 -136 z"},";":{"ha":178,"x_min":64,"x_max":178,"o":"m 157 -219 q 165 -213 169 -203 q 173 -192 173 -170 q 173 -148 157 -135 q 142 -123 119 -123 q 96 -123 80 -135 q 64 -148 64 -170 q 64 -192 68 -203 q 73 -213 80 -219 q 87 -225 97 -228 q 107 -231 119 -231 q 130 -231 140 -228 q 150 -225 157 -219 z m 83 132 l 65 113 q 116 65 115 18 l 115 18 l 115 13 q 94 12 81 -3 q 67 -18 67 -36 q 67 -53 72 -63 q 76 -74 83 -81 l 83 -81 q 99 -98 117 -98 q 136 -98 146 -91 q 157 -85 164 -74 l 164 -74 q 178 -54 178 -26 q 178 1 172 25 q 165 50 152 71 l 152 71 q 125 118 83 132 l 83 132 z"},"<":{"ha":420,"x_min":79,"x_max":420,"o":"m 420 -100 l 420 -31 l 79 -250 l 420 -473 l 420 -404 l 182 -251 l 420 -100 z"},"=":{"ha":413,"x_min":79,"x_max":413,"o":"m 413 -333 l 413 -280 l 79 -280 l 79 -333 l 413 -333 z m 413 -210 l 413 -158 l 79 -158 l 79 -210 l 413 -210 z"},">":{"ha":420,"x_min":79,"x_max":420,"o":"m 79 -473 l 420 -250 l 79 -31 l 79 -100 l 317 -251 l 79 -404 l 79 -473 z"},"?":{"ha":424,"x_min":63,"x_max":427,"o":"m 408 -516 l 408 -516 q 423 -488 424 -454 l 424 -454 q 426 -365 339 -321 l 339 -321 q 326 -314 313 -309 l 313 -309 q 266 -286 253 -271 q 240 -257 233 -245 l 233 -245 q 220 -219 222 -182 l 222 -182 l 224 -143 l 155 -141 l 153 -180 q 149 -272 216 -315 l 216 -315 q 242 -333 263 -343 l 263 -343 q 307 -364 323 -379 l 323 -379 q 356 -411 354 -460 l 354 -460 q 354 -497 326 -521 l 326 -521 q 295 -549 241 -547 l 241 -547 q 175 -543 143 -493 l 143 -493 q 132 -476 127 -453 l 127 -453 l 63 -474 q 95 -564 184 -592 l 184 -592 q 250 -613 312 -593 l 312 -593 q 378 -572 408 -516 z m 146 -46 q 146 -95 197 -95 q 247 -95 247 -46 l 247 -46 q 247 -7 216 2 l 216 2 q 207 4 197 4 q 187 4 177 2 q 168 -1 161 -7 l 161 -7 q 146 -20 146 -46 l 146 -46 z"},"@":{"ha":662,"x_min":70,"x_max":662,"o":"m 491 -146 l 491 -146 q 491 -104 524 -104 l 524 -104 q 565 -104 584 -194 l 584 -194 q 591 -224 591 -261 q 591 -298 574 -342 q 558 -385 528 -417 l 528 -417 q 465 -484 363 -484 l 363 -484 q 258 -484 189 -410 l 189 -410 q 123 -339 123 -232 l 123 -232 q 123 -118 200 -42 l 200 -42 q 277 32 392 32 l 392 32 q 498 32 576 -37 l 576 -37 q 602 -60 621 -88 l 621 -88 l 662 -54 q 587 42 469 69 l 469 69 q 430 78 377 78 q 323 78 265 56 q 206 34 163 -7 l 163 -7 q 70 -93 70 -229 l 70 -229 q 70 -356 152 -441 l 152 -441 q 235 -527 363 -527 l 363 -527 q 484 -527 563 -450 l 563 -450 q 643 -372 643 -251 l 643 -251 q 643 -146 591 -90 l 591 -90 q 561 -58 516 -58 l 516 -58 q 492 -58 472 -69 q 452 -81 442 -103 l 442 -103 q 397 -58 338 -58 l 338 -58 q 273 -58 229 -109 l 229 -109 q 186 -157 186 -224 l 186 -224 q 186 -296 232 -350 l 232 -350 q 280 -405 349 -405 q 418 -405 465 -352 l 465 -352 l 473 -398 l 533 -398 l 494 -167 q 493 -162 492 -156 q 491 -151 491 -146 z m 421 -160 q 435 -182 441 -209 q 447 -235 447 -258 q 447 -280 440 -297 q 432 -314 419 -326 l 419 -326 q 391 -353 359 -353 q 326 -353 307 -340 q 287 -328 273 -309 l 273 -309 q 246 -269 246 -220 l 246 -220 q 246 -178 271 -146 l 271 -146 q 297 -110 332 -110 q 367 -110 387 -124 q 408 -138 421 -160 z"},"A":{"ha":492,"x_min":24,"x_max":462,"o":"m 289 -591 l 462 0 l 386 0 l 336 -168 l 153 -168 l 101 0 l 24 0 l 207 -591 l 289 -591 z m 170 -226 l 320 -226 l 248 -509 l 170 -226 z"},"B":{"ha":496,"x_min":39,"x_max":457,"o":"m 426 -435 l 426 -435 q 426 -352 334 -312 l 334 -312 q 397 -292 427 -252 q 457 -212 457 -170 q 457 -127 446 -97 q 435 -67 411 -46 l 411 -46 q 360 0 256 0 l 256 0 l 39 0 l 39 -591 l 219 -591 q 315 -591 372 -547 l 372 -547 q 426 -504 426 -435 z m 106 -331 l 218 -331 q 357 -331 357 -431 l 357 -431 q 357 -504 282 -526 l 282 -526 q 256 -534 219 -534 l 219 -534 l 106 -534 l 106 -331 z m 386 -165 l 386 -165 q 386 -273 248 -273 l 248 -273 l 106 -273 l 106 -58 l 256 -58 q 365 -58 381 -122 l 381 -122 q 386 -141 386 -165 z"},"C":{"ha":492,"x_min":29,"x_max":451,"o":"m 253 -48 l 253 -48 q 357 -48 390 -163 l 390 -163 l 451 -144 q 413 -33 320 -1 l 320 -1 q 290 10 244 10 q 199 10 157 -13 q 115 -36 87 -76 l 87 -76 q 29 -159 29 -296 l 29 -296 q 29 -436 87 -519 l 87 -519 q 146 -604 252 -604 l 252 -604 q 357 -604 417 -518 l 417 -518 q 436 -490 449 -456 l 449 -456 l 388 -437 q 355 -545 252 -545 l 252 -545 q 174 -545 134 -477 l 134 -477 q 96 -413 96 -296 l 96 -296 q 96 -118 183 -66 l 183 -66 q 212 -48 253 -48 z"},"D":{"ha":492,"x_min":39,"x_max":463,"o":"m 463 -292 l 463 -292 q 463 -226 444 -172 q 425 -118 389 -80 l 389 -80 q 314 0 184 0 l 184 0 l 39 0 l 39 -591 l 181 -591 q 313 -591 389 -508 l 389 -508 q 463 -427 463 -292 z m 393 -292 l 393 -292 q 393 -347 380 -392 q 366 -437 340 -468 l 340 -468 q 284 -534 182 -534 l 182 -534 l 105 -534 l 105 -58 l 184 -58 q 286 -58 340 -120 l 340 -120 q 393 -180 393 -292 z"},"E":{"ha":436,"x_min":39,"x_max":406,"o":"m 406 -62 l 406 0 l 39 0 l 39 -591 l 392 -591 l 392 -534 l 105 -534 l 105 -337 l 369 -337 l 369 -280 l 105 -280 l 105 -62 l 406 -62 z"},"F":{"ha":417,"x_min":39,"x_max":393,"o":"m 393 -590 l 393 -533 l 105 -533 l 105 -337 l 377 -337 l 377 -280 l 105 -280 l 105 0 l 39 0 l 39 -590 l 393 -590 z"},"G":{"ha":507,"x_min":29,"x_max":470,"o":"m 99 -296 l 99 -296 q 99 -50 260 -50 l 260 -50 q 320 -50 360 -83 l 360 -83 q 403 -119 403 -178 l 403 -178 l 403 -253 l 263 -253 l 263 -311 l 469 -311 l 469 0 l 416 0 l 408 -64 q 371 -10 299 4 l 299 4 q 278 9 257 9 l 257 9 q 149 9 89 -74 l 89 -74 q 29 -156 29 -296 l 29 -296 q 29 -436 89 -518 l 89 -518 q 152 -603 262 -603 l 262 -603 q 373 -603 437 -517 l 437 -517 q 457 -489 470 -455 l 470 -455 l 405 -436 q 370 -544 262 -544 l 262 -544 q 181 -544 139 -476 l 139 -476 q 99 -412 99 -296 z"},"H":{"ha":492,"x_min":39,"x_max":453,"o":"m 453 -589 l 453 0 l 388 0 l 388 -280 l 105 -280 l 105 0 l 39 0 l 39 -589 l 105 -589 l 105 -340 l 388 -340 l 388 -589 l 453 -589 z"},"I":{"ha":147,"x_min":39,"x_max":108,"o":"m 108 -594 l 108 0 l 39 0 l 39 -594 l 108 -594 z"},"J":{"ha":323,"x_min":29,"x_max":284,"o":"m 29 -29 l 74 -73 q 98 -49 134 -49 l 134 -49 q 194 -49 214 -116 l 214 -116 q 220 -139 220 -171 l 220 -171 l 220 -590 l 284 -590 l 284 -171 q 284 -86 240 -36 l 240 -36 q 198 11 133 11 l 133 11 q 73 11 29 -29 l 29 -29 z"},"K":{"ha":491,"x_min":39,"x_max":460,"o":"m 213 -327 l 460 0 l 380 0 l 168 -279 l 105 -206 l 105 0 l 39 0 l 39 -589 l 105 -589 l 105 -295 l 364 -589 l 439 -589 l 213 -327 z"},"L":{"ha":395,"x_min":39,"x_max":365,"o":"m 365 -57 l 365 0 l 39 0 l 39 -589 l 105 -589 l 105 -57 l 365 -57 z"},"M":{"ha":584,"x_min":39,"x_max":545,"o":"m 100 -471 l 100 -471 q 101 -345 101 -236 l 101 -236 l 101 0 l 39 0 l 39 -589 l 129 -589 l 292 -101 q 321 -184 357 -294 l 357 -294 q 426 -506 456 -589 l 456 -589 l 545 -589 l 545 0 l 483 0 l 482 -236 q 482 -387 484 -471 l 484 -471 q 454 -386 420 -283 l 420 -283 q 355 -80 329 0 l 329 0 l 255 0 q 234 -63 216 -121 q 197 -179 179 -236 l 179 -236 q 135 -374 100 -471 z"},"N":{"ha":497,"x_min":39,"x_max":458,"o":"m 458 -589 l 458 0 l 373 0 l 98 -493 l 101 -406 l 101 0 l 39 0 l 39 -589 l 123 -589 l 398 -96 l 396 -173 l 396 -589 l 458 -589 z"},"O":{"ha":495,"x_min":29,"x_max":466,"o":"m 466 -297 l 466 -297 q 466 -230 452 -174 q 438 -118 410 -78 q 382 -37 341 -14 q 301 8 248 8 q 195 8 155 -14 q 114 -37 86 -78 l 86 -78 q 29 -160 29 -296 l 29 -296 q 29 -436 86 -518 l 86 -518 q 145 -603 248 -603 l 248 -603 q 351 -603 410 -518 l 410 -518 q 466 -437 466 -297 z m 364 -117 q 382 -149 392 -195 q 401 -240 401 -296 q 401 -352 392 -398 q 382 -444 364 -476 q 345 -509 316 -527 q 287 -544 248 -544 q 209 -544 180 -527 q 151 -509 133 -477 l 133 -477 q 95 -412 95 -296 l 95 -296 q 95 -119 180 -67 l 180 -67 q 209 -49 248 -49 q 287 -49 316 -67 q 345 -84 364 -117 z"},"P":{"ha":468,"x_min":39,"x_max":439,"o":"m 439 -418 l 439 -418 q 439 -379 425 -348 q 411 -316 385 -294 l 385 -294 q 329 -249 231 -249 l 231 -249 l 105 -249 l 105 0 l 39 0 l 39 -589 l 231 -589 q 329 -589 385 -543 l 385 -543 q 439 -497 439 -418 z m 105 -306 l 231 -306 q 369 -306 369 -419 q 369 -532 231 -532 l 231 -532 l 105 -532 l 105 -306 z"},"Q":{"ha":499,"x_min":29,"x_max":469,"o":"m 397 -65 l 397 -65 l 469 0 l 433 44 l 357 -26 q 307 8 249 8 q 192 8 152 -14 q 111 -37 84 -78 l 84 -78 q 29 -160 29 -296 l 29 -296 q 29 -436 84 -518 l 84 -518 q 142 -603 245 -603 l 245 -603 q 347 -603 404 -518 l 404 -518 q 459 -437 459 -291 q 459 -145 397 -65 z m 273 -185 l 353 -107 q 394 -173 394 -296 l 394 -296 q 394 -475 312 -526 l 312 -526 q 284 -544 245 -544 q 206 -544 177 -526 q 149 -508 131 -476 l 131 -476 q 95 -412 95 -296 l 95 -296 q 95 -119 177 -67 l 177 -67 q 206 -50 235 -50 l 235 -50 q 283 -50 313 -67 l 313 -67 l 237 -143 l 273 -185 z"},"R":{"ha":500,"x_min":39,"x_max":475,"o":"m 457 -421 l 457 -421 q 457 -300 327 -266 l 327 -266 l 475 0 l 397 0 l 252 -258 l 105 -258 l 105 0 l 39 0 l 39 -589 l 249 -589 q 348 -589 402 -544 l 402 -544 q 457 -500 457 -421 z m 388 -421 l 388 -421 q 388 -532 249 -532 l 249 -532 l 105 -532 l 105 -316 l 249 -316 q 323 -316 355 -342 q 388 -368 388 -421 z"},"S":{"ha":475,"x_min":29,"x_max":446,"o":"m 398 -270 q 420 -251 433 -225 q 446 -199 445 -159 q 444 -119 426 -86 q 407 -53 377 -31 l 377 -31 q 315 14 232 12 l 232 12 q 128 10 63 -59 l 63 -59 q 42 -82 29 -112 l 29 -112 l 92 -142 q 103 -98 145 -72 l 145 -72 q 206 -35 281 -55 l 281 -55 q 335 -69 361 -110 l 361 -110 q 375 -131 375 -158 q 376 -186 363 -205 q 349 -224 327 -238 q 305 -251 276 -262 q 248 -272 219 -283 q 189 -294 161 -307 q 132 -320 110 -339 l 110 -339 q 61 -380 63 -447 l 63 -447 q 63 -520 124 -563 l 124 -563 q 179 -603 245 -602 l 245 -602 q 371 -600 434 -507 l 434 -507 l 374 -478 q 335 -542 254 -544 l 254 -544 q 207 -545 172 -523 l 172 -523 q 133 -499 132 -454 l 132 -454 q 131 -386 231 -348 l 231 -348 q 260 -337 289 -326 q 319 -315 347 -302 q 375 -289 398 -270 z"},"T":{"ha":439,"x_min":29,"x_max":410,"o":"m 410 -589 l 410 -527 l 252 -527 l 252 0 l 187 0 l 187 -527 l 29 -527 l 29 -589 l 410 -589 z"},"U":{"ha":479,"x_min":39,"x_max":448,"o":"m 448 -594 l 448 -188 q 448 -93 388 -40 l 388 -40 q 332 10 244 10 l 244 10 q 155 10 100 -39 l 100 -39 q 40 -92 40 -188 l 40 -188 l 39 -594 l 105 -594 l 105 -185 q 105 -116 146 -80 l 146 -80 q 181 -49 244 -49 l 244 -49 q 341 -49 372 -122 l 372 -122 q 383 -148 383 -185 l 383 -185 l 383 -594 l 448 -594 z"},"V":{"ha":490,"x_min":29,"x_max":460,"o":"m 95 -589 l 245 -126 q 292 -276 394 -589 l 394 -589 l 460 -589 q 424 -486 387 -354 l 387 -354 q 315 -103 280 0 l 280 0 l 210 0 l 29 -589 l 95 -589 z"},"W":{"ha":629,"x_min":29,"x_max":600,"o":"m 546 -589 l 600 -589 l 502 0 l 411 0 l 314 -477 l 218 0 l 126 0 l 29 -589 l 83 -589 l 176 -104 l 270 -589 l 359 -589 l 453 -104 l 546 -589 z"},"X":{"ha":513,"x_min":29,"x_max":484,"o":"m 297 -296 l 484 0 l 407 0 l 256 -253 l 105 0 l 29 0 l 215 -296 l 35 -589 l 111 -589 l 256 -343 l 401 -589 l 478 -589 l 297 -296 z"},"Y":{"ha":489,"x_min":29,"x_max":459,"o":"m 392 -594 l 459 -594 l 279 -226 l 279 0 l 210 0 l 210 -226 l 29 -594 l 97 -594 l 245 -303 l 392 -594 z"},"Z":{"ha":456,"x_min":29,"x_max":427,"o":"m 427 -589 l 427 -543 l 112 -57 l 419 -57 l 419 0 l 29 0 l 29 -48 l 343 -532 l 55 -532 l 55 -589 l 427 -589 z"},"[":{"ha":222,"x_min":69,"x_max":222,"o":"m 222 122 l 222 184 l 69 184 l 69 -588 l 222 -588 l 222 -529 l 130 -529 l 130 122 l 222 122 z"},"\\":{"ha":342,"x_min":53,"x_max":342,"o":"m 99 -532 l 342 87 l 296 87 l 53 -532 l 99 -532 z"},"]":{"ha":197,"x_min":44,"x_max":197,"o":"m 197 -588 l 197 184 l 44 184 l 44 122 l 136 122 l 136 -529 l 44 -529 l 44 -588 l 197 -588 z"},"^":{"ha":441,"x_min":176,"x_max":441,"o":"m 338 -602 l 441 -454 l 377 -454 l 308 -539 l 241 -454 l 176 -454 l 278 -602 l 338 -602 z"},"_":{"ha":630,"x_min":79,"x_max":630,"o":"m 630 75 l 630 125 l 79 125 l 79 75 l 630 75 z"},"`":{"ha":243,"x_min":79,"x_max":243,"o":"m 167 -602 l 243 -455 l 184 -455 l 79 -602 l 167 -602 z"},"a":{"ha":417,"x_min":29,"x_max":388,"o":"m 206 -398 l 206 -398 q 130 -398 114 -328 l 114 -328 l 51 -345 q 78 -425 159 -447 l 159 -447 q 184 -454 215 -454 q 245 -454 277 -443 q 309 -432 334 -410 l 334 -410 q 388 -361 388 -273 l 388 -273 l 388 0 l 326 0 l 322 -54 q 300 -26 264 -9 q 228 8 189 8 q 150 8 122 -1 q 93 -11 73 -29 l 73 -29 q 29 -67 29 -128 l 29 -128 q 29 -196 85 -239 l 85 -239 q 137 -278 206 -278 q 275 -278 320 -252 l 320 -252 l 320 -274 q 320 -369 249 -392 l 249 -392 q 229 -398 206 -398 z m 320 -162 l 320 -162 l 320 -195 q 297 -213 242 -220 l 242 -220 q 227 -222 213 -222 l 213 -222 q 157 -222 128 -197 q 99 -171 99 -130 l 99 -130 q 99 -49 201 -49 l 201 -49 q 251 -49 286 -82 l 286 -82 q 320 -114 320 -162 z"},"b":{"ha":429,"x_min":39,"x_max":400,"o":"m 346 -395 q 371 -365 385 -322 q 400 -279 400 -223 q 400 -168 386 -125 q 372 -83 347 -53 l 347 -53 q 295 9 211 9 l 211 9 q 156 9 122 -23 l 122 -23 q 110 -35 103 -52 l 103 -52 l 99 0 l 39 0 l 39 -591 l 103 -591 l 103 -398 q 124 -425 155 -440 q 187 -454 221 -454 q 255 -454 288 -439 q 321 -424 346 -395 z m 334 -223 l 334 -223 q 334 -264 325 -296 q 315 -329 299 -351 l 299 -351 q 266 -395 211 -395 l 211 -395 q 169 -395 138 -361 l 138 -361 q 103 -325 103 -267 l 103 -267 l 103 -174 q 103 -116 136 -82 l 136 -82 q 166 -50 210 -50 l 210 -50 q 263 -50 298 -96 l 298 -96 q 334 -144 334 -223 z"},"c":{"ha":415,"x_min":29,"x_max":385,"o":"m 325 -120 l 385 -102 q 362 -47 317 -19 q 273 9 226 9 q 180 9 146 -5 q 111 -20 85 -48 q 60 -77 44 -121 q 29 -164 29 -222 q 29 -280 44 -324 q 60 -367 85 -396 l 85 -396 q 137 -454 218 -454 l 218 -454 q 273 -454 317 -426 q 362 -397 385 -342 l 385 -342 l 325 -324 q 302 -376 250 -392 l 250 -392 q 234 -396 214 -396 q 193 -396 170 -385 q 148 -374 131 -352 q 115 -331 105 -298 q 96 -266 96 -222 q 96 -179 105 -146 q 115 -113 131 -92 l 131 -92 q 165 -48 218 -48 l 218 -48 q 270 -48 306 -89 l 306 -89 q 317 -103 325 -120 l 325 -120 z"},"d":{"ha":430,"x_min":29,"x_max":391,"o":"m 391 -591 l 391 0 l 331 0 l 327 -52 q 300 9 218 9 l 218 9 q 134 9 83 -53 l 83 -53 q 29 -116 29 -222 l 29 -222 q 29 -331 83 -395 l 83 -395 q 133 -454 210 -454 l 210 -454 q 243 -454 274 -440 q 305 -425 327 -398 l 327 -398 l 327 -591 l 391 -591 z m 327 -174 l 327 -174 l 327 -267 q 327 -325 292 -361 l 292 -361 q 261 -395 218 -395 l 218 -395 q 164 -395 131 -351 l 131 -351 q 96 -304 96 -222 l 96 -222 q 96 -144 132 -96 l 132 -96 q 167 -50 220 -50 l 220 -50 q 263 -50 293 -82 l 293 -82 q 327 -117 327 -174 z"},"e":{"ha":427,"x_min":29,"x_max":398,"o":"m 398 -211 l 398 -211 l 96 -211 q 96 -93 162 -60 l 162 -60 q 185 -49 218 -49 q 252 -49 281 -67 q 311 -85 327 -120 l 327 -120 l 388 -102 q 364 -47 319 -19 q 274 9 223 9 q 171 9 137 -7 q 103 -23 79 -54 l 79 -54 q 29 -116 29 -222 l 29 -222 q 29 -331 80 -394 l 80 -394 q 130 -454 213 -454 l 213 -454 q 298 -454 347 -392 l 347 -392 q 398 -327 398 -211 z m 100 -268 l 327 -268 q 318 -332 289 -364 q 260 -395 215 -395 l 215 -395 q 143 -395 112 -321 l 112 -321 q 103 -298 100 -268 l 100 -268 z"},"f":{"ha":295,"x_min":24,"x_max":295,"o":"m 295 -613 l 295 -613 l 274 -556 q 252 -568 233 -568 q 213 -568 198 -562 q 183 -556 172 -543 l 172 -543 q 147 -517 147 -471 l 147 -471 l 147 -438 l 264 -438 l 264 -381 l 147 -381 l 147 0 l 83 0 l 83 -381 l 24 -381 l 24 -438 l 83 -438 l 83 -471 q 83 -543 128 -586 l 128 -586 q 170 -628 229 -628 l 229 -628 q 263 -628 295 -613 z"},"g":{"ha":430,"x_min":29,"x_max":391,"o":"m 391 -444 l 391 -50 q 391 55 339 118 l 339 118 q 287 182 201 182 l 201 182 q 143 182 98 153 q 54 125 30 69 l 30 69 l 90 51 q 105 87 135 105 q 164 123 197 123 q 229 123 253 111 q 277 100 293 79 l 293 79 q 327 36 327 -39 l 327 -39 l 327 -77 q 311 -42 275 -22 l 275 -22 q 247 -7 210 -7 q 173 -7 140 -21 q 107 -36 83 -64 l 83 -64 q 29 -125 29 -230 l 29 -230 q 29 -332 83 -394 l 83 -394 q 134 -455 213 -455 l 213 -455 q 269 -455 307 -420 l 307 -420 q 320 -409 328 -392 l 328 -392 l 331 -444 l 391 -444 z m 327 -188 l 327 -188 l 327 -277 q 327 -332 293 -365 l 293 -365 q 263 -395 220 -395 l 220 -395 q 134 -395 105 -304 l 105 -304 q 96 -273 96 -233 q 96 -192 105 -162 q 115 -132 131 -110 l 131 -110 q 165 -66 218 -66 l 218 -66 q 261 -66 292 -98 l 292 -98 q 327 -133 327 -188 z"},"h":{"ha":437,"x_min":39,"x_max":398,"o":"m 103 -591 l 103 -391 q 143 -454 226 -454 l 226 -454 q 297 -454 344 -411 l 344 -411 q 398 -362 398 -267 l 398 -267 l 398 0 l 334 0 l 334 -265 q 334 -327 299 -361 l 299 -361 q 267 -393 219 -393 q 170 -393 139 -361 l 139 -361 q 103 -327 103 -265 l 103 -265 l 103 0 l 39 0 l 39 -591 l 103 -591 z"},"i":{"ha":167,"x_min":39,"x_max":128,"o":"m 39 -529 q 39 -572 83 -572 q 128 -572 128 -529 l 128 -529 q 128 -505 115 -495 q 102 -484 83 -484 q 65 -484 52 -495 q 39 -505 39 -529 l 39 -529 z m 118 -444 l 118 0 l 54 0 l 54 -444 l 118 -444 z"},"j":{"ha":258,"x_min":-44,"x_max":219,"o":"m 130 -529 q 130 -572 174 -572 q 219 -572 219 -529 l 219 -529 q 219 -505 206 -495 q 193 -484 174 -484 q 156 -484 143 -495 q 130 -505 130 -529 l 130 -529 z m -44 142 l 1 98 q 25 122 61 122 l 61 122 q 121 122 141 55 l 141 55 q 147 32 147 0 l 147 0 l 147 -444 l 211 -444 l 211 0 q 211 84 167 135 l 167 135 q 125 182 60 182 l 60 182 q 0 182 -44 142 l -44 142 z"},"k":{"ha":402,"x_min":39,"x_max":399,"o":"m 194 -281 l 399 0 l 317 0 l 144 -240 l 103 -197 l 103 0 l 39 0 l 39 -591 l 103 -591 l 103 -272 l 297 -444 l 384 -444 l 194 -281 z"},"l":{"ha":174,"x_min":39,"x_max":174,"o":"m 102 -590 l 102 -88 q 102 -59 126 -59 l 126 -59 l 174 -59 l 174 0 l 112 0 q 39 0 39 -93 l 39 -93 l 39 -590 l 102 -590 z"},"m":{"ha":654,"x_min":39,"x_max":615,"o":"m 615 -267 l 615 0 l 551 0 l 551 -264 q 551 -327 522 -360 l 522 -360 q 497 -391 455 -391 l 455 -391 q 389 -391 366 -322 l 366 -322 q 359 -298 359 -267 l 359 -267 l 359 0 l 295 0 l 295 -264 q 295 -327 267 -360 l 267 -360 q 241 -391 199 -391 l 199 -391 q 133 -391 110 -320 l 110 -320 q 103 -296 103 -264 l 103 -264 l 103 0 l 39 0 l 39 -444 l 99 -444 l 103 -391 q 120 -419 147 -436 q 175 -454 210 -454 q 245 -455 280 -435 q 314 -415 335 -375 l 335 -375 q 356 -415 390 -435 q 425 -454 458 -454 q 492 -454 519 -442 q 546 -431 567 -407 l 567 -407 q 615 -356 615 -267 l 615 -267 z"},"n":{"ha":437,"x_min":39,"x_max":398,"o":"m 99 -444 l 103 -391 q 143 -454 226 -454 l 226 -454 q 297 -454 344 -411 l 344 -411 q 398 -362 398 -267 l 398 -267 l 398 0 l 334 0 l 334 -263 q 334 -325 299 -359 l 299 -359 q 267 -391 219 -391 q 170 -391 139 -359 l 139 -359 q 103 -325 103 -263 l 103 -263 l 103 0 l 39 0 l 39 -444 l 99 -444 z"},"o":{"ha":430,"x_min":29,"x_max":400,"o":"m 400 -224 l 400 -224 q 400 -169 387 -126 q 373 -83 348 -52 q 324 -21 290 -5 q 255 12 215 12 q 174 12 140 -5 q 106 -21 82 -52 l 82 -52 q 29 -117 29 -222 l 29 -222 q 29 -331 82 -395 l 82 -395 q 132 -456 215 -456 l 215 -456 q 298 -456 349 -395 l 349 -395 q 400 -332 400 -224 z m 303 -96 q 319 -119 328 -151 q 336 -183 336 -223 q 336 -263 328 -296 q 319 -328 303 -351 q 288 -374 265 -385 q 243 -397 215 -397 q 187 -397 165 -385 q 143 -374 127 -351 l 127 -351 q 94 -304 94 -222 l 94 -222 q 94 -101 165 -60 l 165 -60 q 187 -47 215 -47 q 243 -47 265 -60 q 288 -73 303 -96 z"},"p":{"ha":429,"x_min":39,"x_max":400,"o":"m 400 -221 l 400 -221 q 400 -166 385 -122 q 371 -79 346 -50 l 346 -50 q 296 9 219 9 l 219 9 q 187 9 155 -5 q 124 -19 103 -46 l 103 -46 l 103 176 l 39 176 l 39 -444 l 99 -444 l 103 -392 q 130 -454 211 -454 l 211 -454 q 295 -454 347 -393 l 347 -393 q 400 -329 400 -221 z m 334 -222 l 334 -222 q 334 -263 324 -295 q 314 -327 298 -349 l 298 -349 q 263 -394 210 -394 l 210 -394 q 167 -394 136 -362 l 136 -362 q 103 -328 103 -270 l 103 -270 l 103 -177 q 103 -120 138 -83 l 138 -83 q 168 -49 211 -49 l 211 -49 q 266 -49 299 -93 l 299 -93 q 334 -140 334 -222 z"},"q":{"ha":430,"x_min":29,"x_max":391,"o":"m 391 -444 l 391 176 l 327 176 l 327 -46 q 305 -19 274 -5 q 243 9 208 9 q 173 9 140 -6 q 107 -21 83 -50 l 83 -50 q 29 -113 29 -222 l 29 -222 q 29 -329 83 -393 l 83 -393 q 134 -454 218 -454 l 218 -454 q 274 -454 308 -421 l 308 -421 q 319 -409 327 -392 l 327 -392 l 331 -444 l 391 -444 z m 327 -177 l 327 -177 l 327 -270 q 327 -327 293 -362 l 293 -362 q 263 -394 220 -394 l 220 -394 q 167 -394 132 -349 l 132 -349 q 96 -301 96 -222 l 96 -222 q 96 -140 131 -93 l 131 -93 q 164 -49 218 -49 l 218 -49 q 261 -49 292 -83 l 292 -83 q 327 -120 327 -177 z"},"r":{"ha":288,"x_min":39,"x_max":288,"o":"m 288 -429 l 288 -429 l 253 -373 q 229 -391 204 -391 q 179 -391 161 -383 q 144 -375 131 -359 l 131 -359 q 103 -325 103 -264 l 103 -264 l 103 0 l 39 0 l 39 -444 l 99 -444 l 103 -391 q 120 -419 147 -436 q 175 -454 214 -454 q 252 -455 288 -429 z"},"s":{"ha":408,"x_min":29,"x_max":378,"o":"m 366 -375 l 306 -349 q 278 -396 212 -396 l 212 -396 q 168 -396 144 -378 q 121 -361 121 -340 q 121 -319 128 -308 q 136 -297 149 -290 l 149 -290 q 166 -280 217 -263 l 217 -263 l 279 -241 q 378 -203 378 -124 l 378 -124 q 378 -68 327 -28 l 327 -28 q 276 11 202 11 l 202 11 q 107 11 55 -48 l 55 -48 q 39 -66 29 -89 l 29 -89 l 91 -119 q 98 -89 126 -69 q 155 -50 190 -50 q 224 -50 244 -55 q 264 -61 279 -71 l 279 -71 q 310 -91 310 -124 l 310 -124 q 310 -169 241 -190 l 241 -190 q 221 -197 198 -203 q 174 -209 147 -218 q 120 -228 99 -242 l 99 -242 q 51 -276 51 -336 l 51 -336 q 51 -383 97 -418 l 97 -418 q 143 -455 203 -455 l 203 -455 q 314 -455 366 -375 l 366 -375 z"},"t":{"ha":275,"x_min":24,"x_max":275,"o":"m 204 -53 l 204 -53 q 236 -53 262 -63 l 262 -63 l 275 -7 q 231 5 197 5 l 197 5 q 139 5 111 -27 q 83 -59 83 -115 l 83 -115 l 83 -350 l 24 -350 l 24 -407 l 83 -407 l 83 -530 l 147 -530 l 147 -407 l 234 -407 l 234 -350 l 147 -350 l 147 -110 q 147 -53 204 -53 z"},"u":{"ha":437,"x_min":39,"x_max":398,"o":"m 338 0 l 334 -53 q 295 9 211 9 l 211 9 q 96 9 54 -91 l 54 -91 q 39 -126 39 -177 l 39 -177 l 39 -444 l 103 -444 l 103 -181 q 103 -120 138 -85 l 138 -85 q 169 -53 218 -53 l 218 -53 q 267 -53 298 -85 l 298 -85 q 334 -120 334 -181 l 334 -181 l 334 -444 l 398 -444 l 398 0 l 338 0 z"},"v":{"ha":425,"x_min":24,"x_max":400,"o":"m 330 -444 l 400 -444 l 248 0 l 178 0 l 24 -444 l 94 -444 l 213 -87 l 330 -444 z"},"w":{"ha":540,"x_min":24,"x_max":516,"o":"m 460 -445 l 516 -445 l 442 0 l 353 0 l 270 -353 l 188 0 l 98 0 l 24 -445 l 80 -445 l 146 -87 l 228 -445 l 313 -445 l 394 -87 l 460 -445 z"},"x":{"ha":417,"x_min":24,"x_max":393,"o":"m 248 -220 l 393 0 l 315 0 l 208 -152 l 102 0 l 24 0 l 168 -220 l 33 -444 l 106 -444 l 208 -288 l 312 -444 l 385 -444 l 248 -220 z"},"y":{"ha":455,"x_min":24,"x_max":431,"o":"m 24 157 l 58 107 q 80 125 100 125 q 120 125 134 114 q 148 103 160 85 q 172 68 183 46 q 193 24 201 3 q 209 -19 215 -38 q 221 -57 226 -69 l 226 -69 l 49 -448 l 118 -448 l 255 -147 l 362 -448 l 431 -448 l 266 1 q 235 86 214 118 q 192 149 167 168 q 141 186 112 186 l 112 186 q 58 186 24 157 l 24 157 z"},"z":{"ha":385,"x_min":24,"x_max":361,"o":"m 361 -444 l 361 -397 l 106 -58 l 354 -58 l 354 0 l 24 0 l 24 -49 l 278 -386 l 46 -386 l 46 -444 l 361 -444 z"},"{":{"ha":280,"x_min":59,"x_max":280,"o":"m 59 -240 l 72 -240 q 125 -240 125 -313 l 125 -313 l 125 -489 q 125 -536 159 -564 l 159 -564 q 190 -592 232 -592 l 232 -592 l 280 -592 l 280 -528 l 270 -528 q 241 -528 226 -516 l 226 -516 q 199 -495 199 -472 l 199 -472 l 199 -268 q 199 -224 153 -203 l 153 -203 q 177 -189 188 -170 q 199 -150 199 -132 l 199 -132 l 199 63 q 199 88 220 104 l 220 104 q 240 120 270 120 l 270 120 l 280 120 l 280 184 l 232 184 q 190 184 159 154 l 159 154 q 125 124 125 78 l 125 78 l 125 -88 q 125 -125 118 -138 l 118 -138 q 104 -165 72 -165 l 72 -165 l 59 -165 l 59 -240 z"},"|":{"ha":148,"x_min":79,"x_max":148,"o":"m 148 -592 l 148 180 l 79 180 l 79 -592 l 148 -592 z"},"}":{"ha":275,"x_min":54,"x_max":275,"o":"m 209 -489 l 209 -313 q 209 -240 262 -240 l 262 -240 l 275 -240 l 275 -165 l 262 -165 q 215 -165 210 -116 l 210 -116 q 209 -103 209 -88 l 209 -88 l 209 78 q 209 124 176 154 l 176 154 q 144 184 102 184 l 102 184 l 54 184 l 54 120 l 65 120 q 94 120 109 108 l 109 108 q 136 88 136 63 l 136 63 l 136 -132 q 136 -177 181 -203 l 181 -203 q 136 -224 136 -268 l 136 -268 l 136 -472 q 136 -496 114 -512 l 114 -512 q 94 -528 65 -528 l 65 -528 l 54 -528 l 54 -592 l 102 -592 q 145 -592 176 -564 l 176 -564 q 209 -536 209 -489 l 209 -489 z"},"~":{"ha":440,"x_min":98,"x_max":440,"o":"m 334 -530 l 334 -530 q 390 -530 440 -565 l 440 -565 l 440 -521 q 389 -475 331 -475 l 331 -475 q 312 -475 296 -483 q 281 -491 266 -501 q 251 -510 235 -518 q 220 -526 200 -526 l 200 -526 q 146 -526 98 -491 l 98 -491 l 98 -536 q 146 -582 205 -582 l 205 -582 q 224 -582 239 -573 q 254 -565 269 -556 q 284 -546 299 -538 q 315 -530 334 -530 z"}," ":{"ha":273,"x_min":0,"x_max":0,"o":""},"¡":{"ha":144,"x_min":55,"x_max":144,"o":"m 144 -555 q 144 -512 99 -512 q 55 -512 55 -555 l 55 -555 q 55 -579 68 -589 q 81 -600 99 -600 q 118 -600 131 -589 q 144 -579 144 -555 l 144 -555 z m 124 -459 l 136 -18 q 128 8 101 8 q 73 8 65 -18 l 65 -18 l 77 -459 l 124 -459 z"},"¢":{"ha":424,"x_min":68,"x_max":424,"o":"m 298 -388 l 245 -49 q 250 -48 262 -48 q 273 -48 289 -52 q 305 -57 319 -66 l 319 -66 q 349 -86 364 -120 l 364 -120 l 424 -102 q 401 -47 356 -19 q 312 9 257 9 l 257 9 l 246 9 l 235 8 l 223 89 l 173 89 l 188 -3 q 103 -37 77 -142 l 77 -142 q 68 -178 68 -229 q 68 -280 83 -324 q 99 -367 125 -396 l 125 -396 q 176 -454 257 -454 l 257 -454 l 258 -454 l 271 -531 l 320 -531 l 307 -447 q 390 -425 424 -342 l 424 -342 l 364 -324 q 342 -372 298 -388 l 298 -388 z m 197 -66 l 249 -396 q 199 -393 168 -349 l 168 -349 q 135 -302 135 -233 l 135 -233 q 135 -108 197 -66 l 197 -66 z"},"£":{"ha":477,"x_min":71,"x_max":477,"o":"m 446 -77 l 446 -77 l 477 -28 q 424 10 376 10 l 376 10 q 356 10 321 -1 q 285 -12 262 -19 q 239 -25 207 -25 q 175 -25 113 8 l 113 8 l 77 -44 q 144 -93 166 -140 l 166 -140 q 190 -193 165 -260 l 165 -260 l 71 -260 l 71 -315 l 135 -315 q 101 -369 96 -420 q 91 -472 112 -513 q 132 -553 177 -578 q 221 -603 272 -603 q 324 -603 357 -589 q 390 -575 415 -552 l 415 -552 q 465 -504 476 -429 l 476 -429 l 406 -429 q 393 -504 330 -529 l 330 -529 q 309 -538 281 -538 q 253 -538 232 -530 q 211 -521 197 -507 l 197 -507 q 170 -479 170 -432 l 170 -432 q 170 -396 185 -366 q 200 -336 212 -315 l 212 -315 l 351 -315 l 351 -260 l 232 -260 q 286 -161 188 -69 l 188 -69 q 245 -92 329 -63 l 329 -63 q 360 -53 389 -53 q 417 -53 446 -77 z"},"¤":{"ha":500,"x_min":70,"x_max":500,"o":"m 500 -474 l 423 -397 q 455 -353 455 -299 q 455 -245 425 -201 l 425 -201 l 500 -125 l 459 -84 l 385 -159 q 340 -126 284 -126 q 229 -126 185 -158 l 185 -158 l 111 -84 l 70 -125 l 144 -199 q 112 -245 112 -299 q 112 -354 145 -399 l 145 -399 l 70 -474 l 111 -515 l 187 -439 q 230 -469 284 -469 q 337 -469 383 -438 l 383 -438 l 459 -515 l 500 -474 z m 379 -256 q 387 -275 387 -296 q 387 -318 379 -337 q 371 -355 357 -370 q 343 -384 324 -392 q 305 -400 284 -400 q 262 -400 243 -392 q 225 -384 210 -370 q 196 -355 188 -337 q 180 -318 180 -296 q 180 -275 188 -256 q 196 -237 210 -223 q 225 -209 243 -201 q 262 -193 284 -193 q 305 -193 324 -201 q 343 -209 357 -223 q 371 -237 379 -256 z"},"¥":{"ha":494,"x_min":64,"x_max":494,"o":"m 427 -594 l 494 -594 l 361 -323 l 450 -323 l 450 -270 l 335 -270 l 313 -226 l 313 -215 l 450 -215 l 450 -162 l 313 -162 l 313 0 l 245 0 l 245 -162 l 106 -162 l 106 -215 l 245 -215 l 245 -226 l 223 -270 l 106 -270 l 106 -323 l 197 -323 l 64 -594 l 132 -594 l 279 -303 l 427 -594 z"},"¦":{"ha":148,"x_min":79,"x_max":148,"o":"m 148 -592 l 148 -232 l 79 -232 l 79 -592 l 148 -592 z m 148 -177 l 148 182 l 79 182 l 79 -177 l 148 -177 z"},"§":{"ha":495,"x_min":65,"x_max":499,"o":"m 430 -310 q 456 -295 473 -272 q 490 -248 494 -208 q 499 -167 480 -130 q 461 -93 425 -66 l 425 -66 q 448 -37 452 0 q 456 37 445 68 q 434 100 410 124 l 410 124 q 360 177 277 186 l 277 186 q 177 196 111 137 l 111 137 q 91 118 78 95 l 78 95 l 130 63 q 150 119 222 131 l 222 131 q 274 140 322 118 q 369 96 385 55 l 385 55 q 393 35 391 12 q 388 -11 375 -27 q 363 -42 344 -52 l 344 -52 q 317 -66 268 -77 q 220 -88 189 -96 q 159 -104 133 -119 l 133 -119 q 76 -152 69 -218 l 69 -218 q 65 -261 84 -297 q 104 -333 145 -355 l 145 -355 q 116 -384 112 -424 q 107 -463 117 -491 q 127 -519 148 -541 l 148 -541 q 193 -589 269 -597 l 269 -597 q 325 -603 370 -584 q 414 -565 443 -531 l 443 -531 l 393 -498 q 352 -553 275 -545 l 275 -545 q 223 -539 194 -510 l 194 -510 q 168 -482 171 -452 q 175 -421 188 -405 q 201 -389 220 -379 l 220 -379 q 245 -365 295 -354 q 345 -342 375 -334 q 405 -325 430 -310 z m 377 -103 q 406 -120 421 -146 q 435 -172 432 -198 q 430 -225 417 -240 q 404 -256 385 -266 l 385 -266 q 358 -280 313 -291 l 313 -291 q 224 -312 198 -322 l 198 -322 q 161 -310 145 -285 q 128 -260 131 -234 q 133 -207 146 -191 q 159 -175 179 -165 l 179 -165 q 208 -150 327 -122 l 327 -122 q 354 -115 377 -103 l 377 -103 z"},"¨":{"ha":267,"x_min":83,"x_max":267,"o":"m 195 -553 q 195 -588 231 -588 q 267 -588 267 -553 l 267 -553 q 267 -534 256 -526 q 246 -517 231 -517 q 216 -517 206 -526 q 195 -534 195 -553 l 195 -553 z m 83 -553 q 83 -588 119 -588 q 154 -588 154 -553 l 154 -553 q 154 -534 144 -526 q 134 -517 119 -517 q 104 -517 93 -526 q 83 -534 83 -553 l 83 -553 z"},"©":{"ha":573,"x_min":66,"x_max":573,"o":"m 553 -344 q 573 -298 573 -246 q 573 -194 553 -148 q 533 -102 498 -67 q 464 -33 418 -13 q 372 7 319 7 q 267 7 221 -13 q 175 -33 140 -67 q 106 -102 86 -148 q 66 -194 66 -246 q 66 -298 86 -344 q 106 -391 140 -425 q 175 -459 221 -479 q 267 -499 319 -499 q 372 -499 418 -479 q 464 -459 498 -425 q 533 -391 553 -344 z m 531 -246 l 531 -246 q 531 -290 514 -328 q 498 -367 469 -396 l 469 -396 q 406 -457 319 -457 l 319 -457 q 232 -457 170 -395 q 108 -333 108 -246 l 108 -246 q 108 -159 170 -97 l 170 -97 q 231 -35 319 -35 l 319 -35 q 407 -35 469 -97 q 531 -159 531 -246 z m 319 -131 l 319 -131 q 364 -131 384 -179 l 384 -179 l 434 -164 q 397 -83 319 -83 l 319 -83 q 264 -83 229 -123 l 229 -123 q 192 -165 192 -237 l 192 -237 q 192 -310 229 -353 l 229 -353 q 264 -392 319 -392 l 319 -392 q 397 -392 434 -311 l 434 -311 l 384 -296 q 364 -344 319 -344 l 319 -344 q 270 -344 252 -284 l 252 -284 q 246 -264 246 -237 q 246 -210 252 -191 q 258 -171 268 -158 l 268 -158 q 287 -131 319 -131 z"},"ª":{"ha":292,"x_min":67,"x_max":292,"o":"m 177 -557 l 177 -557 q 136 -557 126 -514 l 126 -514 l 79 -527 q 92 -565 120 -583 q 147 -601 175 -601 q 202 -601 222 -594 q 242 -587 258 -573 l 258 -573 q 292 -542 292 -487 l 292 -487 l 292 -318 l 245 -318 l 243 -344 q 212 -313 165 -313 l 165 -313 q 123 -313 95 -337 l 95 -337 q 67 -361 67 -400 l 67 -400 q 67 -444 103 -471 l 103 -471 q 135 -495 175 -495 q 215 -495 241 -482 l 241 -482 l 241 -488 q 241 -541 202 -554 l 202 -554 q 190 -557 177 -557 z m 241 -420 l 241 -438 q 221 -452 186 -452 q 150 -452 134 -437 q 118 -423 118 -403 l 118 -403 q 118 -357 174 -357 l 174 -357 q 203 -357 223 -376 l 223 -376 q 241 -394 241 -420 l 241 -420 z"},"«":{"ha":318,"x_min":64,"x_max":318,"o":"m 245 -222 l 318 -65 l 313 3 l 167 -220 l 313 -448 l 318 -379 l 245 -222 z m 143 -222 l 215 -65 l 210 3 l 64 -220 l 210 -448 l 215 -379 l 143 -222 z"},"¬":{"ha":582,"x_min":79,"x_max":582,"o":"m 582 -401 l 582 -181 l 518 -181 l 518 -343 l 79 -343 l 79 -401 l 582 -401 z"},"­":{"ha":0,"x_min":0,"x_max":0,"o":""},"®":{"ha":0,"x_min":0,"x_max":0,"o":""},"¯":{"ha":0,"x_min":0,"x_max":0,"o":""},"°":{"ha":0,"x_min":0,"x_max":0,"o":""},"±":{"ha":0,"x_min":0,"x_max":0,"o":""},"²":{"ha":0,"x_min":0,"x_max":0,"o":""},"³":{"ha":0,"x_min":0,"x_max":0,"o":""},"´":{"ha":0,"x_min":0,"x_max":0,"o":""},"µ":{"ha":0,"x_min":0,"x_max":0,"o":""},"¶":{"ha":0,"x_min":0,"x_max":0,"o":""},"·":{"ha":0,"x_min":0,"x_max":0,"o":""},"¸":{"ha":0,"x_min":0,"x_max":0,"o":""},"¹":{"ha":0,"x_min":0,"x_max":0,"o":""},"º":{"ha":302,"x_min":69,"x_max":302,"o":"m 302 -457 l 302 -457 q 302 -424 293 -397 q 285 -371 270 -352 l 270 -352 q 237 -311 186 -311 q 134 -311 102 -352 l 102 -352 q 69 -392 69 -457 l 69 -457 q 69 -524 102 -563 l 102 -563 q 134 -602 186 -602 q 237 -602 270 -563 l 270 -563 q 302 -524 302 -457 z m 186 -356 q 216 -356 235 -383 q 253 -410 253 -458 q 253 -505 235 -531 q 216 -557 186 -557 l 186 -557 q 155 -557 136 -531 q 118 -505 118 -458 q 118 -410 136 -383 q 155 -356 186 -356 l 186 -356 z"},"»":{"ha":318,"x_min":64,"x_max":318,"o":"m 171 -448 l 318 -220 l 171 3 l 167 -65 l 239 -222 l 167 -379 l 171 -448 z m 69 -448 l 215 -220 l 69 3 l 64 -65 l 137 -222 l 64 -379 l 69 -448 z"},"¼":{"ha":395,"x_min":71,"x_max":395,"o":"m 155 -524 l 155 -250 l 107 -250 l 107 -467 l 71 -449 l 71 -499 l 122 -524 l 155 -524 z m 395 -94 l 395 -52 l 363 -52 l 363 0 l 315 0 l 315 -52 l 195 -52 l 195 -84 l 313 -275 l 363 -275 l 363 -94 l 395 -94 z m 304 -444 l 338 -425 l 115 2 l 81 -17 l 304 -444 z m 254 -94 l 315 -94 l 315 -199 l 254 -94 z"},"½":{"ha":424,"x_min":66,"x_max":424,"o":"m 165 -524 l 165 -250 l 117 -250 l 117 -467 l 81 -449 l 81 -499 l 132 -524 l 165 -524 z m 278 -199 l 234 -215 q 261 -285 329 -285 l 329 -285 q 368 -285 395 -261 l 395 -261 q 424 -235 424 -193 l 424 -193 q 424 -132 367 -104 l 367 -104 q 351 -95 338 -90 l 338 -90 q 309 -79 301 -74 l 301 -74 q 288 -63 286 -47 l 286 -47 l 421 -47 l 421 -4 l 237 -4 l 237 -32 q 237 -94 285 -117 l 285 -117 q 298 -124 308 -128 l 308 -128 l 324 -134 q 360 -149 370 -168 l 370 -168 q 375 -178 375 -196 q 375 -214 362 -228 q 350 -242 328 -242 l 328 -242 q 293 -242 278 -199 l 278 -199 z m 290 -444 l 324 -425 l 100 2 l 66 -17 l 290 -444 z"},"¾":{"ha":453,"x_min":62,"x_max":453,"o":"m 222 -399 l 222 -399 q 258 -375 258 -334 l 258 -334 q 258 -293 228 -271 l 228 -271 q 201 -250 164 -250 l 164 -250 q 112 -250 80 -289 l 80 -289 q 68 -302 62 -321 l 62 -321 l 109 -336 q 125 -293 162 -293 l 162 -293 q 193 -293 205 -317 l 205 -317 q 208 -325 208 -339 q 208 -353 195 -364 q 182 -375 160 -375 l 160 -375 l 117 -375 l 117 -418 l 160 -418 q 180 -418 191 -429 q 202 -439 202 -457 q 202 -475 189 -485 q 177 -494 161 -494 l 161 -494 q 126 -494 116 -452 l 116 -452 l 70 -468 q 98 -536 164 -536 l 164 -536 q 196 -536 215 -521 l 215 -521 q 250 -495 250 -457 q 250 -419 222 -399 z m 453 -94 l 453 -52 l 422 -52 l 422 0 l 374 0 l 374 -52 l 253 -52 l 253 -84 l 372 -275 l 422 -275 l 422 -94 l 453 -94 z m 363 -444 l 397 -425 l 173 2 l 139 -17 l 363 -444 z m 313 -94 l 374 -94 l 374 -199 l 313 -94 z"},"¿":{"ha":424,"x_min":63,"x_max":426,"o":"m 197 -502 l 197 -502 q 146 -502 146 -552 l 146 -552 q 146 -579 161 -590 q 176 -602 197 -602 l 197 -602 q 218 -602 232 -590 q 247 -579 247 -552 l 247 -552 q 247 -502 197 -502 z m 364 -262 l 364 -262 q 426 -221 424 -143 l 424 -143 q 422 -77 369 -35 l 369 -35 q 316 7 244 4 l 244 4 q 145 1 91 -70 l 91 -70 q 74 -93 63 -124 l 63 -124 l 127 -145 q 136 -101 169 -75 l 169 -75 q 198 -52 234 -51 q 270 -50 291 -57 q 312 -64 326 -76 l 326 -76 q 354 -100 354 -133 l 354 -133 q 356 -198 310 -229 l 310 -229 q 290 -241 262 -255 q 234 -270 216 -282 q 197 -294 183 -312 l 183 -312 q 151 -352 153 -418 l 153 -418 l 155 -457 l 224 -455 l 222 -416 q 218 -339 289 -301 l 289 -301 q 301 -295 313 -289 l 313 -289 q 349 -272 364 -262 z"},"À":{"ha":492,"x_min":24,"x_max":462,"o":"m 289 -591 l 462 0 l 386 0 l 336 -168 l 153 -168 l 101 0 l 24 0 l 207 -591 l 289 -591 z m 170 -226 l 320 -226 l 248 -509 l 170 -226 z m 100 -728 l 193 -728 l 269 -635 l 210 -635 l 100 -728 z"},"Á":{"ha":492,"x_min":24,"x_max":462,"o":"m 289 -591 l 462 0 l 386 0 l 336 -168 l 153 -168 l 101 0 l 24 0 l 207 -591 l 289 -591 z m 170 -226 l 320 -226 l 248 -509 l 170 -226 z m 288 -730 l 381 -730 l 271 -637 l 212 -637 l 288 -730 z"},"Â":{"ha":492,"x_min":24,"x_max":462,"o":"m 289 -591 l 462 0 l 386 0 l 336 -168 l 153 -168 l 101 0 l 24 0 l 207 -591 l 289 -591 z m 170 -226 l 320 -226 l 248 -509 l 170 -226 z m 277 -724 l 370 -630 l 306 -630 l 246 -670 l 189 -630 l 125 -630 l 217 -724 l 277 -724 z"},"Ã":{"ha":492,"x_min":24,"x_max":462,"o":"m 289 -591 l 462 0 l 386 0 l 336 -168 l 153 -168 l 101 0 l 24 0 l 207 -591 l 289 -591 z m 170 -226 l 320 -226 l 248 -509 l 170 -226 z m 370 -724 l 370 -680 q 343 -647 302 -640 l 302 -640 q 286 -636 273 -643 q 260 -649 248 -657 q 235 -666 222 -672 q 209 -679 190 -675 l 190 -675 q 154 -669 125 -641 l 125 -641 l 125 -685 q 149 -720 194 -730 l 194 -730 q 210 -734 223 -728 q 235 -722 248 -714 q 260 -706 273 -699 q 286 -692 305 -694 l 305 -694 q 341 -700 370 -724 l 370 -724 z"},"Ä":{"ha":443,"x_min":24,"x_max":462,"o":"m 289 -591 l 462 0 l 386 0 l 336 -168 l 153 -168 l 101 0 l 24 0 l 207 -591 l 289 -591 z m 170 -226 l 320 -226 l 248 -509 l 170 -226 z m 392 -687 l 392 -687 q 392 -666 380 -657 q 369 -648 353 -648 l 353 -648 q 336 -648 324 -657 q 313 -666 313 -687 l 313 -687 q 313 -709 324 -718 q 336 -726 353 -726 l 353 -726 q 369 -726 380 -718 q 392 -709 392 -687 z m 257 -687 l 257 -687 q 257 -666 246 -657 q 234 -648 218 -648 l 218 -648 q 202 -648 190 -657 q 179 -666 179 -687 l 179 -687 q 179 -709 190 -718 q 202 -726 218 -726 l 218 -726 q 234 -726 246 -718 q 257 -709 257 -687 z"},"Å":{"ha":492,"x_min":24,"x_max":462,"o":"m 289 -591 l 462 0 l 386 0 l 336 -168 l 153 -168 l 101 0 l 24 0 l 207 -591 l 289 -591 z m 170 -226 l 320 -226 l 248 -509 l 170 -226 z m 254 -648 l 254 -648 q 268 -648 278 -658 q 288 -668 288 -682 l 288 -682 q 288 -694 278 -704 q 268 -714 254 -714 l 254 -714 q 240 -714 229 -704 q 219 -694 219 -682 l 219 -682 q 219 -668 229 -658 q 240 -648 254 -648 z m 254 -728 l 254 -728 q 264 -728 273 -724 q 282 -721 288 -714 q 295 -708 299 -699 q 303 -690 303 -682 l 303 -682 q 303 -672 299 -663 q 295 -654 288 -648 q 282 -642 273 -638 q 264 -635 254 -635 l 254 -635 q 244 -635 235 -638 q 226 -642 219 -648 q 212 -654 208 -663 q 205 -672 205 -682 l 205 -682 q 205 -690 208 -699 q 212 -708 219 -714 q 226 -721 235 -724 q 244 -728 254 -728 z"},"Æ":{"ha":594,"x_min":63,"x_max":594,"o":"m 594 -67 l 594 0 l 323 0 l 324 -278 l 208 -278 l 135 0 l 63 0 l 227 -591 l 594 -591 l 594 -523 l 390 -523 l 390 -325 l 540 -325 l 540 -278 l 390 -278 l 390 -67 l 594 -67 z m 221 -325 l 324 -325 l 324 -523 l 272 -523 l 221 -325 z"},"Ç":{"ha":480,"x_min":29,"x_max":451,"o":"m 253 -48 l 253 -48 q 357 -48 390 -163 l 390 -163 l 451 -144 q 413 -33 320 -1 l 320 -1 q 290 10 244 10 q 199 10 157 -13 q 115 -36 87 -76 l 87 -76 q 29 -159 29 -296 l 29 -296 q 29 -436 87 -519 l 87 -519 q 146 -604 252 -604 l 252 -604 q 357 -604 417 -518 l 417 -518 q 436 -490 449 -456 l 449 -456 l 388 -437 q 355 -545 252 -545 l 252 -545 q 174 -545 134 -477 l 134 -477 q 96 -413 96 -296 l 96 -296 q 96 -118 183 -66 l 183 -66 q 212 -48 253 -48 z m 290 72 l 290 72 q 259 72 233 98 l 233 98 l 188 92 l 256 -8 l 306 -8 l 275 37 q 290 33 304 33 q 319 33 331 37 q 344 42 354 50 l 354 50 q 375 67 375 93 q 375 119 365 139 q 354 159 336 172 l 336 172 q 300 200 249 200 l 249 200 q 220 200 198 190 q 177 180 166 169 q 156 159 156 150 l 156 150 l 156 139 q 156 136 157 132 l 157 132 l 188 117 q 184 124 184 132 q 184 140 190 145 q 195 151 204 154 l 204 154 q 218 160 234 160 q 250 160 264 156 q 278 153 290 146 l 290 146 q 316 129 316 100 l 316 100 q 316 88 309 80 q 301 72 290 72 z"},"È":{"ha":436,"x_min":39,"x_max":406,"o":"m 406 -62 l 406 0 l 39 0 l 39 -591 l 392 -591 l 392 -534 l 105 -534 l 105 -337 l 369 -337 l 369 -280 l 105 -280 l 105 -62 l 406 -62 z m 83 -729 l 176 -729 l 252 -637 l 194 -637 l 83 -729 z"},"É":{"ha":399,"x_min":39,"x_max":406,"o":"m 406 -62 l 406 0 l 39 0 l 39 -591 l 392 -591 l 392 -534 l 105 -534 l 105 -337 l 369 -337 l 369 -280 l 105 -280 l 105 -62 l 406 -62 z m 271 -732 l 364 -732 l 253 -640 l 195 -640 l 271 -732 z"},"Ê":{"ha":436,"x_min":39,"x_max":406,"o":"m 406 -62 l 406 0 l 39 0 l 39 -591 l 392 -591 l 392 -534 l 105 -534 l 105 -337 l 369 -337 l 369 -280 l 105 -280 l 105 -62 l 406 -62 z m 244 -737 l 337 -643 l 273 -643 l 213 -684 l 157 -643 l 92 -643 l 184 -737 l 244 -737 z"},"Ë":{"ha":436,"x_min":39,"x_max":406,"o":"m 406 -62 l 406 0 l 39 0 l 39 -591 l 392 -591 l 392 -534 l 105 -534 l 105 -337 l 369 -337 l 369 -280 l 105 -280 l 105 -62 l 406 -62 z m 332 -693 l 332 -693 q 332 -671 320 -662 q 309 -653 292 -653 l 292 -653 q 276 -653 264 -662 q 253 -671 253 -693 l 253 -693 q 253 -714 264 -723 q 276 -731 292 -731 l 292 -731 q 309 -731 320 -723 q 332 -714 332 -693 z m 197 -693 l 197 -693 q 197 -671 186 -662 q 174 -653 158 -653 l 158 -653 q 142 -653 130 -662 q 119 -671 119 -693 l 119 -693 q 119 -714 130 -723 q 142 -731 158 -731 l 158 -731 q 174 -731 186 -723 q 197 -714 197 -693 z"},"Ì":{"ha":147,"x_min":-65,"x_max":108,"o":"m 108 -594 l 108 0 l 39 0 l 39 -594 l 108 -594 z m -65 -726 l 27 -726 l 104 -633 l 45 -633 l -65 -726 z"},"Í":{"ha":173,"x_min":0,"x_max":173,"o":"m 0 -726 l 93 -726 l 169 -633 l 110 -633 l 0 -726 z m 173 -594 l 173 0 l 104 0 l 104 -594 l 173 -594 z"},"Î":{"ha":226,"x_min":-21,"x_max":224,"o":"m 107 -594 l 107 0 l 39 0 l 39 -594 l 107 -594 z m 131 -731 l 224 -638 l 160 -638 l 100 -678 l 43 -638 l -21 -638 l 71 -731 l 131 -731 z"},"Ï":{"ha":209,"x_min":6,"x_max":209,"o":"m 108 -594 l 108 0 l 39 0 l 39 -594 l 108 -594 z m 209 -688 l 209 -688 q 209 -667 198 -658 q 187 -649 170 -649 l 170 -649 q 154 -649 142 -658 q 131 -667 131 -688 l 131 -688 q 131 -710 142 -719 q 154 -727 170 -727 l 170 -727 q 187 -727 198 -719 q 209 -710 209 -688 z m 85 -688 l 85 -688 q 85 -667 73 -658 q 62 -649 46 -649 l 46 -649 q 29 -649 18 -658 q 6 -667 6 -688 l 6 -688 q 6 -710 18 -719 q 29 -727 46 -727 l 46 -727 q 62 -727 73 -719 q 85 -710 85 -688 z"},"Ð":{"ha":532,"x_min":67,"x_max":532,"o":"m 532 -297 l 532 -297 q 532 -230 514 -176 q 496 -121 461 -82 l 461 -82 q 387 0 258 0 l 258 0 l 138 0 l 138 -591 l 255 -591 q 388 -591 460 -511 l 460 -511 q 532 -432 532 -297 z m 462 -297 l 462 -297 q 462 -469 347 -518 l 347 -518 q 308 -534 256 -534 l 256 -534 l 204 -534 l 204 -58 l 258 -58 q 359 -58 412 -122 l 412 -122 q 462 -184 462 -297 z m 67 -297 l 67 -350 l 361 -350 l 361 -297 l 67 -297 z"},"Ñ":{"ha":487,"x_min":38,"x_max":457,"o":"m 457 -589 l 457 0 l 372 0 l 97 -493 l 100 -406 l 100 0 l 38 0 l 38 -589 l 122 -589 l 397 -96 l 396 -173 l 396 -589 l 457 -589 z m 322 -693 l 322 -693 q 360 -693 396 -723 l 396 -723 l 396 -679 q 362 -638 319 -638 l 319 -638 q 301 -638 282 -651 q 263 -664 252 -669 q 241 -675 229 -675 l 229 -675 q 187 -675 152 -640 l 152 -640 l 152 -684 q 165 -703 186 -717 q 207 -731 226 -731 q 244 -731 255 -725 q 266 -719 276 -712 l 276 -712 q 304 -693 322 -693 z"},"Ò":{"ha":495,"x_min":29,"x_max":466,"o":"m 466 -297 l 466 -297 q 466 -230 452 -174 q 438 -118 410 -78 q 382 -37 341 -14 q 301 8 248 8 q 195 8 155 -14 q 114 -37 86 -78 l 86 -78 q 29 -160 29 -296 l 29 -296 q 29 -436 86 -518 l 86 -518 q 145 -603 248 -603 l 248 -603 q 351 -603 410 -518 l 410 -518 q 466 -437 466 -297 z m 364 -117 q 382 -149 392 -195 q 401 -240 401 -296 q 401 -352 392 -398 q 382 -444 364 -476 q 345 -509 316 -527 q 287 -544 248 -544 q 209 -544 180 -527 q 151 -509 133 -477 l 133 -477 q 95 -412 95 -296 l 95 -296 q 95 -119 180 -67 l 180 -67 q 209 -49 248 -49 q 287 -49 316 -67 q 345 -84 364 -117 z m 116 -736 l 209 -736 l 285 -643 l 227 -643 l 116 -736 z"},"Ó":{"ha":495,"x_min":29,"x_max":466,"o":"m 466 -297 l 466 -297 q 466 -230 452 -174 q 438 -118 410 -78 q 382 -37 341 -14 q 301 8 248 8 q 195 8 155 -14 q 114 -37 86 -78 l 86 -78 q 29 -160 29 -296 l 29 -296 q 29 -436 86 -518 l 86 -518 q 145 -603 248 -603 l 248 -603 q 351 -603 410 -518 l 410 -518 q 466 -437 466 -297 z m 364 -117 q 382 -149 392 -195 q 401 -240 401 -296 q 401 -352 392 -398 q 382 -444 364 -476 q 345 -509 316 -527 q 287 -544 248 -544 q 209 -544 180 -527 q 151 -509 133 -477 l 133 -477 q 95 -412 95 -296 l 95 -296 q 95 -119 180 -67 l 180 -67 q 209 -49 248 -49 q 287 -49 316 -67 q 345 -84 364 -117 z m 349 -734 l 442 -734 l 332 -642 l 273 -642 l 349 -734 z"},"Ô":{"ha":495,"x_min":29,"x_max":466,"o":"m 466 -297 l 466 -297 q 466 -230 452 -174 q 438 -118 410 -78 q 382 -37 341 -14 q 301 8 248 8 q 195 8 155 -14 q 114 -37 86 -78 l 86 -78 q 29 -160 29 -296 l 29 -296 q 29 -436 86 -518 l 86 -518 q 145 -603 248 -603 l 248 -603 q 351 -603 410 -518 l 410 -518 q 466 -437 466 -297 z m 364 -117 q 382 -149 392 -195 q 401 -240 401 -296 q 401 -352 392 -398 q 382 -444 364 -476 q 345 -509 316 -527 q 287 -544 248 -544 q 209 -544 180 -527 q 151 -509 133 -477 l 133 -477 q 95 -412 95 -296 l 95 -296 q 95 -119 180 -67 l 180 -67 q 209 -49 248 -49 q 287 -49 316 -67 q 345 -84 364 -117 z m 280 -720 l 373 -626 l 309 -626 l 250 -667 l 193 -626 l 128 -626 l 220 -720 l 280 -720 z"},"Õ":{"ha":495,"x_min":29,"x_max":466,"o":"m 466 -297 l 466 -297 q 466 -230 452 -174 q 438 -118 410 -78 q 382 -37 341 -14 q 301 8 248 8 q 195 8 155 -14 q 114 -37 86 -78 l 86 -78 q 29 -160 29 -296 l 29 -296 q 29 -436 86 -518 l 86 -518 q 145 -603 248 -603 l 248 -603 q 351 -603 410 -518 l 410 -518 q 466 -437 466 -297 z m 364 -117 q 382 -149 392 -195 q 401 -240 401 -296 q 401 -352 392 -398 q 382 -444 364 -476 q 345 -509 316 -527 q 287 -544 248 -544 q 209 -544 180 -527 q 151 -509 133 -477 l 133 -477 q 95 -412 95 -296 l 95 -296 q 95 -119 180 -67 l 180 -67 q 209 -49 248 -49 q 287 -49 316 -67 q 345 -84 364 -117 z m 417 -724 l 417 -679 q 403 -662 383 -650 q 363 -638 340 -638 l 340 -638 q 327 -638 316 -644 q 305 -650 294 -657 q 284 -664 273 -670 q 263 -676 249 -676 l 249 -676 q 228 -676 208 -666 q 188 -655 173 -640 l 173 -640 l 173 -685 q 187 -704 207 -718 q 228 -731 252 -731 l 252 -731 q 266 -731 276 -726 q 287 -720 297 -712 q 308 -705 319 -699 q 330 -693 343 -693 l 343 -693 q 363 -693 382 -702 q 401 -710 417 -724 l 417 -724 z"},"Ö":{"ha":495,"x_min":29,"x_max":466,"o":"m 466 -297 l 466 -297 q 466 -230 452 -174 q 438 -118 410 -78 q 382 -37 341 -14 q 301 8 248 8 q 195 8 155 -14 q 114 -37 86 -78 l 86 -78 q 29 -160 29 -296 l 29 -296 q 29 -436 86 -518 l 86 -518 q 145 -603 248 -603 l 248 -603 q 351 -603 410 -518 l 410 -518 q 466 -437 466 -297 z m 364 -117 q 382 -149 392 -195 q 401 -240 401 -296 q 401 -352 392 -398 q 382 -444 364 -476 q 345 -509 316 -527 q 287 -544 248 -544 q 209 -544 180 -527 q 151 -509 133 -477 l 133 -477 q 95 -412 95 -296 l 95 -296 q 95 -119 180 -67 l 180 -67 q 209 -49 248 -49 q 287 -49 316 -67 q 345 -84 364 -117 z m 386 -683 l 386 -683 q 386 -661 374 -652 q 363 -643 347 -643 l 347 -643 q 330 -643 319 -652 q 307 -661 307 -683 l 307 -683 q 307 -704 319 -713 q 330 -721 347 -721 l 347 -721 q 363 -721 374 -713 q 386 -704 386 -683 z m 251 -683 l 251 -683 q 251 -661 240 -652 q 229 -643 212 -643 l 212 -643 q 196 -643 184 -652 q 173 -661 173 -683 l 173 -683 q 173 -704 184 -713 q 196 -721 212 -721 l 212 -721 q 229 -721 240 -713 q 251 -704 251 -683 z"},"×":{"ha":411,"x_min":81,"x_max":411,"o":"m 370 -374 l 411 -333 l 287 -209 l 411 -85 l 370 -44 l 246 -168 l 122 -44 l 81 -85 l 206 -209 l 81 -333 l 122 -374 l 246 -250 l 370 -374 z"},"Ø":{"ha":474,"x_min":65,"x_max":474,"o":"m 428 -591 l 474 -591 l 114 107 l 67 107 l 428 -591 z m 65 -250 l 65 -250 q 65 -305 78 -353 q 90 -400 114 -434 l 114 -434 q 165 -506 255 -506 l 255 -506 q 345 -506 396 -434 l 396 -434 q 444 -365 444 -249 l 444 -249 q 444 -136 396 -66 l 396 -66 q 345 7 255 7 l 255 7 q 165 7 114 -66 l 114 -66 q 65 -135 65 -250 z m 133 -249 l 133 -249 q 133 -106 202 -65 l 202 -65 q 225 -52 255 -52 l 255 -52 q 315 -52 347 -104 l 347 -104 q 377 -155 377 -249 l 377 -249 q 377 -392 309 -433 l 309 -433 q 286 -447 255 -447 l 255 -447 q 164 -447 141 -332 l 141 -332 q 133 -295 133 -249 z"},"Ù":{"ha":487,"x_min":39,"x_max":448,"o":"m 448 -594 l 448 -188 q 448 -93 388 -40 l 388 -40 q 332 10 244 10 l 244 10 q 155 10 100 -39 l 100 -39 q 40 -92 40 -188 l 40 -188 l 39 -594 l 105 -594 l 105 -185 q 105 -116 146 -80 l 146 -80 q 181 -49 244 -49 l 244 -49 q 341 -49 372 -122 l 372 -122 q 383 -148 383 -185 l 383 -185 l 383 -594 l 448 -594 z m 101 -725 l 193 -725 l 270 -632 l 211 -632 l 101 -725 z"},"Ú":{"ha":487,"x_min":39,"x_max":448,"o":"m 448 -594 l 448 -188 q 448 -93 388 -40 l 388 -40 q 332 10 244 10 l 244 10 q 155 10 100 -39 l 100 -39 q 40 -92 40 -188 l 40 -188 l 39 -594 l 105 -594 l 105 -185 q 105 -116 146 -80 l 146 -80 q 181 -49 244 -49 l 244 -49 q 341 -49 372 -122 l 372 -122 q 383 -148 383 -185 l 383 -185 l 383 -594 l 448 -594 z m 286 -733 l 379 -733 l 269 -641 l 210 -641 l 286 -733 z"},"Û":{"ha":487,"x_min":39,"x_max":448,"o":"m 448 -594 l 448 -188 q 448 -93 388 -40 l 388 -40 q 332 10 244 10 l 244 10 q 155 10 100 -39 l 100 -39 q 40 -92 40 -188 l 40 -188 l 39 -594 l 105 -594 l 105 -185 q 105 -116 146 -80 l 146 -80 q 181 -49 244 -49 l 244 -49 q 341 -49 372 -122 l 372 -122 q 383 -148 383 -185 l 383 -185 l 383 -594 l 448 -594 z m 272 -731 l 365 -638 l 301 -638 l 242 -678 l 185 -638 l 120 -638 l 212 -731 l 272 -731 z"},"Ü":{"ha":487,"x_min":39,"x_max":448,"o":"m 448 -594 l 448 -188 q 448 -93 388 -40 l 388 -40 q 332 10 244 10 l 244 10 q 155 10 100 -39 l 100 -39 q 40 -92 40 -188 l 40 -188 l 39 -594 l 105 -594 l 105 -185 q 105 -116 146 -80 l 146 -80 q 181 -49 244 -49 l 244 -49 q 341 -49 372 -122 l 372 -122 q 383 -148 383 -185 l 383 -185 l 383 -594 l 448 -594 z m 354 -688 l 354 -688 q 354 -667 343 -657 q 331 -648 315 -648 l 315 -648 q 298 -648 287 -657 q 275 -667 275 -688 l 275 -688 q 275 -709 287 -718 q 298 -727 315 -727 l 315 -727 q 331 -727 343 -718 q 354 -709 354 -688 z m 220 -688 l 220 -688 q 220 -667 208 -657 q 197 -648 181 -648 l 181 -648 q 164 -648 153 -657 q 141 -667 141 -688 l 141 -688 q 141 -709 153 -718 q 164 -727 181 -727 l 181 -727 q 197 -727 208 -718 q 220 -709 220 -688 z"},"Ý":{"ha":489,"x_min":29,"x_max":459,"o":"m 392 -594 l 459 -594 l 279 -226 l 279 0 l 210 0 l 210 -226 l 29 -594 l 97 -594 l 245 -303 l 392 -594 z m 333 -725 l 425 -725 l 315 -632 l 256 -632 l 333 -725 z"},"Þ":{"ha":445,"x_min":69,"x_max":445,"o":"m 445 -282 l 445 -282 q 445 -160 333 -124 l 333 -124 q 296 -112 247 -112 l 247 -112 l 136 -112 l 136 0 l 69 0 l 69 -347 l 69 -347 l 69 -591 l 137 -591 l 137 -452 l 247 -452 q 393 -452 433 -353 l 433 -353 q 445 -321 445 -282 z m 369 -234 l 369 -234 q 375 -255 375 -281 q 375 -308 369 -329 q 362 -350 348 -365 l 348 -365 q 316 -395 247 -395 l 247 -395 l 137 -395 l 137 -347 l 136 -347 l 136 -169 l 247 -169 q 349 -169 369 -234 z"},"ß":{"ha":470,"x_min":77,"x_max":472,"o":"m 333 13 q 279 13 241 -14 q 204 -41 189 -89 l 189 -89 l 240 -121 q 249 -72 295 -56 l 295 -56 q 309 -50 333 -50 q 356 -50 379 -68 q 402 -86 402 -113 q 402 -139 391 -155 q 380 -170 364 -183 q 347 -195 328 -207 q 308 -218 292 -231 l 292 -231 q 253 -262 253 -307 q 253 -353 301 -396 q 349 -440 349 -462 l 349 -462 q 349 -549 256 -549 l 256 -549 q 143 -549 143 -445 l 143 -445 l 143 0 l 77 0 l 77 -444 q 77 -605 246 -605 q 416 -605 416 -460 l 416 -460 q 416 -408 372 -377 q 328 -345 328 -318 q 328 -291 365 -264 l 365 -264 q 381 -252 399 -240 l 399 -240 q 472 -193 472 -111 l 472 -111 q 472 -56 429 -21 q 386 13 333 13 z"},"à":{"ha":417,"x_min":59,"x_max":417,"o":"m 63 -591 l 150 -591 l 223 -503 l 167 -503 l 63 -591 z m 349 -162 l 349 -162 q 349 -162 349 -195 l 349 -195 q 341 -201 329 -206 l 329 -206 q 290 -222 243 -222 l 243 -222 q 187 -222 157 -197 q 128 -171 128 -130 l 128 -130 q 128 -112 134 -97 l 134 -97 q 153 -49 230 -49 l 230 -49 q 281 -49 315 -82 l 315 -82 q 349 -114 349 -162 z m 349 -252 l 349 -252 l 349 -274 q 349 -308 340 -332 l 340 -332 q 314 -398 235 -398 l 235 -398 q 159 -398 144 -328 l 144 -328 l 81 -345 q 90 -373 106 -393 l 106 -393 q 154 -454 240 -454 l 240 -454 q 314 -454 363 -410 l 363 -410 q 417 -361 417 -273 l 417 -273 l 417 0 l 355 0 l 351 -54 q 329 -26 293 -9 q 257 8 214 8 l 214 8 q 145 8 102 -29 l 102 -29 q 59 -67 59 -128 l 59 -128 q 59 -196 114 -239 l 114 -239 q 166 -278 241 -278 l 241 -278 q 304 -278 349 -252 z"},"á":{"ha":424,"x_min":59,"x_max":424,"o":"m 235 -398 l 235 -398 q 159 -398 144 -328 l 144 -328 l 81 -345 q 107 -425 188 -447 l 188 -447 q 213 -454 244 -454 q 274 -454 306 -443 q 338 -432 363 -410 l 363 -410 q 417 -361 417 -273 l 417 -273 l 417 0 l 355 0 l 351 -54 q 329 -26 293 -9 q 257 8 218 8 q 180 8 151 -1 q 123 -11 102 -29 l 102 -29 q 59 -67 59 -128 l 59 -128 q 59 -196 114 -239 l 114 -239 q 166 -278 235 -278 q 304 -278 349 -252 l 349 -252 l 349 -274 q 349 -369 278 -392 l 278 -392 q 258 -398 235 -398 z m 349 -162 l 349 -162 l 349 -195 q 327 -213 271 -220 l 271 -220 q 256 -222 243 -222 l 243 -222 q 187 -222 157 -197 q 128 -171 128 -130 l 128 -130 q 128 -49 230 -49 l 230 -49 q 281 -49 315 -82 l 315 -82 q 349 -114 349 -162 z m 336 -589 l 424 -589 l 319 -501 l 264 -501 l 336 -589 z"},"â":{"ha":417,"x_min":59,"x_max":417,"o":"m 235 -398 l 235 -398 q 159 -398 144 -328 l 144 -328 l 81 -345 q 107 -425 188 -447 l 188 -447 q 213 -454 244 -454 q 274 -454 306 -443 q 338 -432 363 -410 l 363 -410 q 417 -361 417 -273 l 417 -273 l 417 0 l 355 0 l 351 -54 q 329 -26 293 -9 q 257 8 218 8 q 180 8 151 -1 q 123 -11 102 -29 l 102 -29 q 59 -67 59 -128 l 59 -128 q 59 -196 114 -239 l 114 -239 q 166 -278 235 -278 q 304 -278 349 -252 l 349 -252 l 349 -274 q 349 -369 278 -392 l 278 -392 q 258 -398 235 -398 z m 349 -162 l 349 -162 l 349 -195 q 327 -213 271 -220 l 271 -220 q 256 -222 243 -222 l 243 -222 q 187 -222 157 -197 q 128 -171 128 -130 l 128 -130 q 128 -49 230 -49 l 230 -49 q 281 -49 315 -82 l 315 -82 q 349 -114 349 -162 z m 269 -589 l 356 -500 l 296 -500 l 239 -539 l 186 -500 l 124 -500 l 212 -589 l 269 -589 z"},"ã":{"ha":417,"x_min":59,"x_max":417,"o":"m 235 -398 l 235 -398 q 159 -398 144 -328 l 144 -328 l 81 -345 q 107 -425 188 -447 l 188 -447 q 213 -454 244 -454 q 274 -454 306 -443 q 338 -432 363 -410 l 363 -410 q 417 -361 417 -273 l 417 -273 l 417 0 l 355 0 l 351 -54 q 329 -26 293 -9 q 257 8 218 8 q 180 8 151 -1 q 123 -11 102 -29 l 102 -29 q 59 -67 59 -128 l 59 -128 q 59 -196 114 -239 l 114 -239 q 166 -278 235 -278 q 304 -278 349 -252 l 349 -252 l 349 -274 q 349 -369 278 -392 l 278 -392 q 258 -398 235 -398 z m 349 -162 l 349 -162 l 349 -195 q 327 -213 271 -220 l 271 -220 q 256 -222 243 -222 l 243 -222 q 187 -222 157 -197 q 128 -171 128 -130 l 128 -130 q 128 -49 230 -49 l 230 -49 q 281 -49 315 -82 l 315 -82 q 349 -114 349 -162 z m 305 -554 l 305 -554 q 341 -554 375 -583 l 375 -583 l 375 -541 q 342 -501 302 -501 l 302 -501 q 285 -501 267 -514 q 249 -526 239 -532 q 228 -538 216 -538 l 216 -538 q 177 -538 143 -504 l 143 -504 l 143 -546 q 156 -564 176 -577 q 195 -590 213 -590 q 230 -590 241 -585 q 251 -579 261 -572 l 261 -572 q 288 -554 305 -554 z"},"ä":{"ha":417,"x_min":59,"x_max":417,"o":"m 235 -398 l 235 -398 q 159 -398 144 -328 l 144 -328 l 81 -345 q 107 -425 188 -447 l 188 -447 q 213 -454 244 -454 q 274 -454 306 -443 q 338 -432 363 -410 l 363 -410 q 417 -361 417 -273 l 417 -273 l 417 0 l 355 0 l 351 -54 q 329 -26 293 -9 q 257 8 218 8 q 180 8 151 -1 q 123 -11 102 -29 l 102 -29 q 59 -67 59 -128 l 59 -128 q 59 -196 114 -239 l 114 -239 q 166 -278 235 -278 q 304 -278 349 -252 l 349 -252 l 349 -274 q 349 -369 278 -392 l 278 -392 q 258 -398 235 -398 z m 349 -162 l 349 -162 l 349 -195 q 327 -213 271 -220 l 271 -220 q 256 -222 243 -222 l 243 -222 q 187 -222 157 -197 q 128 -171 128 -130 l 128 -130 q 128 -49 230 -49 l 230 -49 q 281 -49 315 -82 l 315 -82 q 349 -114 349 -162 z m 300 -589 l 300 -589 q 337 -589 337 -553 l 337 -553 q 337 -532 326 -524 q 315 -515 300 -515 l 300 -515 q 284 -515 273 -524 q 262 -532 262 -553 l 262 -553 q 262 -589 300 -589 z m 135 -553 q 135 -589 172 -589 q 210 -589 210 -553 l 210 -553 q 210 -532 199 -524 q 188 -515 172 -515 l 172 -515 q 157 -515 146 -524 q 135 -532 135 -553 l 135 -553 z"},"å":{"ha":417,"x_min":59,"x_max":417,"o":"m 235 -398 l 235 -398 q 159 -398 144 -328 l 144 -328 l 81 -345 q 107 -425 188 -447 l 188 -447 q 213 -454 244 -454 q 274 -454 306 -443 q 338 -432 363 -410 l 363 -410 q 417 -361 417 -273 l 417 -273 l 417 0 l 355 0 l 351 -54 q 329 -26 293 -9 q 257 8 218 8 q 180 8 151 -1 q 123 -11 102 -29 l 102 -29 q 59 -67 59 -128 l 59 -128 q 59 -196 114 -239 l 114 -239 q 166 -278 235 -278 q 304 -278 349 -252 l 349 -252 l 349 -274 q 349 -369 278 -392 l 278 -392 q 258 -398 235 -398 z m 349 -162 l 349 -162 l 349 -195 q 327 -213 271 -220 l 271 -220 q 256 -222 243 -222 l 243 -222 q 187 -222 157 -197 q 128 -171 128 -130 l 128 -130 q 128 -49 230 -49 l 230 -49 q 281 -49 315 -82 l 315 -82 q 349 -114 349 -162 z m 210 -545 q 210 -532 220 -523 q 229 -514 243 -514 q 256 -514 266 -523 q 275 -532 275 -545 q 275 -558 266 -567 q 256 -576 243 -576 q 229 -576 220 -567 q 210 -558 210 -545 z m 196 -545 q 196 -563 210 -576 q 224 -589 238 -589 q 252 -589 261 -585 q 270 -582 276 -576 l 276 -576 q 290 -563 290 -545 l 290 -545 q 290 -526 279 -517 l 279 -517 q 262 -500 248 -500 q 233 -500 225 -504 q 216 -507 210 -514 l 210 -514 q 196 -526 196 -545 z"},"æ":{"ha":663,"x_min":67,"x_max":663,"o":"m 366 -376 l 366 -376 q 411 -454 497 -454 q 582 -454 626 -377 l 626 -377 q 663 -312 663 -211 l 663 -211 l 391 -211 q 391 -101 445 -63 l 445 -63 q 466 -49 499 -49 q 532 -49 559 -67 q 585 -86 599 -120 l 599 -120 l 653 -102 q 633 -47 592 -19 q 551 9 498 9 l 498 9 q 404 9 359 -81 l 359 -81 q 331 -16 258 2 l 258 2 q 236 7 211 7 q 187 7 161 -1 q 134 -10 113 -26 l 113 -26 q 67 -64 67 -128 l 67 -128 q 67 -198 119 -240 l 119 -240 q 166 -278 227 -278 q 289 -278 329 -252 l 329 -252 l 329 -274 q 329 -362 271 -389 l 271 -389 q 252 -398 226 -398 l 226 -398 q 158 -398 144 -328 l 144 -328 l 87 -345 q 103 -396 143 -426 l 143 -426 q 180 -454 226 -454 l 226 -454 q 323 -454 366 -376 z m 394 -268 l 599 -268 q 592 -324 575 -349 q 558 -374 540 -384 q 522 -395 498 -395 q 473 -395 455 -384 q 437 -374 424 -355 l 424 -355 q 398 -320 394 -268 l 394 -268 z m 329 -162 l 329 -162 l 329 -195 q 298 -222 233 -222 l 233 -222 q 163 -222 138 -172 l 138 -172 q 129 -155 129 -131 q 129 -107 137 -92 q 145 -76 157 -66 l 157 -66 q 181 -49 212 -49 q 243 -49 263 -57 q 282 -65 297 -80 l 297 -80 q 329 -113 329 -162 z"},"ç":{"ha":415,"x_min":29,"x_max":385,"o":"m 262 72 l 262 72 q 231 72 205 98 l 205 98 l 161 92 l 216 9 q 135 8 84 -49 l 84 -49 q 29 -111 29 -222 l 29 -222 q 29 -333 85 -396 l 85 -396 q 137 -454 218 -454 l 218 -454 q 273 -454 317 -426 q 362 -397 385 -342 l 385 -342 l 325 -324 q 302 -376 250 -392 l 250 -392 q 234 -396 214 -396 q 193 -396 170 -385 q 148 -374 131 -353 l 131 -353 q 96 -306 96 -222 l 96 -222 q 96 -138 131 -92 l 131 -92 q 165 -48 218 -48 l 218 -48 q 270 -48 306 -89 l 306 -89 q 317 -103 325 -120 l 325 -120 l 385 -102 q 352 -21 271 2 l 271 2 l 247 37 q 262 33 276 33 q 291 33 303 37 q 316 42 326 50 l 326 50 q 348 67 348 93 q 348 119 337 139 q 326 159 308 172 l 308 172 q 272 200 221 200 l 221 200 q 192 200 170 190 q 149 180 138 169 q 128 159 128 150 l 128 150 l 128 139 q 128 136 129 132 l 129 132 l 161 117 q 156 124 156 132 q 156 140 162 145 q 167 151 176 154 l 176 154 q 190 160 206 160 q 222 160 236 156 q 250 153 262 146 l 262 146 q 288 129 288 100 l 288 100 q 288 88 281 80 q 273 72 262 72 z"},"è":{"ha":427,"x_min":29,"x_max":398,"o":"m 53 -589 l 141 -589 l 213 -501 l 157 -501 l 53 -589 z m 100 -268 l 100 -268 q 100 -268 327 -268 l 327 -268 q 318 -332 289 -364 q 260 -395 214 -395 q 168 -395 137 -361 l 137 -361 q 105 -327 100 -268 z m 398 -211 l 398 -211 l 96 -211 q 96 -134 125 -92 l 125 -92 q 139 -71 162 -60 q 185 -49 218 -49 q 252 -49 281 -67 q 311 -85 327 -120 l 327 -120 l 388 -102 q 364 -47 319 -19 q 274 9 215 9 l 215 9 q 128 9 79 -54 l 79 -54 q 29 -116 29 -222 l 29 -222 q 29 -331 80 -394 l 80 -394 q 130 -454 213 -454 l 213 -454 q 298 -454 347 -392 l 347 -392 q 398 -327 398 -211 z"},"é":{"ha":429,"x_min":29,"x_max":399,"o":"m 398 -211 l 398 -211 l 96 -211 q 96 -93 162 -60 l 162 -60 q 185 -49 218 -49 q 252 -49 281 -67 q 311 -85 327 -120 l 327 -120 l 388 -102 q 364 -47 319 -19 q 274 9 223 9 q 171 9 137 -7 q 103 -23 79 -54 l 79 -54 q 29 -116 29 -222 l 29 -222 q 29 -331 80 -394 l 80 -394 q 130 -454 213 -454 l 213 -454 q 298 -454 347 -392 l 347 -392 q 398 -327 398 -211 z m 100 -268 l 327 -268 q 318 -332 289 -364 q 260 -395 215 -395 l 215 -395 q 143 -395 112 -321 l 112 -321 q 103 -298 100 -268 l 100 -268 z m 312 -589 l 399 -589 l 295 -501 l 239 -501 l 312 -589 z"},"ê":{"ha":427,"x_min":29,"x_max":398,"o":"m 398 -211 l 398 -211 l 96 -211 q 96 -93 162 -60 l 162 -60 q 185 -49 218 -49 q 252 -49 281 -67 q 311 -85 327 -120 l 327 -120 l 388 -102 q 364 -47 319 -19 q 274 9 223 9 q 171 9 137 -7 q 103 -23 79 -54 l 79 -54 q 29 -116 29 -222 l 29 -222 q 29 -331 80 -394 l 80 -394 q 130 -454 213 -454 l 213 -454 q 298 -454 347 -392 l 347 -392 q 398 -327 398 -211 z m 100 -268 l 327 -268 q 318 -332 289 -364 q 260 -395 215 -395 l 215 -395 q 143 -395 112 -321 l 112 -321 q 103 -298 100 -268 l 100 -268 z m 239 -589 l 327 -500 l 267 -500 l 210 -539 l 156 -500 l 94 -500 l 183 -589 l 239 -589 z"},"ë":{"ha":427,"x_min":29,"x_max":398,"o":"m 398 -211 l 398 -211 l 96 -211 q 96 -93 162 -60 l 162 -60 q 185 -49 218 -49 q 252 -49 281 -67 q 311 -85 327 -120 l 327 -120 l 388 -102 q 364 -47 319 -19 q 274 9 223 9 q 171 9 137 -7 q 103 -23 79 -54 l 79 -54 q 29 -116 29 -222 l 29 -222 q 29 -331 80 -394 l 80 -394 q 130 -454 213 -454 l 213 -454 q 298 -454 347 -392 l 347 -392 q 398 -327 398 -211 z m 100 -268 l 327 -268 q 318 -332 289 -364 q 260 -395 215 -395 l 215 -395 q 143 -395 112 -321 l 112 -321 q 103 -298 100 -268 l 100 -268 z m 271 -591 l 271 -591 q 308 -591 308 -554 l 308 -554 q 308 -534 297 -525 q 286 -517 271 -517 l 271 -517 q 255 -517 244 -525 q 233 -534 233 -554 l 233 -554 q 233 -591 271 -591 z m 105 -554 q 105 -591 143 -591 q 181 -591 181 -554 l 181 -554 q 181 -534 170 -525 q 159 -517 143 -517 l 143 -517 q 127 -517 116 -525 q 105 -534 105 -554 l 105 -554 z"},"ì":{"ha":247,"x_min":39,"x_max":208,"o":"m 39 -589 l 127 -589 l 199 -501 l 144 -501 l 39 -589 z m 144 -444 l 208 -444 l 208 0 l 144 0 l 144 -444 z"},"í":{"ha":251,"x_min":39,"x_max":212,"o":"m 103 -444 l 103 0 l 39 0 l 39 -444 l 103 -444 z m 125 -588 l 212 -588 l 108 -500 l 52 -500 l 125 -588 z"},"î":{"ha":311,"x_min":39,"x_max":272,"o":"m 191 -444 l 191 0 l 127 0 l 127 -444 l 191 -444 z m 184 -588 l 272 -500 l 211 -500 l 155 -538 l 101 -500 l 39 -500 l 127 -588 l 184 -588 z"},"ï":{"ha":276,"x_min":39,"x_max":237,"o":"m 170 -444 l 170 0 l 106 0 l 106 -444 l 170 -444 z m 199 -588 l 199 -588 q 237 -588 237 -552 l 237 -552 q 237 -531 226 -523 q 215 -514 199 -514 l 199 -514 q 184 -514 173 -523 q 162 -531 162 -552 l 162 -552 q 162 -588 199 -588 z m 39 -552 q 39 -588 77 -588 q 114 -588 114 -552 l 114 -552 q 114 -531 103 -523 q 92 -514 77 -514 l 77 -514 q 61 -514 50 -523 q 39 -531 39 -552 l 39 -552 z"},"ð":{"ha":393,"x_min":67,"x_max":393,"o":"m 67 -557 l 67 -600 q 142 -600 210 -565 l 210 -565 l 236 -601 l 263 -578 l 240 -547 q 313 -498 354 -413 l 354 -413 q 393 -331 393 -240 l 393 -240 l 393 -178 q 393 -103 355 -50 l 355 -50 q 313 9 239 9 l 239 9 q 168 9 126 -51 l 126 -51 q 89 -103 89 -178 l 89 -178 q 89 -253 125 -306 l 125 -306 q 165 -365 237 -365 l 237 -365 q 273 -365 302 -344 l 302 -344 q 300 -394 275 -437 q 251 -479 211 -509 l 211 -509 l 172 -457 l 147 -478 l 183 -527 q 130 -556 67 -557 l 67 -557 z m 239 -306 l 239 -306 q 194 -306 171 -263 l 171 -263 q 154 -229 154 -193 q 154 -158 158 -136 q 162 -114 172 -95 l 172 -95 q 195 -51 239 -51 l 239 -51 q 283 -51 307 -95 l 307 -95 q 325 -130 325 -165 l 325 -165 q 325 -306 239 -306 z"},"ñ":{"ha":427,"x_min":68,"x_max":427,"o":"m 128 -444 l 132 -391 q 172 -454 255 -454 l 255 -454 q 326 -454 373 -411 l 373 -411 q 427 -362 427 -267 l 427 -267 l 427 0 l 363 0 l 363 -263 q 363 -325 328 -359 l 328 -359 q 296 -391 248 -391 l 248 -391 q 199 -391 167 -359 l 167 -359 q 132 -325 132 -263 l 132 -263 l 132 0 l 68 0 l 68 -444 l 128 -444 z m 310 -555 l 310 -555 q 346 -555 380 -583 l 380 -583 l 380 -542 q 347 -502 307 -502 l 307 -502 q 290 -502 272 -514 q 254 -527 243 -532 q 233 -538 221 -538 l 221 -538 q 182 -538 148 -504 l 148 -504 l 148 -546 q 161 -564 180 -578 q 200 -591 218 -591 q 235 -591 246 -585 q 256 -580 266 -573 l 266 -573 q 292 -555 310 -555 z"},"ò":{"ha":410,"x_min":29,"x_max":381,"o":"m 29 -588 l 117 -588 l 189 -500 l 134 -500 l 29 -588 z m 313 -294 l 313 -294 q 289 -397 206 -397 l 206 -397 q 178 -397 157 -385 l 157 -385 q 92 -347 92 -222 l 92 -222 q 92 -143 121 -97 l 121 -97 q 152 -47 206 -47 l 206 -47 q 261 -47 291 -97 l 291 -97 q 305 -120 313 -152 q 320 -184 320 -222 q 320 -261 313 -294 z m 381 -223 l 381 -223 q 381 -117 334 -54 l 334 -54 q 287 12 206 12 l 206 12 q 126 12 78 -54 l 78 -54 q 31 -118 31 -222 l 31 -222 q 31 -330 78 -393 l 78 -393 q 125 -456 206 -456 l 206 -456 q 287 -456 334 -393 l 334 -393 q 357 -362 369 -319 q 381 -276 381 -223 z"},"ó":{"ha":418,"x_min":29,"x_max":389,"o":"m 379 -223 l 379 -223 q 379 -170 367 -127 q 355 -84 332 -54 l 332 -54 q 285 12 204 12 l 204 12 q 124 12 76 -54 l 76 -54 q 29 -118 29 -222 l 29 -222 q 29 -330 76 -393 l 76 -393 q 124 -456 204 -456 l 204 -456 q 285 -456 332 -393 l 332 -393 q 379 -330 379 -223 z m 318 -223 l 318 -223 q 318 -261 311 -294 q 303 -326 289 -350 l 289 -350 q 260 -397 204 -397 l 204 -397 q 149 -397 119 -350 l 119 -350 q 90 -303 90 -222 l 90 -222 q 90 -100 155 -61 l 155 -61 q 176 -47 204 -47 l 204 -47 q 259 -47 289 -97 l 289 -97 q 318 -144 318 -223 z m 301 -588 l 389 -588 l 284 -500 l 229 -500 l 301 -588 z"},"ô":{"ha":408,"x_min":29,"x_max":379,"o":"m 379 -223 l 379 -223 q 379 -170 367 -127 q 355 -84 332 -54 l 332 -54 q 285 12 204 12 l 204 12 q 124 12 76 -54 l 76 -54 q 29 -118 29 -222 l 29 -222 q 29 -330 76 -393 l 76 -393 q 124 -456 204 -456 l 204 -456 q 285 -456 332 -393 l 332 -393 q 379 -330 379 -223 z m 318 -223 l 318 -223 q 318 -261 311 -294 q 303 -326 289 -350 l 289 -350 q 260 -397 204 -397 l 204 -397 q 149 -397 119 -350 l 119 -350 q 90 -303 90 -222 l 90 -222 q 90 -100 155 -61 l 155 -61 q 176 -47 204 -47 l 204 -47 q 259 -47 289 -97 l 289 -97 q 318 -144 318 -223 z m 233 -590 l 321 -501 l 261 -501 l 204 -540 l 150 -501 l 88 -501 l 177 -590 l 233 -590 z"},"õ":{"ha":408,"x_min":29,"x_max":379,"o":"m 379 -223 l 379 -223 q 379 -170 367 -127 q 355 -84 332 -54 l 332 -54 q 285 12 204 12 l 204 12 q 124 12 76 -54 l 76 -54 q 29 -118 29 -222 l 29 -222 q 29 -330 76 -393 l 76 -393 q 124 -456 204 -456 l 204 -456 q 285 -456 332 -393 l 332 -393 q 379 -330 379 -223 z m 318 -223 l 318 -223 q 318 -261 311 -294 q 303 -326 289 -350 l 289 -350 q 260 -397 204 -397 l 204 -397 q 149 -397 119 -350 l 119 -350 q 90 -303 90 -222 l 90 -222 q 90 -100 155 -61 l 155 -61 q 176 -47 204 -47 l 204 -47 q 259 -47 289 -97 l 289 -97 q 318 -144 318 -223 z m 265 -558 l 265 -558 q 301 -558 335 -586 l 335 -586 l 335 -544 q 302 -505 262 -505 l 262 -505 q 245 -505 227 -517 q 209 -530 198 -535 q 188 -541 176 -541 l 176 -541 q 137 -541 103 -507 l 103 -507 l 103 -549 q 116 -567 135 -581 q 155 -594 173 -594 q 190 -594 201 -588 q 211 -583 221 -576 l 221 -576 q 248 -558 265 -558 z"},"ö":{"ha":408,"x_min":29,"x_max":379,"o":"m 379 -223 l 379 -223 q 379 -170 367 -127 q 355 -84 332 -54 l 332 -54 q 285 12 204 12 l 204 12 q 124 12 76 -54 l 76 -54 q 29 -118 29 -222 l 29 -222 q 29 -330 76 -393 l 76 -393 q 124 -456 204 -456 l 204 -456 q 285 -456 332 -393 l 332 -393 q 379 -330 379 -223 z m 318 -223 l 318 -223 q 318 -261 311 -294 q 303 -326 289 -350 l 289 -350 q 260 -397 204 -397 l 204 -397 q 149 -397 119 -350 l 119 -350 q 90 -303 90 -222 l 90 -222 q 90 -100 155 -61 l 155 -61 q 176 -47 204 -47 l 204 -47 q 259 -47 289 -97 l 289 -97 q 318 -144 318 -223 z m 265 -590 l 265 -590 q 302 -590 302 -553 l 302 -553 q 302 -533 291 -524 q 280 -516 265 -516 l 265 -516 q 249 -516 238 -524 q 227 -533 227 -553 l 227 -553 q 227 -590 265 -590 z m 100 -553 q 100 -590 137 -590 q 175 -590 175 -553 l 175 -553 q 175 -533 164 -524 q 153 -516 137 -516 l 137 -516 q 122 -516 111 -524 q 100 -533 100 -553 l 100 -553 z"},"÷":{"ha":414,"x_min":78,"x_max":414,"o":"m 414 -245 l 414 -192 l 78 -192 l 78 -245 l 414 -245 z m 246 -160 l 246 -160 q 290 -160 290 -117 l 290 -117 q 290 -93 277 -83 q 264 -73 246 -73 l 246 -73 q 227 -73 214 -83 q 202 -93 202 -117 l 202 -117 q 202 -160 246 -160 z m 246 -364 l 246 -364 q 290 -364 290 -321 l 290 -321 q 290 -297 277 -287 q 264 -277 246 -277 l 246 -277 q 227 -277 214 -287 q 202 -297 202 -321 l 202 -321 q 202 -364 246 -364 z"},"ø":{"ha":436,"x_min":63,"x_max":436,"o":"m 435 -224 l 435 -224 q 435 -169 421 -126 q 407 -83 383 -52 l 383 -52 q 331 12 249 12 l 249 12 q 167 12 116 -52 l 116 -52 q 63 -117 63 -222 l 63 -222 q 63 -331 116 -395 l 116 -395 q 167 -456 249 -456 l 249 -456 q 332 -456 383 -395 l 383 -395 q 435 -332 435 -224 z m 370 -223 l 370 -223 q 370 -263 362 -296 q 354 -328 338 -351 l 338 -351 q 305 -397 249 -397 l 249 -397 q 193 -397 161 -351 l 161 -351 q 128 -304 128 -222 l 128 -222 q 128 -101 199 -60 l 199 -60 q 221 -47 249 -47 l 249 -47 q 304 -47 338 -96 l 338 -96 q 370 -143 370 -223 z m 390 -514 l 436 -514 l 131 76 l 85 76 l 390 -514 z"},"ù":{"ha":448,"x_min":39,"x_max":409,"o":"m 39 -589 l 127 -589 l 199 -501 l 144 -501 l 39 -589 z m 349 0 l 345 -53 q 306 9 228 9 q 150 9 104 -33 l 104 -33 q 50 -83 50 -177 l 50 -177 l 50 -444 l 114 -444 l 114 -181 q 114 -120 148 -85 l 148 -85 q 180 -53 229 -53 l 229 -53 q 277 -53 309 -85 l 309 -85 q 345 -120 345 -181 l 345 -181 l 345 -444 l 409 -444 l 409 0 l 349 0 z"},"ú":{"ha":437,"x_min":39,"x_max":398,"o":"m 338 0 l 334 -53 q 295 9 211 9 l 211 9 q 96 9 54 -91 l 54 -91 q 39 -126 39 -177 l 39 -177 l 39 -444 l 103 -444 l 103 -181 q 103 -120 138 -85 l 138 -85 q 169 -53 218 -53 l 218 -53 q 267 -53 298 -85 l 298 -85 q 334 -120 334 -181 l 334 -181 l 334 -444 l 398 -444 l 398 0 l 338 0 z m 307 -590 l 395 -590 l 290 -502 l 234 -502 l 307 -590 z"},"û":{"ha":437,"x_min":39,"x_max":398,"o":"m 338 0 l 334 -53 q 295 9 211 9 l 211 9 q 96 9 54 -91 l 54 -91 q 39 -126 39 -177 l 39 -177 l 39 -444 l 103 -444 l 103 -181 q 103 -120 138 -85 l 138 -85 q 169 -53 218 -53 l 218 -53 q 267 -53 298 -85 l 298 -85 q 334 -120 334 -181 l 334 -181 l 334 -444 l 398 -444 l 398 0 l 338 0 z m 249 -589 l 337 -500 l 276 -500 l 220 -539 l 166 -500 l 104 -500 l 192 -589 l 249 -589 z"},"ü":{"ha":437,"x_min":39,"x_max":398,"o":"m 338 0 l 334 -53 q 295 9 211 9 l 211 9 q 96 9 54 -91 l 54 -91 q 39 -126 39 -177 l 39 -177 l 39 -444 l 103 -444 l 103 -181 q 103 -120 138 -85 l 138 -85 q 169 -53 218 -53 l 218 -53 q 267 -53 298 -85 l 298 -85 q 334 -120 334 -181 l 334 -181 l 334 -444 l 398 -444 l 398 0 l 338 0 z m 280 -587 l 280 -587 q 318 -587 318 -551 l 318 -551 q 318 -530 307 -522 q 296 -513 280 -513 l 280 -513 q 265 -513 254 -522 q 243 -530 243 -551 l 243 -551 q 243 -587 280 -587 z m 115 -551 q 115 -587 153 -587 q 190 -587 190 -551 l 190 -551 q 190 -530 179 -522 q 168 -513 153 -513 l 153 -513 q 137 -513 126 -522 q 115 -530 115 -551 l 115 -551 z"},"ý":{"ha":466,"x_min":60,"x_max":466,"o":"m 60 157 l 93 107 q 115 125 135 125 q 155 125 169 114 q 184 103 196 85 q 208 68 218 46 q 228 24 236 3 q 244 -19 250 -38 q 256 -57 261 -69 l 261 -69 l 84 -448 l 153 -448 l 290 -147 l 397 -448 l 466 -448 l 301 1 q 271 86 249 118 q 228 149 202 168 q 176 186 147 186 l 147 186 q 93 186 60 157 l 60 157 z m 346 -587 l 434 -587 l 329 -500 l 273 -500 l 346 -587 z"},"þ":{"ha":431,"x_min":70,"x_max":431,"o":"m 431 -221 l 431 -221 q 431 -166 416 -122 q 402 -79 377 -50 l 377 -50 q 327 9 250 9 l 250 9 q 217 9 186 -5 q 155 -19 134 -46 l 134 -46 l 134 176 l 70 176 l 70 -600 l 135 -600 l 134 -392 q 161 -454 242 -454 l 242 -454 q 326 -454 377 -393 l 377 -393 q 431 -329 431 -221 z m 365 -222 l 365 -222 q 365 -263 355 -295 q 345 -327 328 -349 l 328 -349 q 293 -394 241 -394 l 241 -394 q 198 -394 167 -362 l 167 -362 q 134 -328 134 -270 l 134 -270 l 134 -177 q 134 -120 168 -83 l 168 -83 q 199 -49 242 -49 l 242 -49 q 297 -49 330 -93 l 330 -93 q 365 -140 365 -222 z"},"ÿ":{"ha":446,"x_min":40,"x_max":446,"o":"m 40 157 l 74 107 q 95 125 115 125 q 136 125 150 114 q 164 103 176 85 q 188 68 198 46 q 208 24 217 3 q 225 -19 231 -38 q 237 -57 241 -69 l 241 -69 l 64 -448 l 133 -448 l 271 -147 l 377 -448 l 446 -448 l 282 1 q 251 86 229 118 q 208 149 182 168 q 156 186 128 186 l 128 186 q 74 186 40 157 l 40 157 z m 324 -589 l 324 -589 q 362 -589 362 -553 l 362 -553 q 362 -532 351 -524 q 340 -515 324 -515 l 324 -515 q 309 -515 298 -524 q 287 -532 287 -553 l 287 -553 q 287 -589 324 -589 z m 159 -553 q 159 -589 197 -589 q 234 -589 234 -553 l 234 -553 q 234 -532 223 -524 q 212 -515 197 -515 l 197 -515 q 181 -515 170 -524 q 159 -532 159 -553 l 159 -553 z"},"ı":{"ha":123,"x_min":29,"x_max":93,"o":"m 29 -444 l 93 -444 l 93 0 l 29 0 l 29 -444 z"},"Œ":{"ha":701,"x_min":70,"x_max":701,"o":"m 404 -530 l 404 -530 l 404 -591 l 701 -591 l 701 -534 l 464 -534 l 464 -337 l 692 -337 l 692 -280 l 464 -280 l 464 -62 l 701 -62 l 701 0 l 404 0 l 404 -65 q 352 8 267 8 l 267 8 q 174 8 121 -78 l 121 -78 q 70 -160 70 -296 l 70 -296 q 70 -436 121 -518 l 121 -518 q 174 -603 263 -603 q 353 -603 404 -530 z m 404 -296 l 404 -296 q 404 -352 396 -398 q 388 -444 371 -477 l 371 -477 q 335 -544 267 -544 l 267 -544 q 164 -544 138 -398 l 138 -398 q 129 -352 129 -296 q 129 -240 138 -195 q 146 -149 163 -117 l 163 -117 q 198 -49 267 -49 l 267 -49 q 335 -49 371 -117 l 371 -117 q 404 -180 404 -296 z"},"œ":{"ha":667,"x_min":29,"x_max":637,"o":"m 334 -364 l 334 -364 q 378 -454 472 -454 l 472 -454 q 547 -454 592 -392 l 592 -392 q 637 -327 637 -211 l 637 -211 l 365 -211 q 365 -93 425 -60 l 425 -60 q 446 -49 476 -49 q 506 -49 532 -67 q 559 -85 573 -120 l 573 -120 l 628 -102 q 607 -47 567 -19 q 526 9 473 9 l 473 9 q 378 9 334 -82 l 334 -82 q 312 -37 276 -13 q 241 12 200 12 q 160 12 129 -5 q 99 -21 76 -52 l 76 -52 q 29 -117 29 -222 l 29 -222 q 29 -331 76 -395 l 76 -395 q 122 -456 196 -456 l 196 -456 q 290 -456 334 -364 z m 369 -268 l 573 -268 q 566 -332 540 -364 q 513 -395 473 -395 l 473 -395 q 408 -395 380 -321 l 380 -321 q 372 -298 369 -268 l 369 -268 z m 276 -96 q 290 -119 297 -151 q 305 -183 305 -223 q 305 -263 297 -296 q 290 -328 275 -351 l 275 -351 q 247 -397 196 -397 l 196 -397 q 146 -397 117 -351 l 117 -351 q 87 -304 87 -222 l 87 -222 q 87 -100 151 -60 l 151 -60 q 171 -47 196 -47 q 221 -47 241 -60 q 262 -73 276 -96 z"},"ˆ":{"ha":441,"x_min":176,"x_max":441,"o":"m 338 -602 l 441 -454 l 377 -454 l 308 -539 l 241 -454 l 176 -454 l 278 -602 l 338 -602 z"},"˚":{"ha":307,"x_min":208,"x_max":307,"o":"m 258 -521 l 258 -521 q 272 -521 282 -531 q 292 -541 292 -554 q 292 -567 282 -577 q 272 -586 258 -586 l 258 -586 q 244 -586 233 -577 q 223 -567 223 -554 q 223 -541 233 -531 q 244 -521 258 -521 z m 258 -601 l 258 -601 q 290 -601 303 -572 l 303 -572 q 307 -563 307 -554 q 307 -544 303 -536 q 299 -527 292 -521 l 292 -521 q 278 -507 258 -507 l 258 -507 q 226 -507 212 -536 l 212 -536 q 208 -544 208 -554 q 208 -563 212 -572 q 216 -581 223 -587 l 223 -587 q 237 -601 258 -601 z"},"˜":{"ha":420,"x_min":123,"x_max":420,"o":"m 329 -560 l 329 -560 q 376 -560 420 -594 l 420 -594 l 420 -550 q 378 -505 329 -505 l 329 -505 q 305 -505 280 -522 q 255 -540 241 -548 q 227 -556 209 -556 l 209 -556 q 166 -556 123 -521 l 123 -521 l 123 -565 q 163 -610 210 -610 l 210 -610 q 232 -610 257 -593 q 282 -575 297 -567 q 311 -560 329 -560 z"},"ം":{"ha":334,"x_min":60,"x_max":346,"o":"m 203 -276 q 261 -276 303 -234 q 346 -191 346 -133 q 346 -74 303 -32 q 261 10 203 10 l 203 10 q 144 10 102 -32 q 60 -74 60 -133 q 60 -191 102 -234 q 144 -276 203 -276 l 203 -276 z m 202 -50 q 236 -50 261 -74 q 285 -98 285 -133 q 285 -167 261 -192 q 236 -216 202 -216 l 202 -216 q 168 -216 144 -192 q 120 -167 120 -133 q 120 -98 144 -74 q 168 -50 202 -50 l 202 -50 z"},"ഃ":{"ha":221,"x_min":63,"x_max":225,"o":"m 144 -426 q 177 -426 201 -402 q 225 -378 225 -345 q 225 -312 201 -288 q 177 -265 144 -265 l 144 -265 q 110 -265 87 -288 q 63 -312 63 -345 q 63 -378 87 -402 q 110 -426 144 -426 l 144 -426 z m 144 -314 l 144 -314 q 174 -314 174 -345 q 174 -376 144 -376 l 144 -376 q 114 -376 114 -345 q 114 -314 144 -314 z m 144 -177 q 177 -177 201 -153 q 225 -129 225 -96 l 225 -96 q 225 -62 201 -39 q 177 -15 144 -15 l 144 -15 q 110 -15 87 -39 q 63 -62 63 -96 l 63 -96 q 63 -129 87 -153 q 110 -177 144 -177 l 144 -177 z m 174 -96 l 174 -96 q 174 -126 144 -126 l 144 -126 q 114 -126 114 -96 l 114 -96 q 114 -65 144 -65 l 144 -65 q 174 -65 174 -96 z"},"അ":{"ha":1120,"x_min":71,"x_max":1121,"o":"m 1121 -188 l 1121 -188 q 1121 -106 1078 -48 q 1036 10 961 10 l 961 10 q 887 10 843 -40 q 798 -91 798 -164 l 798 -164 q 798 -237 843 -292 q 888 -347 959 -347 l 959 -347 q 981 -347 1002 -341 l 1002 -341 q 951 -402 860 -402 l 860 -402 q 803 -402 764 -370 q 726 -337 726 -281 l 726 -281 l 726 0 l 660 0 l 660 -280 q 660 -341 618 -372 q 577 -402 513 -402 l 513 -402 l 499 -402 q 521 -390 538 -360 q 555 -330 555 -301 l 555 -301 q 555 -231 493 -213 l 493 -213 q 523 -205 542 -176 q 562 -147 562 -112 l 562 -112 q 562 -58 521 -24 q 479 10 423 10 l 423 10 q 338 10 290 -52 q 241 -115 241 -204 l 241 -204 q 241 -324 340 -402 l 340 -402 l 314 -402 q 233 -402 182 -346 q 130 -290 130 -208 l 130 -208 q 130 -89 223 -31 l 223 -31 l 180 11 q 71 -65 71 -208 l 71 -208 q 71 -312 145 -386 q 218 -460 323 -460 l 323 -460 q 384 -460 417 -442 l 417 -442 q 452 -460 515 -460 l 515 -460 q 648 -460 695 -393 l 695 -393 q 736 -460 866 -460 l 866 -460 q 974 -460 1047 -378 q 1121 -296 1121 -188 z m 857 -168 l 857 -168 q 857 -119 886 -83 q 915 -46 963 -46 l 963 -46 q 1011 -46 1036 -83 q 1061 -119 1061 -171 l 1061 -171 q 1061 -223 1038 -271 l 1038 -271 q 1008 -291 960 -291 l 960 -291 q 913 -291 885 -254 q 857 -217 857 -168 z m 496 -117 l 496 -117 q 496 -181 409 -181 l 409 -181 l 374 -181 l 374 -231 l 409 -231 q 443 -231 466 -250 q 490 -268 490 -301 l 490 -301 q 490 -349 417 -383 l 417 -383 q 300 -327 300 -203 l 300 -203 q 300 -142 330 -97 q 359 -52 417 -52 l 417 -52 q 445 -52 470 -70 q 496 -88 496 -117 z"},"ആ":{"ha":1253,"x_min":71,"x_max":1254,"o":"m 1054 -354 q 1148 -343 1201 -274 q 1254 -205 1254 -92 q 1254 21 1184 104 q 1114 187 1004 187 l 1004 187 q 941 187 881 147 l 881 147 l 905 97 q 952 133 1003 133 l 1003 133 q 1089 133 1144 65 q 1199 -2 1199 -96 l 1199 -96 q 1199 -166 1168 -220 q 1138 -275 1081 -292 l 1081 -292 q 1104 -249 1104 -174 q 1104 -99 1069 -45 q 1034 8 958 8 q 881 8 843 -37 q 805 -83 805 -163 l 805 -163 q 805 -243 853 -298 q 901 -353 979 -353 l 979 -353 q 933 -402 868 -402 q 803 -402 764 -370 q 726 -339 726 -280 l 726 -280 l 726 0 l 660 0 l 660 -278 q 660 -339 622 -370 q 584 -401 529 -401 l 529 -401 q 527 -401 505 -401 l 505 -401 q 556 -359 556 -300 l 556 -300 q 556 -230 493 -212 l 493 -212 q 524 -204 543 -175 q 562 -146 562 -111 l 562 -111 q 562 -56 523 -24 q 483 8 426 8 l 426 8 q 336 8 289 -51 q 241 -110 241 -203 l 241 -203 q 241 -319 337 -401 l 337 -401 q 313 -401 310 -401 l 310 -401 q 235 -401 182 -344 q 128 -287 128 -207 l 128 -207 q 128 -89 223 -30 l 223 -30 l 180 12 q 71 -64 71 -208 l 71 -208 q 71 -311 144 -385 q 217 -460 320 -460 l 320 -460 q 387 -460 421 -441 l 421 -441 q 456 -460 515 -460 l 515 -460 q 639 -460 695 -392 l 695 -392 q 745 -460 858 -460 l 858 -460 q 993 -460 1054 -354 l 1054 -354 z m 1045 -173 l 1045 -173 q 1045 -249 1016 -299 l 1016 -299 q 1004 -300 994 -300 l 994 -300 q 935 -300 899 -260 q 864 -221 864 -166 l 864 -166 q 864 -111 886 -80 q 908 -48 952 -48 l 952 -48 q 1045 -48 1045 -173 z m 496 -117 l 496 -117 q 496 -158 452 -172 l 452 -172 q 428 -180 375 -180 l 375 -180 l 375 -230 q 490 -230 490 -300 l 490 -300 q 490 -328 467 -350 q 444 -372 421 -379 l 421 -379 q 372 -368 336 -314 q 300 -260 300 -202 l 300 -202 q 300 -143 330 -97 q 360 -52 417 -52 l 417 -52 q 445 -52 470 -70 q 496 -88 496 -117 z"},"ഇ":{"ha":806,"x_min":70,"x_max":808,"o":"m 458 -385 l 458 -385 q 495 -460 596 -460 q 698 -460 753 -397 q 808 -334 808 -233 q 808 -132 736 -66 q 664 0 563 0 l 563 0 l 225 0 q 197 0 173 16 q 149 31 149 60 l 149 60 q 149 88 171 104 q 193 119 224 119 l 224 119 l 798 119 l 798 178 l 214 178 q 158 178 121 146 q 84 113 84 59 l 84 59 q 84 5 121 -25 q 158 -55 214 -55 l 214 -55 l 549 -55 q 625 -55 681 -105 q 737 -154 737 -230 l 737 -230 q 737 -306 698 -354 q 658 -402 592 -402 l 592 -402 q 549 -402 522 -365 q 496 -327 496 -278 l 496 -278 l 496 -95 l 424 -95 l 424 -278 q 424 -331 379 -366 q 335 -402 278 -402 l 278 -402 q 222 -402 180 -373 q 139 -343 132 -288 l 132 -288 q 136 -318 166 -333 q 195 -348 227 -348 l 227 -348 q 277 -348 309 -309 q 340 -271 340 -214 q 340 -157 302 -121 q 263 -85 202 -85 q 141 -85 105 -133 q 70 -181 70 -254 l 70 -254 q 70 -352 129 -406 q 189 -460 289 -460 l 289 -460 q 409 -460 458 -385 z m 208 -143 q 238 -143 258 -161 q 278 -180 278 -213 l 278 -213 q 278 -247 261 -270 q 243 -293 213 -293 l 213 -293 q 183 -293 161 -272 q 140 -250 140 -219 l 140 -219 q 140 -188 158 -165 q 177 -143 208 -143 l 208 -143 z"},"ഈ":{"ha":1422,"x_min":70,"x_max":1422,"o":"m 1245 -468 q 1323 -468 1373 -407 q 1422 -347 1422 -247 l 1422 -247 q 1422 -147 1371 -72 q 1319 3 1199 3 l 1199 3 q 1116 3 1071 -41 q 1026 -84 1026 -135 l 1026 -135 l 1091 -135 q 1108 -57 1196 -57 l 1196 -57 q 1352 -57 1352 -239 l 1352 -239 q 1352 -409 1238 -409 l 1238 -409 q 1205 -409 1181 -383 q 1157 -357 1157 -322 l 1157 -322 l 1157 -241 l 1085 -240 l 1085 -313 q 1085 -409 1011 -409 l 1011 -409 q 967 -409 948 -379 q 928 -348 928 -282 l 928 -282 q 928 -271 930 -230 l 930 -230 l 870 -230 q 864 -277 864 -290 l 864 -290 q 864 -468 1021 -468 l 1021 -468 q 1090 -468 1123 -413 l 1123 -413 q 1145 -444 1170 -456 q 1195 -468 1245 -468 l 1245 -468 z m 458 -385 l 458 -385 q 495 -460 596 -460 q 698 -460 753 -397 q 808 -334 808 -233 q 808 -132 736 -66 q 664 0 563 0 l 563 0 l 225 0 q 197 0 173 16 q 149 31 149 60 l 149 60 q 149 88 171 104 q 193 119 224 119 l 224 119 l 798 119 l 798 178 l 214 178 q 158 178 121 146 q 84 113 84 59 l 84 59 q 84 5 121 -25 q 158 -55 214 -55 l 214 -55 l 549 -55 q 625 -55 681 -105 q 737 -154 737 -230 l 737 -230 q 737 -306 698 -354 q 658 -402 592 -402 l 592 -402 q 549 -402 522 -365 q 496 -327 496 -278 l 496 -278 l 496 -95 l 424 -95 l 424 -278 q 424 -331 379 -366 q 335 -402 278 -402 l 278 -402 q 222 -402 180 -373 q 139 -343 132 -288 l 132 -288 q 136 -318 166 -333 q 195 -348 227 -348 l 227 -348 q 277 -348 309 -309 q 340 -271 340 -214 q 340 -157 302 -121 q 263 -85 202 -85 q 141 -85 105 -133 q 70 -181 70 -254 l 70 -254 q 70 -352 129 -406 q 189 -460 289 -460 l 289 -460 q 409 -460 458 -385 z m 208 -143 q 238 -143 258 -161 q 278 -180 278 -213 l 278 -213 q 278 -247 261 -270 q 243 -293 213 -293 l 213 -293 q 183 -293 161 -272 q 140 -250 140 -219 l 140 -219 q 140 -188 158 -165 q 177 -143 208 -143 l 208 -143 z"},"ഉ":{"ha":591,"x_min":72,"x_max":592,"o":"m 592 -217 l 592 -217 q 592 0 360 0 l 360 0 l 222 0 q 152 0 152 57 l 152 57 q 152 85 173 102 q 194 118 222 118 l 222 118 l 582 118 l 582 178 l 211 178 q 157 178 119 144 q 82 110 82 58 l 82 58 q 82 5 119 -24 q 156 -54 211 -54 l 211 -54 l 346 -54 q 521 -54 521 -218 l 521 -218 q 521 -313 458 -357 q 394 -402 312 -402 l 312 -402 q 261 -402 210 -375 q 158 -349 143 -300 l 143 -300 q 169 -343 225 -343 q 281 -343 316 -308 q 352 -272 352 -214 l 352 -214 q 352 -155 312 -120 q 272 -85 211 -85 q 150 -85 111 -128 q 72 -171 72 -240 l 72 -240 q 72 -344 142 -402 q 211 -460 323 -460 l 323 -460 q 435 -460 513 -399 q 592 -337 592 -217 z m 212 -142 q 243 -142 262 -162 q 281 -183 281 -216 l 281 -216 q 281 -250 262 -271 q 244 -292 212 -292 l 212 -292 q 181 -292 161 -271 q 141 -250 141 -217 q 141 -185 161 -163 q 181 -142 212 -142 l 212 -142 z"},"ഊ":{"ha":1213,"x_min":72,"x_max":1213,"o":"m 1036 -470 q 1114 -470 1163 -410 q 1213 -350 1213 -250 l 1213 -250 q 1213 -149 1161 -74 q 1110 0 990 0 l 990 0 q 906 0 862 -43 q 817 -86 817 -137 l 817 -137 l 882 -137 q 898 -59 986 -59 l 986 -59 q 1142 -59 1142 -241 l 1142 -241 q 1142 -412 1028 -412 l 1028 -412 q 996 -412 972 -386 q 948 -360 948 -324 l 948 -324 l 948 -244 l 875 -242 l 875 -315 q 875 -412 801 -412 l 801 -412 q 757 -412 738 -381 q 719 -351 719 -285 l 719 -285 q 719 -274 721 -233 l 721 -233 l 660 -233 q 654 -280 654 -292 l 654 -292 q 654 -470 812 -470 l 812 -470 q 881 -470 913 -415 l 913 -415 q 936 -446 960 -458 q 985 -470 1036 -470 l 1036 -470 z m 592 -217 l 592 -217 q 592 0 360 0 l 360 0 l 222 0 q 152 0 152 57 l 152 57 q 152 85 173 102 q 194 118 222 118 l 222 118 l 582 118 l 582 178 l 211 178 q 157 178 119 144 q 82 110 82 58 l 82 58 q 82 5 119 -24 q 156 -54 211 -54 l 211 -54 l 346 -54 q 521 -54 521 -218 l 521 -218 q 521 -313 458 -357 q 394 -402 312 -402 l 312 -402 q 261 -402 210 -375 q 158 -349 143 -300 l 143 -300 q 169 -343 225 -343 q 281 -343 316 -308 q 352 -272 352 -214 l 352 -214 q 352 -155 312 -120 q 272 -85 211 -85 q 150 -85 111 -128 q 72 -171 72 -240 l 72 -240 q 72 -344 142 -402 q 211 -460 323 -460 l 323 -460 q 435 -460 513 -399 q 592 -337 592 -217 z m 212 -142 q 243 -142 262 -162 q 281 -183 281 -216 l 281 -216 q 281 -250 262 -271 q 244 -292 212 -292 l 212 -292 q 181 -292 161 -271 q 141 -250 141 -217 q 141 -185 161 -163 q 181 -142 212 -142 l 212 -142 z"},"ഋ":{"ha":710,"x_min":70,"x_max":712,"o":"m 423 -329 l 423 -329 q 424 -386 463 -423 q 502 -460 566 -460 l 566 -460 q 630 -460 671 -407 q 712 -354 712 -284 q 712 -214 678 -163 q 644 -111 582 -85 l 582 -85 q 696 -65 696 36 l 696 36 q 696 120 603 156 q 510 191 390 191 q 270 191 180 156 q 90 122 90 36 l 90 36 q 90 -38 202 -85 l 202 -85 q 139 -104 104 -159 q 70 -213 70 -285 q 70 -356 109 -408 q 149 -460 225 -460 l 225 -460 q 281 -460 318 -423 q 355 -386 355 -328 l 355 -328 q 355 -271 320 -232 q 285 -194 230 -194 l 230 -194 q 198 -194 170 -213 q 141 -232 131 -264 l 131 -264 q 131 -114 391 -114 l 391 -114 q 650 -114 651 -264 l 651 -264 q 643 -231 613 -213 q 583 -194 550 -194 l 550 -194 q 497 -194 460 -233 q 423 -272 423 -329 z m 629 -329 l 629 -329 q 629 -358 610 -380 q 591 -402 558 -402 l 558 -402 q 524 -402 505 -380 q 485 -358 485 -329 l 485 -329 q 485 -300 506 -277 q 526 -254 559 -254 l 559 -254 q 591 -254 610 -276 q 629 -299 629 -329 z m 293 -329 l 293 -329 q 293 -358 275 -380 q 256 -402 223 -402 l 223 -402 q 189 -402 169 -380 q 149 -358 149 -329 l 149 -329 q 149 -300 169 -277 q 190 -254 222 -254 l 222 -254 q 254 -254 274 -276 q 293 -299 293 -329 z m 626 36 l 626 36 q 626 -50 393 -50 l 393 -50 q 159 -50 159 36 l 159 36 q 159 126 393 126 q 626 126 626 36 z"},"ഌ":{"ha":871,"x_min":71,"x_max":872,"o":"m 872 -190 l 872 -190 q 872 -106 830 -48 q 788 10 705 10 l 705 10 q 639 10 598 -28 q 557 -66 557 -131 l 557 -131 q 557 -195 596 -240 q 636 -284 696 -284 l 696 -284 q 731 -284 765 -268 q 798 -251 809 -223 l 809 -223 q 804 -295 754 -348 q 703 -402 626 -402 l 626 -402 q 575 -402 540 -371 q 504 -339 504 -288 l 504 -288 l 504 2 l 438 2 l 438 -288 q 438 -339 403 -371 q 368 -402 317 -402 l 317 -402 q 240 -402 189 -348 q 138 -295 133 -223 l 133 -223 q 144 -251 178 -268 q 211 -284 246 -284 l 246 -284 q 306 -284 346 -240 q 386 -195 386 -131 l 386 -131 q 386 -66 345 -28 q 304 10 238 10 l 238 10 q 156 10 114 -47 q 71 -104 71 -190 l 71 -190 q 71 -300 136 -380 q 202 -460 310 -460 l 310 -460 q 418 -460 471 -393 l 471 -393 q 524 -460 633 -460 q 741 -460 806 -380 q 872 -300 872 -190 z m 707 -48 q 742 -48 767 -72 q 792 -96 792 -131 q 792 -166 767 -191 q 741 -217 707 -217 q 673 -217 649 -191 q 625 -165 625 -130 q 625 -95 649 -72 q 672 -48 707 -48 z m 235 -48 q 270 -48 293 -72 q 317 -95 317 -130 q 317 -165 293 -191 q 269 -217 235 -217 q 202 -217 176 -191 q 150 -166 150 -131 q 150 -96 175 -72 q 201 -48 235 -48 z"},"എ":{"ha":990,"x_min":71,"x_max":990,"o":"m 990 -118 l 990 -118 q 990 66 877 183 l 877 183 l 833 141 q 884 82 904 24 q 924 -34 924 -118 l 924 -118 q 924 -402 752 -402 l 752 -402 q 666 -402 620 -326 q 574 -250 574 -111 l 574 -111 q 574 -61 575 -54 l 575 -54 l 710 -54 l 710 -307 l 777 -307 l 777 37 q 777 94 742 137 q 707 180 647 180 l 647 180 q 587 180 552 126 q 517 71 507 0 l 507 0 l 303 0 l 303 -34 q 366 -63 366 -139 l 366 -139 q 366 -186 332 -218 q 297 -250 248 -250 l 248 -250 q 199 -250 164 -219 q 128 -188 128 -142 l 128 -142 q 128 -60 202 -34 l 202 -34 l 162 4 q 71 -42 71 -142 l 71 -142 q 71 -215 119 -261 q 167 -308 248 -308 q 330 -308 378 -261 q 427 -215 427 -149 l 427 -149 q 427 -84 401 -54 l 401 -54 l 506 -54 l 505 -112 q 505 -267 566 -364 q 627 -460 751 -460 l 751 -460 q 990 -460 990 -118 z m 710 51 l 710 51 l 710 0 l 581 0 q 589 117 654 117 l 654 117 q 679 117 695 97 q 710 77 710 51 z"},"ഏ":{"ha":1014,"x_min":71,"x_max":1014,"o":"m 1014 24 l 1014 24 q 1014 178 880 178 l 880 178 q 868 178 832 167 l 832 167 l 832 99 q 850 114 873 114 l 873 114 q 953 114 953 24 l 953 24 q 953 -17 929 -46 q 906 -76 864 -76 l 864 -76 l 838 -76 l 838 -143 l 864 -143 q 898 -143 925 -182 q 953 -221 953 -258 l 953 -258 q 953 -329 898 -365 q 844 -402 775 -402 l 775 -402 q 676 -402 623 -315 q 570 -229 570 -83 l 570 -83 q 570 -68 570 -54 l 570 -54 l 712 -54 l 712 -307 l 776 -307 l 776 47 q 776 104 740 144 q 703 184 651 184 l 651 184 q 533 184 510 0 l 510 0 l 303 0 l 303 -39 q 366 -67 366 -139 l 366 -139 q 366 -186 330 -218 q 294 -250 247 -250 l 247 -250 q 199 -250 164 -219 q 128 -188 128 -142 l 128 -142 q 128 -62 200 -36 l 200 -36 l 158 8 q 71 -40 71 -142 l 71 -142 q 71 -212 124 -260 q 177 -308 248 -308 l 248 -308 q 319 -308 373 -260 q 426 -212 426 -147 l 426 -147 q 426 -83 401 -54 l 401 -54 l 507 -54 l 507 -111 q 507 -253 574 -357 q 641 -460 777 -460 l 777 -460 q 886 -460 950 -406 q 1014 -352 1014 -255 l 1014 -255 q 1014 -213 998 -173 q 981 -132 952 -114 l 952 -114 q 1014 -70 1014 24 z m 710 53 l 710 53 l 710 0 l 577 0 q 587 119 651 119 l 651 119 q 677 119 694 99 q 710 79 710 53 z"},"ഐ":{"ha":1564,"x_min":71,"x_max":1564,"o":"m 1564 -117 l 1564 -117 q 1564 67 1451 184 l 1451 184 l 1407 142 q 1458 83 1478 25 q 1498 -33 1498 -117 l 1498 -117 q 1498 -401 1326 -401 l 1326 -401 q 1240 -401 1194 -325 q 1147 -250 1147 -110 l 1147 -110 q 1147 -60 1148 -53 l 1148 -53 l 1284 -53 l 1284 -306 l 1351 -306 l 1351 38 q 1351 95 1316 138 q 1280 181 1221 181 l 1221 181 q 1161 181 1126 127 q 1091 72 1081 1 l 1081 1 l 877 1 l 877 -33 q 940 -62 940 -138 l 940 -138 q 940 -185 905 -217 q 871 -250 822 -250 l 822 -250 q 773 -250 738 -219 q 702 -187 702 -141 l 702 -141 q 702 -59 775 -33 l 775 -33 l 736 5 q 645 -41 645 -141 l 645 -141 q 645 -214 693 -260 q 741 -307 822 -307 q 903 -307 952 -260 q 1001 -214 1001 -148 l 1001 -148 q 1001 -83 975 -53 l 975 -53 l 1080 -53 l 1079 -111 q 1079 -266 1140 -363 q 1201 -459 1325 -459 l 1325 -459 q 1564 -459 1564 -117 z m 1284 52 l 1284 52 l 1284 1 l 1154 1 q 1163 118 1228 118 l 1228 118 q 1253 118 1269 98 q 1284 78 1284 52 z m 587 -218 l 587 -218 q 587 -69 449 0 l 449 0 l 414 -48 q 519 -101 519 -218 l 519 -218 q 519 -300 467 -355 q 415 -410 331 -410 l 331 -410 q 247 -410 193 -357 q 138 -303 133 -223 l 133 -223 q 142 -252 177 -269 q 211 -285 246 -285 l 246 -285 q 308 -285 350 -243 q 393 -201 393 -139 l 393 -139 q 393 -77 349 -37 q 306 2 238 2 l 238 2 q 151 2 111 -56 q 71 -114 71 -202 l 71 -202 q 71 -315 141 -392 q 212 -469 329 -469 l 329 -469 q 446 -469 517 -397 q 587 -326 587 -218 z m 235 -57 q 271 -57 294 -81 q 317 -105 317 -139 l 317 -139 q 317 -173 294 -201 q 271 -228 235 -228 q 199 -228 175 -201 q 150 -174 150 -140 l 150 -140 q 150 -106 175 -81 q 199 -57 235 -57 z"},"ഒ":{"ha":584,"x_min":69,"x_max":587,"o":"m 587 -107 l 587 -107 q 587 -52 553 -21 q 519 11 463 11 l 463 11 q 431 11 400 1 l 400 1 l 400 -59 q 423 -44 452 -44 l 452 -44 q 522 -44 522 -111 l 522 -111 q 522 -143 503 -165 q 483 -188 453 -188 l 453 -188 l 401 -188 l 401 -254 l 447 -254 q 476 -254 498 -269 q 520 -285 520 -313 l 520 -313 q 520 -402 347 -402 l 347 -402 q 255 -402 196 -356 q 138 -310 133 -230 l 133 -230 q 166 -270 224 -270 l 224 -270 q 281 -270 317 -231 q 353 -192 353 -132 q 353 -72 314 -30 q 275 11 209 11 l 209 11 q 143 11 106 -49 q 69 -110 69 -188 l 69 -188 q 69 -322 146 -391 q 223 -460 367 -460 l 367 -460 q 479 -460 532 -415 q 584 -370 584 -313 l 584 -313 q 584 -245 527 -223 l 527 -223 q 587 -198 587 -107 z m 216 -44 q 250 -44 269 -70 q 288 -96 288 -131 l 288 -131 q 288 -166 268 -191 q 248 -217 213 -217 l 213 -217 q 179 -217 160 -193 q 140 -169 140 -133 l 140 -133 q 140 -97 161 -70 q 182 -44 216 -44 l 216 -44 z"},"ഓ":{"ha":982,"x_min":69,"x_max":984,"o":"m 587 -119 l 587 -119 q 587 -63 553 -32 q 519 0 463 0 l 463 0 q 431 0 400 -10 l 400 -10 l 400 -70 q 423 -55 452 -55 l 452 -55 q 522 -55 522 -122 l 522 -122 q 522 -154 503 -177 q 483 -199 453 -199 l 453 -199 l 401 -199 l 401 -265 l 447 -265 q 476 -265 498 -281 q 520 -296 520 -324 l 520 -324 q 520 -413 347 -413 l 347 -413 q 255 -413 196 -367 q 138 -321 133 -241 l 133 -241 q 166 -281 224 -281 l 224 -281 q 281 -281 317 -242 q 353 -203 353 -143 q 353 -83 314 -42 q 275 0 209 0 l 209 0 q 143 0 106 -61 q 69 -121 69 -199 l 69 -199 q 69 -333 146 -402 q 223 -472 367 -472 l 367 -472 q 479 -472 532 -426 q 584 -381 584 -324 l 584 -324 q 584 -256 527 -234 l 527 -234 q 587 -209 587 -119 z m 216 -55 q 250 -55 269 -81 q 288 -107 288 -142 l 288 -142 q 288 -177 268 -203 q 248 -228 213 -228 l 213 -228 q 179 -228 160 -204 q 140 -180 140 -144 l 140 -144 q 140 -108 161 -82 q 182 -55 216 -55 l 216 -55 z m 706 -288 l 641 -288 q 643 -361 686 -411 q 729 -460 813 -460 l 813 -460 q 897 -460 941 -395 q 984 -330 984 -228 l 984 -228 q 984 -126 941 -58 q 897 10 804 10 l 804 10 q 729 10 686 -34 q 643 -79 643 -168 l 643 -168 q 675 -169 707 -170 l 707 -170 q 707 -122 734 -86 q 761 -51 804 -51 l 804 -51 q 917 -51 917 -227 l 917 -227 q 917 -401 810 -402 l 810 -402 q 763 -402 734 -369 q 706 -336 706 -288 l 706 -288 z"},"ഔ":{"ha":1204,"x_min":69,"x_max":1202,"o":"m 587 -119 l 587 -119 q 587 -63 553 -32 q 519 0 463 0 l 463 0 q 431 0 400 -10 l 400 -10 l 400 -70 q 423 -55 452 -55 l 452 -55 q 522 -55 522 -122 l 522 -122 q 522 -154 503 -177 q 483 -199 453 -199 l 453 -199 l 401 -199 l 401 -265 l 447 -265 q 476 -265 498 -281 q 520 -296 520 -324 l 520 -324 q 520 -413 347 -413 l 347 -413 q 255 -413 196 -367 q 138 -321 133 -241 l 133 -241 q 166 -281 224 -281 l 224 -281 q 281 -281 317 -242 q 353 -203 353 -143 q 353 -83 314 -42 q 275 0 209 0 l 209 0 q 143 0 106 -61 q 69 -121 69 -199 l 69 -199 q 69 -333 146 -402 q 223 -472 367 -472 l 367 -472 q 479 -472 532 -426 q 584 -381 584 -324 l 584 -324 q 584 -256 527 -234 l 527 -234 q 587 -209 587 -119 z m 216 -55 q 250 -55 269 -81 q 288 -107 288 -142 l 288 -142 q 288 -177 268 -203 q 248 -228 213 -228 l 213 -228 q 179 -228 160 -204 q 140 -180 140 -144 l 140 -144 q 140 -108 161 -82 q 182 -55 216 -55 l 216 -55 z m 1025 -471 q 1103 -471 1153 -411 q 1202 -351 1202 -250 l 1202 -250 q 1202 -150 1151 -75 q 1099 0 979 0 l 979 0 q 896 0 851 -44 q 806 -87 806 -138 l 806 -138 l 871 -138 q 888 -60 976 -60 l 976 -60 q 1131 -60 1131 -242 l 1131 -242 q 1131 -413 1018 -413 l 1018 -413 q 985 -413 961 -387 q 937 -361 937 -325 l 937 -325 l 937 -245 l 865 -243 l 865 -316 q 865 -413 791 -413 l 791 -413 q 747 -413 727 -382 q 708 -352 708 -286 l 708 -286 q 708 -275 710 -234 l 710 -234 l 649 -234 q 644 -281 644 -293 l 644 -293 q 644 -471 801 -471 l 801 -471 q 870 -471 902 -416 l 902 -416 q 925 -447 950 -459 q 975 -471 1025 -471 l 1025 -471 z"},"ക":{"ha":785,"x_min":71,"x_max":785,"o":"m 588 -280 l 633 -280 q 698 -280 741 -242 q 785 -205 785 -138 q 785 -71 750 -30 q 714 11 648 11 l 648 11 q 621 11 599 3 l 599 3 l 599 -58 q 618 -46 639 -46 l 639 -46 q 719 -46 719 -139 l 719 -139 q 719 -220 624 -220 l 624 -220 l 588 -220 l 588 -194 q 588 11 427 11 l 427 11 q 329 11 298 -56 l 298 -56 q 276 11 197 11 l 197 11 q 134 11 103 -32 q 71 -76 71 -138 q 71 -200 112 -240 q 154 -280 217 -280 l 217 -280 l 263 -280 l 263 -295 q 263 -366 309 -413 q 355 -460 428 -460 l 428 -460 q 500 -460 544 -413 q 588 -365 588 -295 l 588 -295 l 588 -280 z m 327 -280 l 522 -280 l 522 -292 q 522 -336 494 -369 q 467 -402 424 -402 q 380 -402 354 -369 q 327 -335 327 -290 l 327 -290 l 327 -280 z m 522 -198 l 522 -198 l 522 -220 l 327 -220 l 327 -196 q 327 -45 424 -45 l 424 -45 q 522 -45 522 -198 z m 263 -195 l 263 -195 l 263 -220 l 231 -220 q 129 -220 129 -138 l 129 -138 q 129 -103 148 -75 q 166 -46 198 -46 l 198 -46 q 230 -46 249 -70 q 267 -93 267 -109 q 267 -125 263 -195 z"},"ഖ":{"ha":748,"x_min":70,"x_max":749,"o":"m 749 -449 l 749 0 l 424 0 l 424 -49 q 497 -96 497 -208 l 497 -208 q 497 -290 451 -346 q 405 -402 320 -402 l 320 -402 q 236 -402 184 -345 q 132 -288 132 -223 l 132 -223 q 132 -223 132 -215 l 132 -215 q 157 -273 222 -273 l 222 -273 q 286 -273 322 -232 q 357 -191 357 -130 q 357 -70 322 -30 q 287 10 228 10 l 228 10 q 145 10 107 -47 q 70 -104 70 -186 l 70 -186 q 70 -306 139 -383 q 209 -460 320 -460 l 320 -460 q 432 -460 499 -387 q 567 -313 567 -210 l 567 -210 q 567 -108 515 -55 l 515 -55 l 683 -55 l 683 -449 l 749 -449 z m 224 -45 q 258 -45 278 -70 q 298 -95 298 -130 l 298 -130 q 298 -165 278 -190 q 258 -215 224 -215 l 224 -215 q 189 -215 169 -190 q 149 -165 149 -130 l 149 -130 q 149 -95 169 -70 q 189 -45 224 -45 l 224 -45 z"},"ഗ":{"ha":748,"x_min":71,"x_max":749,"o":"m 749 -218 l 749 -218 q 749 -60 613 10 l 613 10 l 570 -31 q 688 -83 688 -226 l 688 -226 q 688 -297 650 -349 q 612 -402 548 -402 l 548 -402 q 446 -402 446 -238 l 446 -238 l 446 -172 q 446 -96 398 -43 q 351 10 264 10 l 264 10 q 177 10 124 -58 q 71 -126 71 -221 l 71 -221 q 71 -392 208 -460 l 208 -460 l 249 -419 q 137 -364 137 -230 l 137 -230 q 137 -164 172 -107 q 208 -51 271 -51 l 271 -51 q 380 -51 382 -190 l 382 -190 l 384 -294 q 386 -361 429 -411 q 472 -460 547 -460 l 547 -460 q 648 -460 698 -390 q 749 -319 749 -218 z"},"ഘ":{"ha":1107,"x_min":71,"x_max":1106,"o":"m 506 0 l 506 -154 q 506 -154 304 -154 l 304 -154 l 304 -187 q 366 -216 366 -292 l 366 -292 q 366 -339 331 -370 q 295 -402 247 -402 q 199 -402 164 -372 q 128 -341 128 -294 l 128 -294 q 128 -227 189 -198 l 189 -198 l 161 -149 q 71 -193 71 -294 l 71 -294 q 71 -365 124 -413 q 176 -460 249 -460 q 321 -460 374 -413 q 426 -365 426 -300 l 426 -300 q 426 -235 401 -208 l 401 -208 l 506 -208 l 506 -272 q 506 -359 567 -410 q 627 -460 717 -460 l 717 -460 q 807 -460 865 -410 q 922 -360 922 -272 l 922 -272 l 922 -154 l 576 -154 l 576 -54 l 1041 -54 l 1041 -449 l 1106 -449 l 1106 0 l 506 0 z m 577 -208 l 854 -208 l 854 -254 q 854 -319 818 -361 q 782 -402 718 -402 q 653 -402 615 -361 q 577 -319 577 -254 l 577 -254 l 577 -208 z"},"ങ":{"ha":826,"x_min":70,"x_max":825,"o":"m 825 -122 l 825 -122 q 825 -62 781 -26 q 738 10 683 10 l 683 10 q 628 10 584 -1 l 584 -1 l 584 -61 q 600 -48 672 -48 l 672 -48 q 708 -48 734 -68 q 760 -88 760 -125 l 760 -125 q 760 -199 667 -199 l 667 -199 l 594 -199 l 594 -258 l 667 -258 q 760 -258 760 -324 l 760 -324 q 760 -363 721 -383 q 683 -402 634 -402 q 585 -402 541 -376 q 497 -351 497 -304 l 497 -304 l 497 0 l 431 0 l 431 -304 q 431 -348 390 -375 q 349 -402 303 -402 l 303 -402 q 221 -402 175 -344 q 130 -287 130 -215 l 130 -215 q 150 -272 229 -272 l 229 -272 q 291 -272 328 -233 q 364 -193 364 -133 l 364 -133 q 364 -73 324 -31 q 283 10 219 10 l 219 10 q 141 10 105 -51 q 70 -111 70 -193 l 70 -193 q 70 -305 131 -383 q 192 -460 299 -460 l 299 -460 q 407 -460 466 -396 l 466 -396 q 524 -460 640 -460 l 640 -460 q 708 -460 766 -426 q 825 -392 825 -326 l 825 -326 q 825 -295 807 -268 q 789 -240 758 -231 l 758 -231 q 825 -210 825 -122 z m 221 -48 q 252 -48 274 -73 q 295 -98 295 -131 l 295 -131 q 295 -165 276 -191 q 256 -216 221 -216 l 221 -216 q 187 -216 166 -191 q 145 -166 145 -132 q 145 -99 167 -73 q 189 -48 221 -48 l 221 -48 z"},"ച":{"ha":709,"x_min":72,"x_max":711,"o":"m 711 -449 l 711 0 l 72 0 l 72 -55 l 342 -55 q 382 -55 412 -85 q 442 -116 442 -153 q 442 -190 415 -216 q 388 -243 349 -243 q 311 -243 282 -216 q 254 -190 254 -151 l 254 -151 q 254 -128 265 -109 l 265 -109 l 200 -107 q 193 -133 193 -154 l 193 -154 q 193 -215 240 -260 q 286 -304 351 -304 l 351 -304 q 415 -304 460 -260 q 505 -215 505 -153 q 505 -90 459 -55 l 459 -55 l 646 -55 l 646 -449 l 711 -449 z"},"ഛ":{"ha":1056,"x_min":72,"x_max":1055,"o":"m 351 -305 l 351 -305 q 415 -305 459 -262 q 502 -219 502 -153 l 502 -153 q 502 -87 458 -56 l 458 -56 l 588 -56 q 551 -112 551 -205 l 551 -205 q 551 -317 624 -389 q 697 -460 803 -460 l 803 -460 q 908 -460 981 -380 q 1055 -300 1055 -190 l 1055 -190 q 1055 -108 1009 -49 q 964 10 891 10 l 891 10 q 817 10 773 -40 q 729 -91 729 -165 l 729 -165 q 729 -239 774 -294 q 818 -348 897 -348 l 897 -348 q 913 -348 941 -342 l 941 -342 q 892 -402 806 -402 l 806 -402 q 720 -402 664 -347 q 608 -292 608 -199 l 608 -199 q 608 -58 705 -42 l 705 -42 l 705 0 l 72 0 l 72 -56 l 342 -56 q 382 -56 414 -86 q 445 -116 445 -154 q 445 -192 417 -220 q 389 -248 349 -248 q 309 -248 280 -220 q 250 -192 250 -152 l 250 -152 q 250 -129 263 -109 l 263 -109 l 200 -108 q 193 -127 193 -152 l 193 -152 q 193 -216 240 -260 q 287 -305 351 -305 z m 993 -173 l 993 -173 q 993 -223 971 -271 l 971 -271 q 943 -291 896 -291 l 896 -291 q 848 -291 817 -254 q 787 -218 787 -169 q 787 -120 814 -85 q 841 -50 886 -50 l 886 -50 q 931 -50 962 -86 q 993 -123 993 -173 z"},"ജ":{"ha":688,"x_min":71,"x_max":691,"o":"m 640 -193 l 640 -193 q 691 -158 691 -106 l 691 -106 q 691 -55 658 -22 q 624 10 580 10 l 580 10 q 536 10 505 -10 q 474 -31 466 -63 l 466 -63 q 402 10 249 10 l 249 10 q 167 10 122 -6 q 77 -23 77 -86 l 77 -86 q 77 -196 282 -196 l 282 -196 l 462 -196 q 526 -196 576 -223 q 625 -250 625 -301 q 625 -351 599 -376 q 572 -402 528 -402 l 528 -402 q 433 -402 433 -313 l 433 -313 l 433 -216 l 367 -216 l 367 -308 q 367 -402 246 -402 l 246 -402 q 167 -402 150 -374 l 150 -374 q 167 -383 180 -383 l 180 -383 q 219 -383 241 -356 q 263 -330 263 -291 l 263 -291 q 263 -251 235 -223 q 208 -196 167 -196 l 167 -196 q 71 -196 71 -305 l 71 -305 q 71 -381 122 -421 q 173 -460 250 -460 l 250 -460 q 354 -460 398 -398 l 398 -398 q 434 -460 538 -460 l 538 -460 q 610 -460 650 -416 q 690 -372 690 -303 l 690 -303 q 690 -233 640 -193 z m 633 -103 l 633 -103 q 633 -155 575 -155 l 575 -155 q 518 -155 518 -103 l 518 -103 q 518 -79 535 -63 q 552 -47 576 -47 q 600 -47 617 -63 q 633 -79 633 -103 z m 213 -294 l 213 -294 q 213 -315 200 -329 q 188 -343 167 -343 l 167 -343 q 147 -343 134 -330 q 120 -316 120 -295 l 120 -295 q 120 -246 167 -246 l 167 -246 q 213 -246 213 -294 z m 462 -142 l 462 -142 l 328 -142 q 138 -142 138 -89 l 138 -89 q 138 -47 257 -47 l 257 -47 q 416 -47 462 -142 z"},"ഝ":{"ha":1264,"x_min":71,"x_max":1265,"o":"m 1265 -222 l 1265 -222 q 1265 -125 1217 -58 q 1169 9 1079 9 l 1079 9 q 1007 9 967 -53 l 967 -53 q 952 -25 919 -8 q 887 10 852 10 l 852 10 q 773 10 716 -36 q 659 -83 659 -156 l 659 -156 l 659 -250 q 659 -313 612 -358 q 565 -402 502 -402 l 502 -402 q 479 -402 450 -393 l 450 -393 q 496 -353 521 -293 q 546 -233 546 -185 l 546 -185 q 546 -113 502 -52 q 458 10 393 10 l 393 10 q 327 10 284 -47 q 240 -104 240 -185 l 240 -185 q 240 -311 341 -390 l 341 -390 q 308 -402 286 -402 l 286 -402 q 220 -402 177 -346 q 134 -290 134 -214 l 134 -214 q 134 -94 221 -30 l 221 -30 l 180 12 q 71 -64 71 -220 l 71 -220 q 71 -310 131 -385 q 191 -460 307 -460 l 307 -460 q 356 -460 396 -430 l 396 -430 q 437 -460 519 -460 l 519 -460 q 601 -460 661 -410 q 721 -359 721 -278 l 721 -278 l 721 -180 q 721 -125 757 -87 q 793 -49 851 -49 l 851 -49 q 889 -49 910 -83 q 931 -118 931 -164 l 931 -164 l 931 -449 l 997 -449 l 997 -164 q 997 -122 1018 -85 q 1039 -49 1074 -49 l 1074 -49 q 1204 -49 1204 -219 l 1204 -219 q 1204 -361 1099 -419 l 1099 -419 l 1142 -460 q 1265 -385 1265 -222 z m 474 -185 l 474 -185 q 474 -286 393 -361 l 393 -361 q 306 -298 306 -185 l 306 -185 q 306 -126 329 -86 q 353 -46 392 -46 q 432 -46 453 -89 q 474 -132 474 -185 z"},"ഞ":{"ha":1104,"x_min":70,"x_max":1105,"o":"m 591 -175 l 591 -175 q 591 -308 692 -390 l 692 -390 q 662 -402 638 -402 l 638 -402 q 589 -402 551 -377 q 513 -353 513 -302 l 513 -302 l 513 0 l 438 0 l 438 -302 q 438 -348 396 -375 q 353 -402 303 -402 l 303 -402 q 228 -402 181 -344 q 134 -286 130 -215 l 130 -215 q 151 -272 230 -272 l 230 -272 q 291 -272 328 -233 q 364 -194 364 -134 l 364 -134 q 364 -74 325 -32 q 286 10 224 10 l 224 10 q 146 10 108 -52 q 70 -115 70 -193 l 70 -193 q 70 -306 133 -383 q 196 -460 307 -460 q 418 -460 477 -396 l 477 -396 q 532 -460 649 -460 l 649 -460 q 698 -460 749 -430 l 749 -430 q 804 -460 875 -460 l 875 -460 q 982 -460 1044 -386 q 1105 -312 1105 -221 l 1105 -221 q 1105 -64 991 11 l 991 11 l 953 -27 q 1042 -88 1042 -215 l 1042 -215 q 1042 -290 990 -346 q 938 -402 865 -402 l 865 -402 q 836 -402 809 -393 l 809 -393 q 856 -355 883 -294 q 910 -234 910 -186 l 910 -186 q 910 -109 868 -50 q 827 10 751 10 l 751 10 q 675 10 633 -44 q 591 -99 591 -175 z m 842 -186 l 842 -186 q 842 -281 749 -362 l 749 -362 q 653 -294 653 -186 l 653 -186 q 653 -126 679 -86 q 705 -46 749 -46 q 792 -46 817 -90 q 842 -134 842 -186 z m 221 -47 q 256 -47 277 -73 q 298 -98 298 -133 q 298 -167 277 -193 q 257 -219 221 -219 q 185 -219 164 -194 q 143 -168 143 -134 q 143 -99 164 -73 q 186 -47 221 -47 l 221 -47 z"},"ട":{"ha":482,"x_min":71,"x_max":483,"o":"m 238 -259 l 324 -259 q 396 -259 439 -229 q 483 -198 483 -129 q 483 -60 426 -24 q 368 11 286 11 l 286 11 q 144 11 71 -66 l 71 -66 l 112 -110 q 167 -49 284 -49 l 284 -49 q 338 -49 378 -69 q 417 -90 417 -131 l 417 -131 q 417 -196 318 -196 l 318 -196 l 236 -196 q 162 -196 116 -229 q 71 -262 71 -319 l 71 -319 q 71 -389 127 -425 q 183 -460 270 -460 l 270 -460 q 412 -460 483 -384 l 483 -384 l 443 -340 q 386 -402 270 -402 l 270 -402 q 217 -402 177 -381 q 138 -360 138 -319 l 138 -319 q 138 -259 238 -259 l 238 -259 z"},"ഠ":{"ha":546,"x_min":71,"x_max":547,"o":"m 309 -460 q 408 -460 477 -392 q 547 -324 547 -227 l 547 -227 q 547 -129 477 -59 q 408 10 309 10 l 309 10 q 209 10 140 -59 q 71 -129 71 -227 l 71 -227 q 71 -324 140 -392 q 209 -460 309 -460 l 309 -460 z m 434 -102 l 434 -102 q 486 -154 486 -227 l 486 -227 q 486 -299 434 -350 q 382 -402 309 -402 l 309 -402 q 235 -402 183 -350 q 131 -299 131 -227 l 131 -227 q 131 -154 183 -102 q 235 -50 309 -50 l 309 -50 q 382 -50 434 -102 z"},"ഡ":{"ha":1059,"x_min":69,"x_max":1059,"o":"m 131 -223 l 131 -223 q 131 -88 248 -43 l 248 -43 l 213 0 q 143 -29 106 -87 q 69 -145 69 -218 l 69 -218 q 69 -319 115 -384 q 160 -449 256 -449 l 256 -449 q 352 -449 401 -391 q 449 -334 449 -244 l 449 -244 l 449 -174 q 449 -59 570 -59 l 570 -59 q 669 -59 669 -165 l 669 -165 l 669 -440 l 740 -440 l 740 -165 q 740 -114 774 -86 q 808 -59 859 -59 l 859 -59 q 925 -59 960 -108 q 995 -157 995 -221 l 995 -221 q 995 -355 889 -405 l 889 -405 l 926 -452 q 1059 -385 1059 -223 l 1059 -223 q 1059 -132 1004 -66 q 950 0 850 0 l 850 0 q 751 0 705 -60 l 705 -60 q 661 0 571 0 l 571 0 q 481 0 427 -49 q 374 -98 374 -180 l 374 -180 l 374 -261 q 374 -315 345 -353 q 315 -390 254 -390 l 254 -390 q 192 -390 162 -340 q 131 -290 131 -223 z"},"ഢ":{"ha":1092,"x_min":71,"x_max":1097,"o":"m 1097 -260 l 1097 -260 q 1097 -151 1032 -70 q 968 11 854 11 l 854 11 q 739 11 681 -57 l 681 -57 q 630 10 543 10 l 543 10 q 457 10 412 -41 q 366 -92 366 -178 l 366 -178 q 366 -291 358 -322 l 358 -322 q 339 -402 265 -402 q 191 -402 160 -346 q 128 -290 128 -218 l 128 -218 q 128 -93 232 -38 l 232 -38 l 204 10 q 71 -61 71 -219 l 71 -219 q 71 -322 117 -391 q 164 -460 265 -460 l 265 -460 q 381 -460 412 -366 l 412 -366 q 427 -318 427 -176 l 427 -176 q 427 -123 457 -87 q 487 -51 537 -51 l 537 -51 q 586 -51 617 -88 q 648 -125 648 -171 l 648 -171 l 648 -449 l 714 -449 l 714 -157 q 714 -104 761 -77 q 808 -49 864 -49 l 864 -49 q 940 -49 982 -103 q 1025 -158 1031 -237 l 1031 -237 q 1019 -209 989 -193 q 958 -176 926 -176 l 926 -176 q 868 -176 831 -217 q 794 -259 794 -319 l 794 -319 q 794 -380 835 -420 q 876 -460 938 -460 l 938 -460 q 1017 -460 1057 -401 q 1097 -342 1097 -260 z m 936 -233 q 970 -233 994 -259 q 1018 -284 1018 -319 q 1018 -354 994 -378 q 971 -402 937 -402 l 937 -402 q 902 -402 881 -378 q 859 -354 859 -320 q 859 -286 880 -260 q 902 -233 936 -233 z"},"ണ":{"ha":1090,"x_min":70,"x_max":1092,"o":"m 1092 -230 l 1092 -230 q 1092 -61 959 11 l 959 11 l 927 -40 q 1029 -93 1029 -232 l 1029 -232 q 1029 -304 990 -353 q 952 -402 884 -402 l 884 -402 q 792 -402 792 -290 l 792 -290 l 792 0 l 726 0 l 726 -290 q 726 -344 695 -373 q 663 -402 614 -402 l 614 -402 q 565 -402 535 -374 q 504 -345 504 -290 l 504 -290 l 504 0 l 433 0 l 433 -290 q 433 -402 297 -402 l 297 -402 q 226 -402 180 -344 q 133 -287 128 -214 l 128 -214 q 150 -272 226 -272 l 226 -272 q 283 -272 319 -232 q 355 -193 355 -133 l 355 -133 q 355 -74 317 -31 q 279 11 219 11 l 219 11 q 70 11 70 -193 l 70 -193 q 70 -307 136 -384 q 202 -460 308 -460 q 414 -460 467 -398 l 467 -398 q 514 -460 611 -460 q 708 -460 758 -399 l 758 -399 q 803 -460 894 -460 q 985 -460 1039 -395 q 1092 -329 1092 -230 z m 217 -47 q 251 -47 271 -73 q 292 -98 292 -132 l 292 -132 q 292 -167 271 -192 q 251 -218 217 -218 l 217 -218 q 183 -218 162 -194 q 141 -169 141 -134 q 141 -99 162 -73 q 183 -47 217 -47 l 217 -47 z"},"ത":{"ha":786,"x_min":70,"x_max":785,"o":"m 785 -221 l 785 -221 q 785 -65 670 11 l 670 11 l 631 -28 q 721 -90 721 -215 l 721 -215 q 721 -290 669 -346 q 617 -402 542 -402 l 542 -402 q 526 -402 495 -394 l 495 -394 q 542 -356 565 -293 q 589 -230 589 -178 l 589 -178 q 589 -105 544 -47 q 498 10 425 10 l 425 10 q 352 10 310 -44 q 268 -98 268 -178 l 268 -178 q 268 -312 368 -392 l 368 -392 q 337 -402 306 -402 l 306 -402 q 234 -402 183 -348 q 132 -294 132 -215 l 132 -215 q 132 -89 225 -27 l 225 -27 l 185 11 q 70 -64 70 -221 l 70 -221 q 70 -313 137 -387 q 204 -460 329 -460 l 329 -460 q 393 -460 434 -426 l 434 -426 q 479 -460 554 -460 l 554 -460 q 662 -460 723 -386 q 785 -312 785 -221 z m 428 -46 l 428 -46 q 472 -46 496 -86 q 520 -126 520 -180 l 520 -180 q 520 -233 494 -283 q 468 -333 428 -361 l 428 -361 q 384 -331 358 -280 q 333 -229 333 -178 l 333 -178 q 333 -46 428 -46 z"},"ഥ":{"ha":677,"x_min":70,"x_max":677,"o":"m 677 -271 l 677 0 l 70 0 l 70 -449 l 136 -449 l 136 -55 l 277 -55 l 277 -265 q 277 -346 336 -403 q 394 -460 478 -460 l 478 -460 q 561 -460 619 -406 q 677 -351 677 -271 l 677 -271 z m 345 -55 l 611 -55 l 611 -267 q 611 -322 572 -362 q 532 -402 477 -402 l 477 -402 q 421 -402 383 -361 q 345 -321 345 -266 l 345 -266 l 345 -55 z"},"ദ":{"ha":506,"x_min":70,"x_max":507,"o":"m 507 -122 l 507 -122 q 507 -62 464 -26 q 420 10 357 10 l 357 10 q 294 10 267 -1 l 267 -1 l 267 -61 q 287 -48 354 -48 l 354 -48 q 391 -48 417 -68 q 442 -88 442 -125 l 442 -125 q 442 -198 350 -198 l 350 -198 l 275 -198 l 275 -258 l 349 -258 q 442 -258 442 -324 l 442 -324 q 442 -362 404 -382 q 365 -402 323 -402 l 323 -402 q 232 -402 181 -343 q 130 -284 130 -197 l 130 -197 q 130 -109 177 -7 l 177 -7 l 119 10 q 70 -95 70 -206 q 70 -316 136 -388 q 202 -460 322 -460 l 322 -460 q 394 -460 450 -426 q 507 -392 507 -326 l 507 -326 q 507 -295 488 -265 q 470 -236 443 -228 l 443 -228 q 507 -201 507 -122 z"},"ധ":{"ha":763,"x_min":71,"x_max":763,"o":"m 413 -52 l 413 -52 q 377 11 281 11 q 185 11 128 -56 q 71 -124 71 -210 l 71 -210 q 71 -296 106 -362 q 142 -427 212 -460 l 212 -460 l 244 -412 q 136 -358 136 -215 l 136 -215 q 136 -144 177 -96 q 217 -47 287 -47 l 287 -47 q 329 -47 354 -79 q 378 -110 378 -153 l 378 -153 l 378 -449 l 446 -449 l 446 -153 q 446 -110 476 -79 q 505 -47 550 -47 l 550 -47 q 617 -47 656 -98 q 696 -149 696 -219 l 696 -219 q 696 -362 583 -414 l 583 -414 l 620 -460 q 690 -427 727 -363 q 763 -298 763 -223 l 763 -223 q 763 -127 705 -58 q 646 11 550 11 q 455 11 413 -52 z"},"ന":{"ha":763,"x_min":71,"x_max":763,"o":"m 421 -397 l 421 -397 q 457 -460 553 -460 q 649 -460 706 -393 q 763 -326 763 -239 l 763 -239 q 763 -153 728 -88 q 692 -22 622 11 l 622 11 l 590 -38 q 698 -91 698 -234 l 698 -234 q 698 -305 657 -354 q 617 -402 547 -402 l 547 -402 q 505 -402 480 -371 q 456 -339 456 -296 l 456 -296 l 456 0 l 388 0 l 388 -296 q 388 -339 358 -371 q 329 -402 284 -402 l 284 -402 q 217 -402 177 -351 q 138 -300 138 -230 l 138 -230 q 138 -87 250 -35 l 250 -35 l 214 11 q 144 -22 107 -87 q 71 -151 71 -226 l 71 -226 q 71 -322 129 -391 q 188 -460 284 -460 q 379 -460 421 -397 z"},"ഩ":{"ha":814,"x_min":62,"x_max":812,"o":"m 812 -187 l 812 -187 q 812 -114 770 -56 q 728 3 656 3 l 656 3 l 631 -54 q 686 -54 716 -92 l 716 -92 q 744 -135 744 -188 l 744 -188 q 744 -403 587 -403 l 587 -403 q 537 -403 511 -367 q 485 -332 485 -290 l 485 -290 l 485 -1 l 419 -1 l 419 -290 q 419 -334 386 -368 q 354 -403 309 -403 l 309 -403 q 231 -403 180 -348 q 129 -293 124 -215 l 124 -215 q 135 -245 167 -261 q 200 -277 237 -277 l 237 -277 q 298 -277 341 -237 q 384 -197 384 -133 l 384 -133 q 384 -70 340 -31 q 296 7 221 7 q 146 7 104 -51 q 62 -108 62 -196 l 62 -196 q 62 -320 134 -391 q 207 -461 308 -461 q 409 -461 451 -397 l 451 -397 q 495 -461 588 -461 l 588 -461 q 812 -461 812 -187 z m 226 -51 q 261 -51 284 -75 q 308 -98 308 -133 q 308 -168 284 -194 q 261 -220 226 -220 q 191 -220 166 -195 q 141 -170 141 -135 l 141 -135 q 141 -100 166 -75 q 191 -51 226 -51 z"},"പ":{"ha":703,"x_min":71,"x_max":703,"o":"m 703 -449 l 703 0 l 304 0 l 302 -39 q 363 -69 363 -138 l 363 -138 q 363 -185 328 -216 q 294 -247 247 -247 l 247 -247 q 200 -247 166 -216 q 131 -186 131 -142 l 131 -142 q 131 -74 190 -47 l 190 -47 l 162 3 q 71 -42 71 -142 l 71 -142 q 71 -212 124 -260 q 176 -308 249 -308 l 249 -308 q 322 -308 375 -261 q 427 -214 427 -155 l 427 -155 q 427 -96 402 -54 l 402 -54 l 639 -54 l 639 -449 l 703 -449 z"},"ഫ":{"ha":939,"x_min":71,"x_max":941,"o":"m 941 -268 l 941 0 l 304 0 l 304 -36 q 366 -68 366 -141 l 366 -141 q 366 -187 332 -219 q 297 -252 248 -252 l 248 -252 q 199 -252 164 -221 q 128 -190 128 -141 l 128 -141 q 128 -73 190 -43 l 190 -43 l 163 2 q 71 -43 71 -143 l 71 -143 q 71 -213 124 -261 q 177 -309 251 -309 l 251 -309 q 325 -309 375 -262 q 425 -215 425 -148 l 425 -148 q 425 -82 401 -55 l 401 -55 l 551 -55 l 551 -262 q 551 -347 605 -404 q 659 -460 744 -460 l 744 -460 q 829 -460 885 -404 q 941 -348 941 -268 l 941 -268 z m 617 -55 l 879 -55 l 879 -264 q 879 -322 841 -362 q 803 -402 748 -402 l 748 -402 q 693 -402 655 -361 q 617 -319 617 -264 l 617 -264 l 617 -55 z"},"ബ":{"ha":988,"x_min":70,"x_max":990,"o":"m 990 -449 l 990 0 l 640 0 l 640 -40 q 687 -73 713 -128 q 740 -182 740 -242 l 740 -242 q 740 -302 705 -352 q 669 -402 606 -402 l 606 -402 q 562 -402 537 -372 q 512 -342 512 -296 l 512 -296 l 512 0 l 443 0 l 443 -302 q 443 -351 400 -376 q 357 -402 302 -402 l 302 -402 q 227 -402 183 -348 q 138 -294 127 -215 l 127 -215 q 148 -272 226 -272 l 226 -272 q 286 -272 320 -232 q 354 -192 354 -132 l 354 -132 q 354 -71 315 -31 q 276 10 214 10 l 214 10 q 70 10 70 -185 l 70 -185 q 70 -302 135 -381 q 199 -460 311 -460 l 311 -460 q 422 -460 475 -401 l 475 -401 q 532 -460 599 -460 l 599 -460 q 706 -460 755 -393 q 805 -325 805 -225 q 805 -126 747 -55 l 747 -55 l 924 -55 l 924 -449 l 990 -449 z m 215 -49 q 250 -49 270 -73 q 290 -96 290 -131 l 290 -131 q 290 -166 270 -191 q 251 -216 216 -216 q 181 -216 161 -192 q 141 -167 141 -132 l 141 -132 q 141 -97 160 -73 q 180 -49 215 -49 z"},"ഭ":{"ha":528,"x_min":70,"x_max":528,"o":"m 322 -309 l 322 -309 l 420 -308 q 458 -311 458 -336 l 458 -336 q 458 -375 415 -388 q 372 -402 326 -402 l 326 -402 q 233 -402 182 -344 q 131 -286 131 -190 l 131 -190 q 131 -119 171 -4 l 171 -4 l 112 16 q 70 -92 70 -209 l 70 -209 q 70 -326 140 -393 q 209 -460 332 -460 l 332 -460 q 527 -460 527 -337 l 527 -337 q 527 -299 496 -271 q 465 -243 427 -243 l 427 -243 l 337 -247 q 297 -247 297 -214 q 297 -181 338 -181 l 338 -181 q 426 -184 428 -184 l 428 -184 q 474 -184 501 -158 q 528 -133 528 -90 l 528 -90 q 528 -20 484 -4 q 440 11 359 11 l 359 11 q 278 11 229 -6 l 229 -6 l 224 -73 q 274 -47 370 -47 l 370 -47 q 416 -47 437 -52 q 458 -57 458 -84 l 458 -84 q 458 -122 396 -122 l 396 -122 l 321 -122 q 281 -122 254 -148 q 227 -173 227 -216 q 227 -258 254 -283 q 282 -309 322 -309 z"},"മ":{"ha":516,"x_min":70,"x_max":516,"o":"m 516 -212 l 516 0 l 70 0 l 70 -208 q 70 -460 295 -460 l 295 -460 q 516 -460 516 -212 l 516 -212 z m 234 -55 l 454 -55 l 454 -212 q 454 -383 324 -402 l 324 -402 q 375 -378 375 -295 l 375 -295 q 375 -246 339 -176 q 304 -107 234 -55 l 234 -55 z m 305 -300 l 305 -300 q 305 -401 246 -401 l 246 -401 q 208 -401 169 -351 q 131 -300 131 -212 l 131 -212 l 131 -60 q 305 -171 305 -300 z"},"യ":{"ha":841,"x_min":72,"x_max":841,"o":"m 841 -250 l 841 -250 q 841 -141 770 -65 q 698 11 568 11 l 568 11 q 500 11 472 -17 l 472 -17 q 439 9 365 9 l 365 9 q 233 9 153 -67 q 72 -143 72 -262 l 72 -262 q 72 -349 113 -405 q 154 -460 220 -460 l 220 -460 q 302 -460 339 -396 l 339 -396 q 385 -460 488 -460 l 488 -460 q 560 -460 608 -404 q 657 -347 657 -267 l 657 -267 q 657 -127 545 -49 l 545 -49 q 565 -45 586 -45 l 586 -45 q 664 -45 720 -104 q 776 -162 776 -259 l 776 -259 q 776 -355 705 -419 l 705 -419 l 755 -460 q 841 -379 841 -250 z m 475 -74 q 523 -96 557 -146 q 590 -195 590 -256 l 590 -256 q 590 -316 562 -359 q 533 -401 476 -401 l 476 -401 q 419 -401 392 -359 q 365 -316 365 -256 l 365 -256 q 365 -131 475 -74 l 475 -74 z m 405 -50 l 405 -50 q 301 -132 301 -267 l 301 -267 q 301 -402 220 -402 l 220 -402 q 184 -402 160 -358 q 137 -314 137 -262 l 137 -262 q 137 -169 200 -107 q 263 -45 363 -45 l 363 -45 q 386 -45 405 -50 z"},"ര":{"ha":588,"x_min":71,"x_max":589,"o":"m 337 -460 l 337 -460 q 456 -460 522 -386 q 589 -312 589 -214 l 589 -214 q 589 -116 536 -53 q 483 10 409 10 q 336 10 295 -38 q 254 -85 254 -169 q 254 -252 306 -299 q 357 -346 433 -346 l 433 -346 q 454 -346 477 -340 l 477 -340 q 429 -401 341 -401 l 341 -401 q 253 -401 193 -345 q 132 -290 132 -191 l 132 -191 q 132 -93 213 -31 l 213 -31 l 171 9 q 71 -69 71 -194 q 71 -318 145 -389 q 218 -460 337 -460 z m 505 -271 l 505 -271 q 489 -282 438 -282 q 386 -282 352 -249 q 318 -215 318 -169 q 318 -123 341 -87 q 363 -52 411 -52 l 411 -52 q 459 -52 489 -87 q 519 -123 519 -180 q 519 -237 505 -271 z"},"റ":{"ha":544,"x_min":71,"x_max":544,"o":"m 544 -214 l 544 -214 q 544 -139 504 -79 q 463 -20 390 10 l 390 10 l 364 -37 q 482 -82 482 -214 l 482 -214 q 482 -292 431 -347 q 380 -402 305 -402 l 305 -402 q 229 -402 179 -347 q 129 -292 129 -214 l 129 -214 q 129 -81 250 -37 l 250 -37 l 222 10 q 149 -19 110 -79 q 71 -139 71 -214 l 71 -214 q 71 -319 139 -390 q 207 -460 310 -460 l 310 -460 q 412 -460 478 -390 q 544 -320 544 -214 z"},"ല":{"ha":702,"x_min":71,"x_max":703,"o":"m 703 -449 l 703 0 l 71 0 l 71 -274 q 71 -353 133 -407 q 194 -460 283 -460 l 283 -460 q 372 -460 429 -408 q 486 -356 486 -274 l 486 -274 l 486 -146 l 138 -146 l 138 -56 l 638 -56 l 638 -449 l 703 -449 z m 140 -202 l 419 -202 l 419 -255 q 419 -318 382 -360 q 346 -402 282 -402 l 282 -402 q 219 -402 179 -362 q 140 -323 140 -255 l 140 -255 l 140 -202 z"},"ള":{"ha":584,"x_min":69,"x_max":587,"o":"m 587 -124 l 587 -124 q 587 -76 549 -38 q 510 0 442 0 l 442 0 l 225 0 q 195 0 171 15 q 147 31 147 58 l 147 58 q 147 85 171 101 q 195 116 225 116 l 225 116 l 574 116 l 574 172 l 214 172 q 159 172 122 143 q 84 113 84 60 l 84 60 q 84 -55 217 -55 l 217 -55 l 428 -55 q 519 -55 519 -124 q 519 -193 445 -193 l 445 -193 l 411 -193 l 411 -254 l 445 -254 q 517 -254 517 -313 l 517 -313 q 517 -361 452 -381 q 387 -402 320 -402 l 320 -402 q 253 -402 197 -368 q 140 -334 126 -270 l 126 -270 q 163 -315 214 -315 l 214 -315 q 266 -315 302 -281 q 338 -247 338 -195 l 338 -195 q 338 -143 301 -111 q 264 -80 202 -80 l 202 -80 q 141 -80 105 -126 q 69 -171 69 -241 l 69 -241 q 69 -350 146 -405 q 222 -460 326 -460 l 326 -460 q 430 -460 507 -426 q 584 -392 584 -313 l 584 -313 q 584 -248 527 -222 l 527 -222 q 587 -198 587 -124 z m 207 -135 q 234 -135 251 -152 q 268 -169 268 -195 l 268 -195 q 268 -222 250 -239 q 233 -256 206 -256 l 206 -256 q 179 -256 161 -240 q 142 -224 142 -197 l 142 -197 q 142 -170 161 -153 q 180 -135 207 -135 l 207 -135 z"},"ഴ":{"ha":525,"x_min":71,"x_max":526,"o":"m 231 -313 q 231 -373 274 -417 q 317 -460 386 -460 l 386 -460 q 454 -460 490 -417 q 526 -374 526 -315 l 526 -315 q 526 -257 482 -210 q 438 -163 357 -148 l 357 -148 q 370 -114 370 -87 l 370 -87 q 370 -43 333 -16 q 297 11 246 11 l 246 11 q 155 11 115 -56 l 115 -56 l 150 -102 q 189 -45 240 -45 l 240 -45 q 267 -45 288 -59 q 309 -72 309 -91 l 309 -91 q 309 -110 297 -136 l 297 -136 q 280 -134 264 -134 l 264 -134 q 181 -134 126 -186 q 71 -238 71 -319 q 71 -400 145 -460 l 145 -460 l 186 -426 q 128 -393 128 -321 q 128 -249 173 -220 q 217 -192 260 -192 l 260 -192 q 266 -192 272 -193 l 272 -193 q 231 -253 231 -313 l 231 -313 z m 464 -318 l 464 -318 q 464 -354 443 -378 q 423 -402 385 -402 l 385 -402 q 347 -402 323 -375 q 298 -349 298 -313 l 298 -313 q 298 -250 334 -203 l 334 -203 q 464 -229 464 -318 z"},"വ":{"ha":722,"x_min":69,"x_max":723,"o":"m 723 -449 l 723 0 l 372 0 l 372 -48 q 478 -106 478 -222 l 478 -222 q 478 -299 428 -350 q 377 -402 301 -402 l 301 -402 q 225 -402 176 -349 q 127 -296 127 -218 l 127 -218 q 127 -86 247 -42 l 247 -42 l 218 8 q 69 -54 69 -220 l 69 -220 q 69 -323 138 -392 q 207 -460 308 -460 l 308 -460 q 410 -460 474 -393 q 539 -326 539 -216 l 539 -216 q 539 -106 473 -55 l 473 -55 l 657 -55 l 657 -449 l 723 -449 z"},"ശ":{"ha":830,"x_min":71,"x_max":831,"o":"m 831 -187 l 831 -187 q 831 -107 782 -48 q 733 10 655 10 l 655 10 q 578 10 537 -42 q 497 -95 497 -169 l 497 -169 q 497 -243 547 -295 q 598 -346 668 -346 l 668 -346 q 696 -346 720 -340 l 720 -340 q 668 -402 577 -402 l 577 -402 q 523 -402 482 -358 q 441 -315 441 -256 l 441 -256 l 441 -161 q 441 -86 396 -38 q 351 10 263 10 q 175 10 123 -58 q 71 -126 71 -221 l 71 -221 q 71 -388 205 -460 l 205 -460 l 239 -411 q 137 -353 137 -230 l 137 -230 q 137 -166 173 -108 q 208 -51 270 -51 q 332 -51 352 -90 q 371 -129 371 -192 l 371 -192 l 371 -271 q 371 -351 431 -406 q 491 -460 569 -460 l 569 -460 q 694 -460 762 -384 q 831 -308 831 -187 z m 655 -51 l 655 -51 q 703 -51 733 -88 q 764 -125 764 -200 l 764 -200 q 764 -243 750 -271 l 750 -271 q 732 -282 680 -282 l 680 -282 q 627 -282 595 -250 q 563 -219 563 -174 l 563 -174 q 563 -51 655 -51 z"},"ഷ":{"ha":903,"x_min":71,"x_max":903,"o":"m 903 -449 l 903 0 l 303 0 l 303 -36 q 366 -68 366 -141 l 366 -141 q 366 -187 332 -219 q 297 -252 248 -252 l 248 -252 q 199 -252 164 -221 q 128 -190 128 -143 l 128 -143 q 128 -74 188 -45 l 188 -45 l 158 2 q 71 -44 71 -143 l 71 -143 q 71 -213 124 -261 q 176 -309 248 -309 q 320 -309 374 -260 q 427 -212 427 -149 l 427 -149 q 427 -86 400 -55 l 400 -55 l 608 -55 l 608 -162 q 532 -173 478 -214 q 423 -255 423 -319 q 423 -382 461 -421 q 498 -460 551 -460 l 551 -460 q 678 -460 678 -325 l 678 -325 l 678 -222 q 833 -232 866 -449 l 866 -449 l 903 -449 z m 678 -55 l 842 -55 l 842 -246 q 827 -218 774 -190 q 722 -162 678 -162 l 678 -162 l 678 -55 z m 608 -223 l 608 -338 q 608 -366 588 -384 q 567 -402 543 -402 l 543 -402 q 520 -402 501 -380 q 483 -358 483 -323 q 483 -288 519 -258 q 554 -228 608 -223 l 608 -223 z"},"സ":{"ha":1059,"x_min":70,"x_max":1060,"o":"m 998 -237 l 998 -237 q 998 -372 881 -417 l 881 -417 l 916 -460 q 986 -431 1023 -374 q 1060 -316 1060 -243 l 1060 -243 q 1060 -142 1014 -77 q 969 -12 873 -12 l 873 -12 q 776 -12 728 -70 q 680 -127 680 -216 l 680 -216 l 680 -287 q 680 -402 559 -402 l 559 -402 q 459 -402 459 -295 l 459 -295 l 459 -21 l 388 -21 l 388 -295 q 388 -347 354 -374 q 321 -402 270 -402 l 270 -402 q 204 -402 168 -353 q 133 -304 133 -239 l 133 -239 q 133 -105 239 -56 l 239 -56 l 203 -9 q 70 -76 70 -238 l 70 -238 q 70 -329 124 -395 q 179 -460 278 -460 l 278 -460 q 378 -460 424 -401 l 424 -401 q 467 -460 558 -460 l 558 -460 q 648 -460 701 -412 q 755 -363 755 -281 l 755 -281 l 755 -200 q 755 -146 784 -108 q 813 -71 875 -71 l 875 -71 q 937 -71 967 -121 q 998 -170 998 -237 z"},"ഹ":{"ha":944,"x_min":71,"x_max":944,"o":"m 944 -222 l 944 -222 q 944 -56 795 6 l 795 6 l 768 -45 q 876 -96 876 -222 l 876 -222 q 876 -296 832 -349 q 789 -402 718 -402 l 718 -402 q 648 -402 601 -353 q 554 -305 554 -229 l 554 -229 q 554 -175 578 -117 q 602 -59 648 -41 l 648 -41 l 648 0 l 302 0 l 302 -36 q 361 -62 361 -139 l 361 -139 q 361 -186 328 -218 q 294 -250 247 -250 l 247 -250 q 199 -250 165 -219 q 130 -189 130 -143 l 130 -143 q 130 -73 188 -42 l 188 -42 l 161 7 q 71 -39 71 -143 l 71 -143 q 71 -212 124 -262 q 177 -312 251 -312 l 251 -312 q 325 -312 374 -263 q 422 -215 422 -148 l 422 -148 q 422 -82 398 -55 l 398 -55 l 542 -55 q 487 -122 487 -227 l 487 -227 q 487 -331 554 -396 q 622 -460 718 -460 l 718 -460 q 814 -460 879 -391 q 944 -321 944 -222 z"},"ഺ":{"ha":677,"x_min":83,"x_max":677,"o":"m 190 -52 l 677 -52 l 677 0 l 389 0 l 389 160 l 320 160 l 320 0 l 83 0 l 341 -451 l 417 -451 l 190 -52 z"},"ഽ":{"ha":583,"x_min":61,"x_max":610,"o":"m 610 -534 l 610 -534 l 552 -509 q 545 -563 491 -563 l 491 -563 q 433 -563 422 -495 l 422 -495 l 377 -228 l 456 -232 l 456 -169 l 367 -164 l 313 188 q 295 310 184 310 l 184 310 q 87 310 61 217 l 61 217 l 120 192 q 125 247 179 247 l 179 247 q 238 247 250 179 l 250 179 l 302 -161 l 239 -157 l 239 -220 l 313 -224 l 358 -504 q 377 -626 487 -626 l 487 -626 q 584 -626 610 -534 z"},"ാ":{"ha":414,"x_min":71,"x_max":415,"o":"m 136 -288 l 71 -288 q 72 -361 116 -411 q 159 -460 243 -460 q 328 -460 371 -395 q 415 -330 415 -228 l 415 -228 q 415 -126 371 -58 q 327 10 234 10 l 234 10 q 159 10 115 -34 q 72 -79 72 -169 l 72 -169 l 137 -169 q 137 -123 164 -86 q 191 -50 234 -50 l 234 -50 q 347 -50 347 -226 q 347 -402 240 -402 l 240 -402 q 195 -402 166 -369 q 136 -336 136 -288 l 136 -288 z"},"ി":{"ha":158,"x_min":-98,"x_max":159,"o":"m 159 -548 l 159 0 l 95 0 l 95 -540 q 95 -611 28 -611 l 28 -611 q 0 -611 -18 -589 q -36 -567 -36 -537 q -36 -507 -27 -491 l -27 -491 l -93 -491 q -98 -519 -98 -541 l -98 -541 q -98 -598 -64 -634 q -29 -671 28 -671 l 28 -671 q 86 -671 122 -638 q 159 -605 159 -548 l 159 -548 z"},"ീ":{"ha":158,"x_min":-125,"x_max":161,"o":"m 161 -530 l 161 0 l 97 0 l 97 -525 q 97 -561 79 -585 q 61 -610 26 -610 l 26 -610 l 21 -610 q 50 -583 50 -550 l 50 -550 q 50 -517 25 -491 q 0 -466 -36 -466 l -36 -466 q -72 -466 -99 -493 q -125 -520 -125 -557 l -125 -557 q -125 -611 -83 -640 q -41 -669 16 -669 l 16 -669 q 161 -669 161 -530 l 161 -530 z m -66 -556 l -66 -556 q -66 -520 -35 -520 q -4 -520 -4 -556 l -4 -556 q -4 -593 -35 -593 q -66 -593 -66 -556 z"},"ു":{"ha":312,"x_min":60,"x_max":307,"o":"m 217 1 l 217 1 q 260 10 283 44 q 307 78 307 127 l 307 127 q 307 177 272 211 q 238 246 185 246 l 185 246 q 131 246 95 213 q 60 180 60 125 l 60 125 q 60 70 91 35 q 122 0 159 0 l 159 0 q 194 -112 194 -216 l 194 -216 q 194 -402 74 -403 l 74 -403 l 83 -460 q 166 -449 208 -394 q 251 -339 251 -244 l 251 -244 q 251 -94 217 1 z m 250 121 l 250 121 q 250 92 231 70 q 212 47 181 47 q 150 47 130 70 q 110 92 110 121 l 110 121 q 110 194 180 194 q 250 194 250 121 z"},"ൂ":{"ha":312,"x_min":60,"x_max":307,"o":"m 217 1 l 217 1 q 259 10 283 44 q 307 78 307 127 l 307 127 q 307 177 271 211 q 236 246 184 246 l 184 246 q 131 246 95 213 q 60 180 60 125 l 60 125 q 60 70 92 35 q 124 0 159 0 l 159 0 q 190 -92 190 -226 l 190 -226 q 190 -399 72 -402 l 72 -402 l 79 -460 q 165 -453 207 -398 q 250 -343 250 -247 l 250 -247 q 250 -93 217 1 z m 245 91 l 245 91 q 224 46 178 46 l 178 46 q 131 46 115 94 l 115 94 q 135 115 178 115 q 222 115 245 91 z m 251 117 l 251 117 q 217 143 181 143 q 146 143 109 125 l 109 125 q 109 151 128 172 q 147 194 181 194 l 181 194 q 214 194 233 172 q 251 150 251 117 z"},"ൃ":{"ha":379,"x_min":40,"x_max":375,"o":"m 375 88 l 375 88 q 375 173 315 214 q 255 254 185 254 l 185 254 q 115 254 77 216 q 40 177 40 122 l 40 122 q 40 66 73 33 q 107 -1 159 -1 l 159 -1 q 211 -1 242 36 q 274 72 274 125 l 274 125 q 274 177 235 202 l 235 202 q 322 177 322 89 l 322 89 q 322 35 227 -64 q 133 -164 133 -370 l 133 -370 q 133 -437 137 -449 l 137 -449 l 199 -449 q 198 -391 198 -367 l 198 -367 q 198 -260 216 -202 q 234 -145 287 -83 q 339 -21 357 12 q 375 46 375 88 z m 217 123 l 217 123 q 217 90 200 68 q 184 46 155 46 l 155 46 q 94 46 94 123 l 94 123 q 94 154 112 177 q 131 199 156 199 l 156 199 q 217 199 217 123 z"},"ൄ":{"ha":710,"x_min":41,"x_max":493,"o":"m 493 95 l 493 95 q 493 208 271 208 l 271 208 q 160 208 100 182 q 41 155 41 118 l 41 118 q 41 80 94 57 q 148 35 230 35 l 230 35 q 312 35 362 60 q 412 84 412 120 l 412 120 q 412 155 350 172 l 350 172 q 422 155 422 96 l 422 96 q 422 59 286 -51 q 150 -161 150 -367 l 150 -367 q 150 -434 154 -447 l 154 -447 l 216 -447 q 215 -388 215 -364 l 215 -364 q 215 -257 233 -200 q 251 -143 348 -61 q 445 21 469 43 q 493 66 493 95 z m 322 119 l 322 119 q 322 97 296 82 q 269 66 223 66 l 223 66 q 126 66 126 119 l 126 119 q 126 140 156 155 q 186 170 225 170 l 225 170 q 322 170 322 119 z m 241 88 q 254 88 265 96 q 275 104 275 115 l 275 115 q 275 127 267 136 q 259 146 248 146 l 248 146 l 240 127 q 246 127 251 124 q 256 120 256 116 l 256 116 q 256 106 242 106 q 229 106 229 111 l 229 111 l 229 145 l 209 145 l 209 111 l 199 106 q 182 106 182 116 l 182 116 q 182 120 186 124 q 191 128 197 130 l 197 130 l 189 146 q 162 138 162 121 q 162 104 173 96 q 183 88 197 88 l 197 88 q 211 88 219 94 l 219 94 q 228 88 241 88 l 241 88 z"},"െ":{"ha":578,"x_min":71,"x_max":587,"o":"m 587 -209 l 587 -209 q 587 -61 449 9 l 449 9 l 414 -40 q 519 -92 519 -209 l 519 -209 q 519 -292 467 -347 q 415 -402 331 -402 l 331 -402 q 247 -402 193 -348 q 138 -295 133 -215 l 133 -215 q 142 -244 177 -260 q 211 -277 246 -277 l 246 -277 q 308 -277 350 -235 q 393 -192 393 -130 l 393 -130 q 393 -68 349 -29 q 306 10 238 10 l 238 10 q 151 10 111 -48 q 71 -106 71 -193 l 71 -193 q 71 -307 141 -384 q 212 -460 329 -460 l 329 -460 q 446 -460 517 -389 q 587 -318 587 -209 z m 235 -48 q 271 -48 294 -73 q 317 -97 317 -131 l 317 -131 q 317 -165 294 -192 q 271 -220 235 -220 q 199 -220 175 -193 q 150 -166 150 -132 l 150 -132 q 150 -98 175 -73 q 199 -48 235 -48 z"},"േ":{"ha":425,"x_min":69,"x_max":440,"o":"m 440 -109 l 440 -109 q 440 -50 395 -20 q 350 11 291 11 l 291 11 q 184 11 126 -55 q 69 -120 69 -224 l 69 -224 q 69 -327 126 -394 q 184 -460 289 -460 l 289 -460 q 351 -460 395 -429 q 440 -397 440 -338 l 440 -338 q 440 -296 412 -271 q 384 -246 345 -246 l 345 -246 q 287 -246 265 -277 q 244 -308 244 -339 q 244 -370 269 -401 l 269 -401 q 205 -400 172 -345 q 139 -291 139 -222 l 139 -222 q 139 -153 173 -101 q 208 -49 271 -49 l 271 -49 q 243 -79 243 -116 l 243 -116 q 243 -152 272 -177 q 301 -202 343 -202 q 384 -202 412 -176 q 440 -151 440 -109 z m 343 -305 q 378 -305 378 -340 q 378 -375 343 -375 q 307 -375 307 -340 l 307 -340 q 307 -305 343 -305 z m 343 -72 l 343 -72 q 378 -72 378 -109 q 378 -146 343 -146 l 343 -146 q 308 -146 308 -109 q 308 -72 343 -72 z"},"ൈ":{"ha":1165,"x_min":71,"x_max":1170,"o":"m 587 -209 l 587 -209 q 587 -61 449 9 l 449 9 l 414 -40 q 519 -92 519 -209 l 519 -209 q 519 -292 467 -347 q 415 -402 331 -402 l 331 -402 q 247 -402 193 -348 q 138 -295 133 -215 l 133 -215 q 142 -244 177 -260 q 211 -277 246 -277 l 246 -277 q 308 -277 350 -235 q 393 -192 393 -130 l 393 -130 q 393 -68 349 -29 q 306 10 238 10 l 238 10 q 151 10 111 -48 q 71 -106 71 -193 l 71 -193 q 71 -307 141 -384 q 212 -460 329 -460 l 329 -460 q 446 -460 517 -389 q 587 -318 587 -209 z m 235 -48 q 271 -48 294 -73 q 317 -97 317 -131 l 317 -131 q 317 -165 294 -192 q 271 -220 235 -220 q 199 -220 175 -193 q 150 -166 150 -132 l 150 -132 q 150 -98 175 -73 q 199 -48 235 -48 z m 1170 -209 l 1170 -209 q 1170 -60 1032 9 l 1032 9 l 997 -39 q 1102 -92 1102 -209 l 1102 -209 q 1102 -291 1050 -346 q 998 -401 914 -401 l 914 -401 q 830 -401 776 -348 q 721 -294 716 -214 l 716 -214 q 725 -243 760 -260 q 794 -276 829 -276 l 829 -276 q 891 -276 933 -234 q 976 -192 976 -130 l 976 -130 q 976 -68 932 -29 q 889 11 821 11 l 821 11 q 734 11 694 -47 q 654 -105 654 -193 l 654 -193 q 654 -306 724 -383 q 795 -460 912 -460 l 912 -460 q 1029 -460 1100 -389 q 1170 -317 1170 -209 z m 818 -48 q 854 -48 877 -72 q 900 -96 900 -130 l 900 -130 q 900 -165 877 -192 q 854 -219 818 -219 q 782 -219 758 -192 q 733 -166 733 -131 l 733 -131 q 733 -97 758 -73 q 782 -48 818 -48 z"},"ൊ":{"ha":1347,"x_min":90,"x_max":1348,"o":"m 1348 -500 l 1348 -97 q 1348 -26 1296 26 q 1244 78 1171 78 l 1171 78 l 267 78 q 193 78 142 26 q 90 -26 90 -97 l 90 -97 l 90 -500 q 90 -571 142 -623 q 193 -675 267 -675 l 267 -675 l 1171 -675 q 1244 -675 1296 -623 q 1348 -571 1348 -500 l 1348 -500 z m 1296 -152 l 1296 -152 l 1296 -448 q 1296 -521 1244 -573 q 1193 -625 1121 -625 l 1121 -625 l 317 -625 q 245 -625 193 -573 q 142 -521 142 -448 l 142 -448 l 142 -152 q 142 -80 193 -28 q 245 23 317 23 l 317 23 l 1121 23 q 1193 23 1244 -28 q 1296 -80 1296 -152 z m 1219 -293 l 1219 -293 q 1219 -65 1062 -65 l 1062 -65 q 913 -65 913 -215 l 913 -215 q 931 -215 949 -215 l 949 -215 q 959 -166 975 -146 q 990 -125 1035 -125 l 1035 -125 q 1097 -125 1120 -183 l 1120 -183 q 1134 -220 1134 -294 l 1134 -294 q 1134 -461 1046 -461 l 1046 -461 q 991 -461 971 -427 l 971 -427 q 956 -405 949 -343 l 949 -343 l 913 -343 l 913 -346 q 913 -428 943 -468 q 973 -508 1051 -508 l 1051 -508 q 1219 -508 1219 -293 z m 869 -296 l 869 -247 l 766 -247 l 766 -296 l 869 -296 z m 725 -285 l 725 -285 q 725 -162 586 -59 l 586 -59 l 530 -81 q 633 -156 633 -269 l 633 -269 q 633 -346 577 -400 q 522 -455 442 -455 q 362 -455 308 -400 q 254 -345 244 -262 l 244 -262 l 247 -258 q 297 -328 365 -328 l 365 -328 q 419 -328 458 -286 q 497 -244 497 -188 q 497 -132 461 -99 q 425 -65 367 -65 l 367 -65 q 293 -65 248 -118 l 248 -118 q 209 -168 209 -245 l 209 -245 q 209 -354 282 -431 q 355 -508 459 -508 q 564 -508 641 -448 l 641 -448 q 725 -383 725 -285 z m 344 -120 q 375 -120 399 -143 q 423 -166 423 -199 q 423 -232 402 -257 q 380 -281 345 -281 q 311 -281 287 -260 q 263 -238 263 -204 q 263 -170 287 -145 q 312 -120 344 -120 z"},"ോ":{"ha":1239,"x_min":90,"x_max":1240,"o":"m 1240 -500 l 1240 -97 q 1240 -26 1189 26 q 1137 78 1065 78 l 1065 78 l 266 78 q 193 78 141 26 q 90 -26 90 -97 l 90 -97 l 90 -500 q 90 -571 141 -623 q 193 -675 266 -675 l 266 -675 l 1065 -675 q 1137 -675 1189 -623 q 1240 -571 1240 -500 l 1240 -500 z m 1198 -137 l 1198 -137 l 1198 -448 q 1198 -521 1147 -573 q 1095 -625 1022 -625 l 1022 -625 l 320 -625 q 248 -625 196 -573 q 145 -521 145 -448 l 145 -448 l 145 -137 q 145 -65 196 -13 q 248 38 320 38 l 320 38 l 1022 38 q 1095 38 1147 -13 q 1198 -65 1198 -137 z m 1100 -292 l 1100 -292 q 1100 -64 940 -64 l 940 -64 q 794 -64 794 -211 l 794 -211 l 794 -214 l 829 -214 q 838 -165 852 -147 l 852 -147 q 871 -125 915 -125 l 915 -125 q 1015 -125 1015 -293 q 1015 -460 926 -460 l 926 -460 q 872 -460 850 -427 l 850 -427 q 838 -405 829 -342 l 829 -342 l 794 -342 l 794 -346 q 794 -427 821 -463 l 821 -463 q 853 -508 932 -508 l 932 -508 q 1100 -508 1100 -292 z m 750 -295 l 750 -247 l 645 -247 l 645 -295 l 750 -295 z m 602 -183 l 602 -183 q 602 -124 540 -91 l 540 -91 q 490 -67 423 -67 l 423 -67 q 321 -67 267 -128 q 212 -188 212 -291 q 212 -393 268 -451 q 323 -509 423 -509 l 423 -509 q 489 -509 545 -482 q 602 -454 602 -395 l 602 -395 q 602 -309 519 -309 l 519 -309 q 478 -309 449 -330 q 421 -351 421 -398 q 421 -444 454 -469 l 454 -469 q 439 -477 418 -477 l 418 -477 q 292 -477 292 -289 q 292 -100 418 -100 l 418 -100 q 439 -100 454 -108 l 454 -108 q 421 -128 421 -183 l 421 -183 q 421 -220 450 -241 q 479 -263 517 -263 q 555 -263 578 -241 q 602 -219 602 -183 z m 519 -341 l 519 -341 q 567 -341 567 -396 q 567 -452 512 -462 l 512 -462 q 478 -446 478 -394 q 478 -341 519 -341 z m 567 -185 l 567 -185 q 567 -205 553 -218 q 539 -231 519 -231 l 519 -231 q 478 -231 478 -182 q 478 -132 512 -114 l 512 -114 q 567 -126 567 -185 z"},"ൌ":{"ha":1347,"x_min":90,"x_max":1552,"o":"m 1552 -499 l 1552 -96 q 1552 -25 1500 27 q 1448 79 1375 79 l 1375 79 l 267 78 q 193 78 142 26 q 90 -26 90 -97 l 90 -97 l 90 -500 q 90 -571 142 -623 q 193 -675 267 -675 l 267 -675 l 1375 -674 q 1448 -674 1500 -622 q 1552 -570 1552 -499 l 1552 -499 z m 1500 -151 l 1500 -151 l 1500 -447 q 1500 -520 1448 -572 q 1397 -624 1325 -624 l 1325 -624 l 317 -625 q 245 -625 193 -573 q 142 -521 142 -448 l 142 -448 l 142 -152 q 142 -80 193 -28 q 245 23 317 23 l 317 23 l 1325 24 q 1397 24 1448 -27 q 1500 -79 1500 -151 z m 869 -296 l 869 -247 l 766 -247 l 766 -296 l 869 -296 z m 1264 -567 q 1342 -567 1392 -507 q 1441 -447 1441 -347 l 1441 -347 q 1441 -247 1390 -172 q 1338 -97 1218 -97 l 1218 -97 q 1135 -97 1090 -140 q 1045 -184 1045 -234 l 1045 -234 l 1110 -234 q 1127 -156 1215 -156 l 1215 -156 q 1371 -156 1371 -338 l 1371 -338 q 1371 -509 1257 -509 l 1257 -509 q 1224 -509 1200 -483 q 1176 -457 1176 -421 l 1176 -421 l 1176 -341 l 1104 -339 l 1104 -413 q 1104 -509 1030 -509 l 1030 -509 q 986 -509 967 -478 q 947 -448 947 -382 l 947 -382 q 947 -371 949 -330 l 949 -330 l 889 -330 q 883 -377 883 -390 l 883 -390 q 883 -567 1040 -567 l 1040 -567 q 1109 -567 1142 -512 l 1142 -512 q 1164 -543 1189 -555 q 1214 -567 1264 -567 l 1264 -567 z m 714 -321 l 714 -321 q 714 -172 576 -103 l 576 -103 l 542 -151 q 646 -204 646 -321 l 646 -321 q 646 -403 594 -458 q 542 -513 458 -513 l 458 -513 q 375 -513 320 -460 q 266 -406 260 -326 l 260 -326 q 270 -355 304 -372 q 338 -388 374 -388 l 374 -388 q 436 -388 478 -346 q 520 -304 520 -242 l 520 -242 q 520 -180 477 -140 q 433 -101 365 -101 l 365 -101 q 279 -101 239 -159 q 198 -217 198 -305 l 198 -305 q 198 -418 269 -495 q 339 -572 457 -572 l 457 -572 q 574 -572 644 -500 q 714 -429 714 -321 z m 363 -160 q 398 -160 421 -184 q 444 -208 444 -242 l 444 -242 q 444 -276 421 -304 q 398 -331 363 -331 q 327 -331 302 -304 q 277 -277 277 -243 l 277 -243 q 277 -209 302 -184 q 327 -160 363 -160 z"},"്":{"ha":23,"x_min":-110,"x_max":152,"o":"m 152 -615 l 152 -615 q 152 -558 114 -517 q 75 -477 21 -477 q -32 -477 -71 -517 q -110 -558 -110 -615 l -110 -615 q -110 -625 -108 -632 l -108 -632 l -49 -632 q -50 -627 -50 -615 l -50 -615 q -50 -582 -29 -559 q -8 -537 21 -537 l 21 -537 q 50 -537 71 -559 q 92 -582 92 -615 l 92 -615 q 92 -624 91 -632 l 91 -632 l 150 -632 q 152 -625 152 -615 z"},"ൎ":{"ha":0,"x_min":-329,"x_max":-252,"o":"m -329 -575 l -329 -601 q -307 -623 -291 -623 q -275 -623 -252 -601 l -252 -601 l -252 -575 q -267 -529 -289 -529 q -312 -529 -329 -575 l -329 -575 z"},"ൗ":{"ha":598,"x_min":42,"x_max":601,"o":"m 423 -460 q 501 -460 551 -400 q 601 -340 601 -240 l 601 -240 q 601 -140 549 -65 q 498 10 377 10 l 377 10 q 294 10 249 -33 q 205 -77 205 -127 l 205 -127 l 270 -127 q 286 -49 374 -49 l 374 -49 q 530 -49 530 -231 l 530 -231 q 530 -402 416 -402 l 416 -402 q 383 -402 359 -376 q 335 -350 335 -314 l 335 -314 l 335 -234 l 263 -232 l 263 -306 q 263 -402 189 -402 l 189 -402 q 145 -402 126 -371 q 106 -341 106 -275 l 106 -275 q 106 -264 108 -223 l 108 -223 l 48 -223 q 42 -270 42 -283 l 42 -283 q 42 -460 199 -460 l 199 -460 q 269 -460 301 -405 l 301 -405 q 323 -437 348 -448 q 373 -460 423 -460 l 423 -460 z"},"ൠ":{"ha":710,"x_min":70,"x_max":712,"o":"m 423 -329 l 423 -329 q 424 -386 463 -423 q 502 -460 566 -460 l 566 -460 q 630 -460 671 -407 q 712 -354 712 -284 q 712 -214 678 -163 q 644 -111 582 -85 l 582 -85 q 696 -65 696 36 l 696 36 q 696 120 603 156 q 510 191 390 191 q 270 191 180 156 q 90 122 90 36 l 90 36 q 90 -38 202 -85 l 202 -85 q 139 -104 104 -159 q 70 -213 70 -285 q 70 -356 109 -408 q 149 -460 225 -460 l 225 -460 q 281 -460 318 -423 q 355 -386 355 -328 l 355 -328 q 355 -271 320 -232 q 285 -194 230 -194 l 230 -194 q 198 -194 170 -213 q 141 -232 131 -264 l 131 -264 q 131 -114 391 -114 l 391 -114 q 650 -114 651 -264 l 651 -264 q 643 -231 613 -213 q 583 -194 550 -194 l 550 -194 q 497 -194 460 -233 q 423 -272 423 -329 z m 629 -329 l 629 -329 q 629 -358 610 -380 q 591 -402 558 -402 l 558 -402 q 524 -402 505 -380 q 485 -358 485 -329 l 485 -329 q 485 -300 506 -277 q 526 -254 559 -254 l 559 -254 q 591 -254 610 -276 q 629 -299 629 -329 z m 293 -329 l 293 -329 q 293 -358 275 -380 q 256 -402 223 -402 l 223 -402 q 189 -402 169 -380 q 149 -358 149 -329 l 149 -329 q 149 -300 169 -277 q 190 -254 222 -254 l 222 -254 q 254 -254 274 -276 q 293 -299 293 -329 z m 626 36 l 626 36 q 626 -50 393 -50 l 393 -50 q 159 -50 159 36 l 159 36 q 159 126 393 126 q 626 126 626 36 z m 454 -21 q 490 -21 518 -4 q 546 12 546 35 l 546 35 q 546 59 524 78 q 502 97 472 97 l 472 97 l 453 60 q 467 60 481 52 q 495 43 495 37 l 495 37 q 495 16 446 16 l 446 16 q 421 16 421 25 l 421 25 l 421 95 l 369 95 l 369 25 q 369 16 340 16 l 340 16 q 293 16 293 37 l 293 37 q 293 44 306 53 q 318 62 335 65 l 335 65 l 314 99 q 241 82 241 39 l 241 39 q 241 12 269 -4 q 298 -21 335 -21 l 335 -21 q 372 -21 395 -8 l 395 -8 q 417 -21 454 -21 l 454 -21 z"},"ൡ":{"ha":998,"x_min":71,"x_max":998,"o":"m 799 -354 l 799 -354 q 897 -343 948 -272 q 998 -202 998 -93 l 998 -93 q 998 16 931 102 q 863 187 750 187 l 750 187 q 683 187 625 149 l 625 149 l 650 97 q 698 133 750 133 l 750 133 q 837 133 888 63 q 938 -6 938 -96 l 938 -96 q 938 -261 830 -292 l 830 -292 q 854 -246 854 -174 q 854 -102 819 -47 q 784 8 709 8 q 635 8 597 -39 q 559 -86 559 -163 l 559 -163 q 559 -240 606 -297 q 654 -353 728 -353 l 728 -353 q 699 -402 619 -402 l 619 -402 q 567 -402 536 -371 q 504 -340 504 -290 l 504 -290 l 504 0 l 438 0 l 438 -290 q 438 -341 404 -372 q 370 -402 318 -402 l 318 -402 q 240 -402 189 -347 q 138 -292 133 -214 l 133 -214 q 144 -244 177 -260 q 209 -276 246 -276 l 246 -276 q 307 -276 350 -236 q 393 -196 393 -132 l 393 -132 q 393 -69 349 -30 q 305 8 238 8 l 238 8 q 154 8 113 -50 q 71 -107 71 -195 l 71 -195 q 71 -319 143 -390 q 216 -460 326 -460 q 436 -460 470 -389 l 470 -389 q 502 -460 608 -460 l 608 -460 q 738 -460 799 -354 z m 795 -173 l 795 -173 q 795 -246 765 -299 l 765 -299 q 753 -300 743 -300 l 743 -300 q 688 -300 654 -260 q 619 -220 619 -167 l 619 -167 q 619 -113 641 -81 q 662 -48 704 -48 l 704 -48 q 795 -48 795 -173 z m 235 -50 q 270 -50 293 -74 q 317 -97 317 -132 q 317 -167 293 -193 q 270 -219 235 -219 q 200 -219 175 -194 q 150 -169 150 -134 l 150 -134 q 150 -99 175 -74 q 200 -50 235 -50 z"},"ൢ":{"ha":0,"x_min":-585,"x_max":0,"o":"m 0 170 l 0 170 q 0 223 -31 259 q -61 296 -122 296 l -122 296 q -170 296 -200 272 q -230 248 -230 208 l -230 208 q -230 167 -201 139 q -172 112 -128 112 l -128 112 q -103 112 -78 122 q -54 132 -46 150 l -46 150 q -49 105 -86 71 q -123 38 -179 38 l -179 38 q -217 38 -243 57 q -269 77 -269 109 l -269 109 l -269 291 l -316 291 l -316 109 q -316 77 -342 57 q -368 38 -405 38 l -405 38 q -461 38 -499 71 q -536 105 -539 150 l -539 150 q -531 132 -507 122 q -482 112 -457 112 l -457 112 q -413 112 -384 139 q -355 167 -355 208 l -355 208 q -355 248 -385 272 q -415 296 -463 296 l -463 296 q -523 296 -554 260 q -585 224 -585 170 l -585 170 q -585 102 -537 51 q -489 1 -410 1 l -410 1 q -331 1 -293 44 l -293 44 q -254 1 -175 1 q -96 1 -48 51 q 0 102 0 170 z m -120 259 q -95 259 -76 244 q -58 229 -58 207 q -58 186 -77 170 q -96 154 -120 154 q -145 154 -162 170 q -180 186 -180 208 q -180 230 -163 245 q -146 259 -120 259 z m -465 259 q -439 259 -422 245 q -405 230 -405 208 q -405 186 -423 170 q -440 154 -465 154 q -489 154 -508 170 q -527 186 -527 207 q -527 229 -509 244 q -490 259 -465 259 z"},"ൣ":{"ha":0,"x_min":-519,"x_max":93,"o":"m -39 63 l -39 63 q 26 70 59 114 q 93 157 93 224 l 93 224 q 93 291 48 343 q 4 396 -71 396 l -71 396 q -115 396 -153 372 l -153 372 l -137 340 q -105 362 -71 362 l -71 362 q -14 362 20 320 q 53 277 53 222 l 53 222 q 53 120 -18 102 l -18 102 q -2 130 -2 174 q -2 218 -26 252 q -49 286 -98 286 q -147 286 -172 257 q -197 228 -197 181 l -197 181 q -197 133 -166 99 q -134 64 -85 64 l -85 64 q -104 34 -157 34 l -157 34 q -191 34 -212 53 q -233 72 -233 103 l -233 103 l -233 281 l -277 281 l -277 103 q -277 71 -299 53 q -322 34 -356 34 l -356 34 q -407 34 -441 68 q -474 102 -478 149 l -478 149 q -470 131 -449 121 q -427 111 -403 111 l -403 111 q -363 111 -335 136 q -307 161 -307 200 l -307 200 q -307 239 -336 262 q -365 286 -409 286 l -409 286 q -464 286 -491 250 q -519 215 -519 161 l -519 161 q -519 85 -471 42 q -423 -2 -351 -2 q -278 -2 -255 42 l -255 42 q -234 -2 -165 -2 l -165 -2 q -79 -2 -39 63 z m -41 175 l -41 175 q -41 130 -61 97 l -61 97 q -69 96 -76 96 l -76 96 q -112 96 -134 121 q -157 146 -157 179 l -157 179 q -157 211 -143 231 q -129 251 -101 251 l -101 251 q -41 251 -41 175 z m -410 250 q -387 250 -372 236 q -357 221 -357 200 q -357 178 -372 162 q -387 146 -410 146 q -433 146 -450 162 q -467 177 -467 199 l -467 199 q -467 220 -450 235 q -433 250 -410 250 z"},"൦":{"ha":471,"x_min":59,"x_max":472,"o":"m 265 -4 l 265 -4 q 59 -4 59 -274 q 59 -543 265 -543 l 265 -543 q 472 -543 472 -274 q 472 -4 265 -4 z m 263 -60 q 401 -60 401 -274 q 401 -487 265 -487 l 265 -487 q 129 -487 129 -274 q 129 -60 263 -60 l 263 -60 z"},"൧":{"ha":642,"x_min":37,"x_max":640,"o":"m 640 -300 l 640 -1 l 183 0 q 103 0 103 58 l 103 58 q 103 89 127 105 q 152 122 183 122 l 183 122 l 336 122 l 336 185 l 172 185 q 116 185 76 149 q 37 113 37 58 q 37 2 73 -33 q 109 -68 163 -68 l 163 -68 l 222 -68 l 222 -294 q 222 -386 282 -450 q 343 -515 431 -515 q 518 -515 579 -452 q 640 -390 640 -300 l 640 -300 z m 291 -68 l 571 -68 l 571 -296 q 571 -359 530 -403 q 489 -447 430 -447 l 430 -447 q 372 -447 331 -403 q 291 -358 291 -295 l 291 -295 l 291 -68 z"},"൨":{"ha":668,"x_min":69,"x_max":699,"o":"m 699 -66 l 699 0 l 392 0 l 392 -52 q 497 -115 497 -245 l 497 -245 q 497 -330 445 -387 q 393 -443 312 -443 q 231 -443 180 -386 q 129 -328 129 -249 l 129 -249 q 129 -170 166 -114 q 202 -58 267 -35 l 267 -35 l 223 10 q 149 -23 109 -90 q 69 -157 69 -243 l 69 -243 q 69 -358 141 -434 q 213 -510 319 -510 l 319 -510 q 426 -510 493 -436 q 561 -361 561 -243 l 561 -243 q 561 -124 492 -66 l 492 -66 l 699 -66 z"},"൩":{"ha":912,"x_min":75,"x_max":941,"o":"m 941 -66 l 941 0 l 634 0 l 634 -52 q 740 -115 740 -245 l 740 -245 q 740 -318 701 -381 q 662 -443 596 -443 l 596 -443 q 544 -443 510 -407 q 477 -370 477 -316 l 477 -316 l 477 0 l 407 0 l 407 -316 q 407 -365 375 -406 q 344 -447 298 -447 l 298 -447 q 227 -447 182 -388 q 138 -330 138 -256 l 138 -256 q 138 -182 174 -121 q 211 -60 271 -34 l 271 -34 l 224 14 q 153 -23 114 -93 q 75 -164 75 -249 l 75 -249 q 75 -358 136 -434 q 198 -510 299 -510 l 299 -510 q 344 -510 383 -488 q 423 -466 442 -425 l 442 -425 q 459 -467 506 -489 q 552 -510 601 -510 l 601 -510 q 696 -510 751 -431 q 806 -352 806 -248 l 806 -248 q 806 -145 743 -66 l 743 -66 l 941 -66 z"},"൪":{"ha":608,"x_min":75,"x_max":607,"o":"m 607 -199 l 607 -199 q 607 -120 570 -54 q 532 11 463 11 l 463 11 q 395 11 362 -49 q 329 -109 329 -185 l 329 -185 l 329 -448 q 247 -443 192 -376 q 137 -309 137 -220 l 137 -220 q 137 -105 224 -39 l 224 -39 l 177 8 q 75 -80 75 -225 l 75 -225 q 75 -341 147 -426 q 220 -510 329 -514 l 329 -514 l 329 -633 l 396 -633 l 396 -508 q 504 -493 556 -404 q 607 -314 607 -199 z m 540 -200 l 540 -200 q 540 -284 505 -352 q 471 -419 396 -438 l 396 -438 l 396 -186 q 396 -141 412 -99 q 427 -58 464 -58 q 501 -58 521 -105 q 540 -152 540 -200 z"},"൫":{"ha":854,"x_min":71,"x_max":854,"o":"m 854 -259 l 854 -259 q 854 -117 776 4 l 776 4 l 724 -27 q 786 -131 786 -253 l 786 -253 q 786 -396 699 -490 q 611 -584 465 -584 l 465 -584 q 318 -584 227 -483 q 136 -381 136 -229 l 136 -229 q 136 -48 222 38 q 308 123 425 123 l 425 123 q 495 123 550 79 q 604 36 604 -41 l 604 -41 q 604 -147 509 -147 l 509 -147 l 450 -147 l 450 -218 l 509 -218 q 553 -218 580 -248 q 607 -278 607 -329 l 607 -329 q 607 -379 567 -414 q 528 -448 471 -448 l 471 -448 q 380 -448 329 -381 q 277 -314 277 -219 l 277 -219 q 277 -124 323 -17 l 323 -17 l 264 9 q 214 -114 214 -231 l 214 -231 q 214 -349 284 -429 q 354 -509 471 -509 l 471 -509 q 557 -509 615 -459 q 674 -408 674 -325 l 674 -325 q 674 -217 604 -188 l 604 -188 q 673 -156 673 -44 l 673 -44 q 673 68 596 129 q 520 190 411 190 l 411 190 q 281 190 176 94 q 71 -3 71 -216 l 71 -216 q 71 -404 178 -526 q 286 -648 463 -648 l 463 -648 q 640 -648 747 -539 q 854 -429 854 -259 z"},"൬":{"ha":1108,"x_min":75,"x_max":1109,"o":"m 1109 -205 l 1109 -205 q 1109 -43 1011 78 q 914 199 768 199 l 768 199 q 719 199 668 180 l 668 180 l 687 115 q 725 129 768 129 l 768 129 q 888 129 967 29 q 1046 -72 1046 -205 l 1046 -205 q 1046 -305 1007 -376 q 968 -448 885 -448 l 885 -448 q 838 -448 807 -410 q 776 -372 776 -322 l 776 -322 l 776 0 l 706 0 l 706 -333 q 706 -380 673 -414 q 639 -448 592 -448 l 592 -448 q 545 -448 511 -415 q 477 -382 477 -333 l 477 -333 l 477 0 l 407 0 l 407 -322 q 407 -371 375 -409 q 344 -448 298 -448 l 298 -448 q 227 -448 186 -389 q 145 -331 145 -256 q 145 -181 178 -121 q 211 -61 272 -35 l 272 -35 l 224 13 q 153 -24 114 -95 q 75 -165 75 -250 l 75 -250 q 75 -359 137 -437 q 199 -514 299 -514 l 299 -514 q 344 -514 383 -492 q 423 -471 442 -431 l 442 -431 q 475 -514 589 -514 l 589 -514 q 703 -514 741 -431 l 741 -431 q 762 -471 801 -492 q 839 -514 883 -514 l 883 -514 q 996 -514 1052 -423 q 1109 -333 1109 -205 z"},"൭":{"ha":618,"x_min":73,"x_max":620,"o":"m 620 -205 l 620 -205 q 620 -42 520 79 q 420 201 274 201 l 274 201 q 226 201 177 180 l 177 180 l 196 119 q 233 131 274 131 l 274 131 q 394 131 474 31 q 554 -69 554 -202 l 554 -202 q 554 -304 498 -373 q 441 -442 349 -442 l 349 -442 q 256 -442 200 -385 q 144 -328 139 -236 l 139 -236 q 149 -270 184 -287 q 218 -304 256 -304 l 256 -304 q 321 -304 365 -260 q 410 -216 410 -145 l 410 -145 q 410 -74 365 -32 q 319 11 248 11 l 248 11 q 160 11 116 -52 q 73 -114 73 -212 l 73 -212 q 73 -342 148 -426 q 224 -509 348 -509 l 348 -509 q 472 -509 546 -421 q 620 -332 620 -205 z m 245 -55 q 282 -55 306 -81 q 331 -106 331 -146 l 331 -146 q 331 -185 306 -213 q 282 -241 246 -241 l 246 -241 q 209 -241 182 -213 q 155 -186 155 -146 l 155 -146 q 155 -107 182 -81 q 208 -55 245 -55 z"},"൮":{"ha":759,"x_min":75,"x_max":760,"o":"m 760 -502 l 760 0 l 758 8 q 734 112 654 156 q 574 200 458 200 l 458 200 q 416 200 365 181 l 365 181 l 385 117 q 421 130 482 130 l 482 130 q 543 130 607 104 q 671 78 683 8 l 683 8 l 685 0 l 396 0 l 396 -52 q 502 -115 502 -246 l 502 -246 q 502 -332 449 -390 q 396 -448 316 -448 l 316 -448 q 236 -448 184 -389 q 132 -329 132 -242 l 132 -242 q 132 -88 266 -39 l 266 -39 l 228 10 q 75 -61 75 -243 l 75 -243 q 75 -358 146 -434 q 218 -509 324 -509 l 324 -509 q 431 -509 498 -435 q 566 -361 566 -243 l 566 -243 q 566 -124 493 -67 l 493 -67 l 690 -67 l 690 -502 l 760 -502 z"},"൯":{"ha":858,"x_min":74,"x_max":860,"o":"m 860 -198 l 860 -198 q 860 -119 822 -54 q 784 11 716 11 l 716 11 q 649 11 615 -49 q 581 -109 581 -185 l 581 -185 l 581 -443 q 532 -439 504 -406 q 476 -374 476 -321 l 476 -321 l 476 0 l 407 0 l 407 -321 q 407 -369 375 -406 q 343 -443 297 -443 l 297 -443 q 226 -443 185 -387 q 144 -330 144 -258 l 144 -258 q 144 -186 176 -125 q 208 -65 268 -39 l 268 -39 l 223 10 q 151 -26 113 -97 q 74 -168 74 -250 l 74 -250 q 74 -359 135 -434 q 197 -510 294 -510 l 294 -510 q 391 -510 441 -425 l 441 -425 q 487 -506 581 -509 l 581 -509 l 581 -706 l 648 -706 l 648 -503 q 756 -488 808 -399 q 860 -310 860 -198 z m 792 -199 l 792 -199 q 792 -281 757 -348 q 723 -415 648 -433 l 648 -433 l 648 -186 q 648 -144 664 -100 q 680 -57 717 -57 l 717 -57 q 754 -57 773 -105 q 792 -152 792 -199 z"},"൰":{"ha":763,"x_min":-26,"x_max":763,"o":"m 763 -225 l 763 -225 q 763 -127 705 -59 q 646 10 551 10 q 455 10 414 -58 l 414 -58 q 371 11 278 11 l 278 11 q 249 11 222 4 l 222 4 q 198 104 99 104 q 1 104 -26 12 l -26 12 l 33 -13 q 39 42 95 42 q 151 42 163 -25 l 163 -25 q 144 -39 128 -57 l 128 -57 q 71 -125 71 -220 l 71 -220 q 71 -295 107 -361 q 143 -427 214 -460 l 214 -460 l 245 -410 q 137 -358 137 -216 l 137 -216 q 137 -146 177 -99 q 218 -51 288 -51 l 288 -51 q 328 -51 353 -86 q 378 -121 378 -160 l 378 -160 l 378 -449 l 447 -449 l 447 -160 q 447 -117 477 -84 q 506 -51 551 -51 l 551 -51 q 617 -51 657 -103 q 697 -154 697 -220 l 697 -220 q 697 -359 588 -410 l 588 -410 l 622 -460 q 692 -428 728 -364 q 763 -301 763 -225 z"},"൱":{"ha":1108,"x_min":229,"x_max":996,"o":"m 601 -431 l 601 -431 q 621 -471 660 -492 q 699 -514 771 -514 l 771 -514 q 883 -514 939 -423 q 996 -333 996 -205 l 996 -205 q 996 -43 899 78 q 801 199 655 199 l 655 199 q 606 199 555 180 l 555 180 l 574 115 q 612 129 655 129 l 655 129 q 775 129 854 29 q 933 -72 933 -205 l 933 -205 q 933 -305 894 -376 q 855 -448 776 -448 q 698 -448 667 -410 q 635 -372 635 -322 l 635 -322 l 635 0 l 565 0 l 565 -333 q 565 -382 531 -415 q 497 -448 453 -448 l 453 -448 q 382 -448 341 -389 q 299 -331 299 -256 q 299 -181 333 -121 q 366 -61 427 -35 l 427 -35 l 378 13 q 308 -24 269 -95 q 229 -165 229 -250 l 229 -250 q 229 -359 292 -437 q 354 -514 454 -514 l 454 -514 q 499 -514 540 -492 q 581 -471 601 -431 z"},"൲":{"ha":942,"x_min":71,"x_max":965,"o":"m 560 -123 l 560 -123 q 560 -45 621 -45 l 621 -45 q 700 -45 700 -167 l 700 -167 l 700 -198 l 660 -198 q 560 -198 560 -123 z m 886 -276 q 905 -276 918 -289 q 932 -302 932 -321 q 932 -340 918 -353 q 905 -366 886 -366 q 868 -366 854 -353 q 841 -340 841 -321 q 841 -302 854 -289 q 868 -276 886 -276 z m 765 -256 l 831 -256 q 808 -280 808 -317 q 808 -353 831 -376 q 854 -399 887 -399 q 919 -399 942 -376 q 965 -353 965 -321 q 965 -289 938 -261 l 938 -261 q 911 -232 880 -233 l 880 -233 l 764 -210 l 765 -163 q 765 -89 727 -40 q 688 10 630 10 q 571 10 535 -28 q 500 -66 500 -123 l 500 -123 q 500 -256 682 -256 l 682 -256 l 695 -256 q 686 -318 650 -360 q 615 -402 562 -402 q 508 -402 481 -369 q 455 -335 455 -287 l 455 -287 l 455 4 l 389 4 l 389 -287 q 389 -331 358 -366 q 328 -402 284 -402 l 284 -402 q 219 -402 178 -350 q 138 -297 138 -229 q 138 -162 170 -106 q 202 -51 259 -27 l 259 -27 l 214 16 q 146 -16 109 -80 q 71 -145 71 -223 l 71 -223 q 71 -321 130 -391 q 189 -460 288 -460 q 387 -460 421 -388 l 421 -388 q 454 -460 547 -460 q 641 -460 695 -402 q 750 -344 765 -256 l 765 -256 z"},"൳":{"ha":625,"x_min":60,"x_max":625,"o":"m 202 -50 q 236 -50 261 -74 q 285 -98 285 -133 q 285 -167 261 -192 q 236 -216 202 -216 q 168 -216 144 -192 q 120 -167 120 -133 q 120 -98 144 -74 q 168 -50 202 -50 z m 625 -232 l 304 -234 q 346 -191 346 -133 q 346 -74 303 -32 q 261 10 203 10 q 144 10 102 -32 q 60 -74 60 -133 q 60 -191 103 -233 l 103 -233 q 147 -276 207 -277 l 207 -277 q 207 -277 208 -277 l 208 -277 l 625 -274 l 625 -232 z"},"൴":{"ha":814,"x_min":179,"x_max":816,"o":"m 550 -402 l 426 -398 q 348 -398 297 -343 q 246 -288 241 -210 l 241 -210 q 252 -240 285 -256 q 317 -272 354 -272 l 354 -272 q 415 -272 458 -232 q 500 -192 500 -128 l 500 -128 q 500 -65 457 -26 q 413 12 337 12 q 262 12 220 -46 q 179 -104 179 -191 l 179 -191 q 179 -315 251 -386 q 324 -457 425 -457 l 425 -457 l 558 -460 q 623 -460 667 -439 l 667 -439 q 697 -466 697 -498 l 697 -498 q 697 -530 678 -554 q 660 -577 633 -577 l 633 -577 q 584 -577 539 -528 l 539 -528 l 501 -566 q 546 -636 637 -636 l 637 -636 q 697 -636 728 -597 q 759 -558 759 -506 q 759 -453 722 -405 l 722 -405 q 816 -325 816 -180 l 816 -180 q 816 -106 774 -48 q 732 11 660 11 l 660 11 q 588 11 549 -47 q 510 -105 510 -181 l 510 -181 q 510 -295 618 -390 l 618 -390 q 593 -402 550 -402 l 550 -402 z m 343 -46 q 378 -46 401 -70 q 425 -93 425 -128 q 425 -163 401 -189 q 378 -215 343 -215 q 308 -215 283 -190 q 258 -165 258 -130 l 258 -130 q 258 -95 283 -71 q 308 -46 343 -46 z m 749 -181 l 749 -181 q 749 -295 672 -361 l 672 -361 q 572 -279 572 -183 l 572 -183 q 572 -134 594 -91 q 616 -48 660 -48 l 660 -48 q 704 -48 726 -90 q 749 -132 749 -181 z"},"൵":{"ha":814,"x_min":31,"x_max":816,"o":"m 278 -402 l 278 -402 q 201 -402 150 -347 q 99 -292 93 -214 l 93 -214 q 104 -244 137 -260 q 170 -276 207 -276 l 207 -276 q 267 -276 310 -236 q 353 -196 353 -132 l 353 -132 q 353 -69 309 -30 q 265 8 190 8 q 115 8 73 -50 q 31 -107 31 -195 l 31 -195 q 31 -319 104 -390 q 176 -460 278 -460 q 379 -460 421 -396 l 421 -396 q 464 -460 558 -460 l 558 -460 q 623 -460 667 -439 l 667 -439 q 697 -466 697 -498 l 697 -498 q 697 -530 678 -554 q 660 -577 633 -577 l 633 -577 q 584 -577 539 -528 l 539 -528 l 501 -566 q 546 -636 637 -636 l 637 -636 q 697 -636 728 -597 q 759 -558 759 -506 q 759 -453 722 -405 l 722 -405 q 816 -325 816 -180 l 816 -180 q 816 -106 774 -48 q 732 11 660 11 l 660 11 q 588 11 549 -47 q 510 -105 510 -181 l 510 -181 q 510 -295 618 -390 l 618 -390 q 593 -402 550 -402 q 507 -402 481 -366 q 455 -331 455 -289 l 455 -289 l 455 0 l 389 0 l 389 -289 q 389 -333 356 -367 q 323 -402 278 -402 z m 196 -50 q 230 -50 254 -74 q 277 -97 277 -132 q 277 -167 254 -193 q 230 -219 196 -219 q 161 -219 135 -194 q 110 -169 110 -134 l 110 -134 q 110 -99 135 -74 q 161 -50 196 -50 z m 749 -181 l 749 -181 q 749 -295 672 -361 l 672 -361 q 572 -279 572 -183 l 572 -183 q 572 -134 594 -91 q 616 -48 660 -48 l 660 -48 q 704 -48 726 -90 q 749 -132 749 -181 z"},"൹":{"ha":942,"x_min":71,"x_max":943,"o":"m 943 -256 l 943 -198 l 765 -198 q 765 -198 765 -163 l 765 -163 q 765 -89 727 -40 q 688 10 630 10 l 630 10 q 571 10 535 -28 q 500 -66 500 -123 l 500 -123 q 500 -256 682 -256 l 682 -256 q 682 -256 695 -256 l 695 -256 q 686 -318 650 -360 q 615 -402 562 -402 q 508 -402 481 -369 q 455 -335 455 -287 l 455 -287 l 455 4 l 389 4 l 389 -287 q 389 -331 358 -366 q 328 -402 284 -402 l 284 -402 q 219 -402 178 -350 q 138 -297 138 -229 l 138 -229 q 138 -162 170 -106 q 202 -51 259 -27 l 259 -27 l 214 16 q 146 -16 109 -80 q 71 -145 71 -223 l 71 -223 q 71 -321 130 -391 q 189 -460 288 -460 l 288 -460 q 387 -460 421 -388 l 421 -388 q 454 -460 547 -460 l 547 -460 q 641 -460 695 -402 q 750 -344 765 -256 l 765 -256 l 943 -256 z m 560 -123 l 560 -123 q 560 -45 621 -45 l 621 -45 q 700 -45 700 -167 l 700 -167 l 700 -198 l 660 -198 q 560 -198 560 -123 z"},"ൺ":{"ha":1150,"x_min":70,"x_max":1151,"o":"m 970 -636 l 970 -636 q 1032 -636 1063 -598 q 1095 -560 1095 -497 l 1095 -497 q 1095 -457 1056 -407 l 1056 -407 q 1151 -328 1151 -182 l 1151 -182 q 1151 -106 1110 -48 q 1068 10 996 10 q 923 10 884 -49 q 845 -107 845 -184 l 845 -184 q 845 -297 953 -392 l 953 -392 q 935 -402 893 -402 q 851 -402 822 -369 q 792 -336 792 -290 l 792 -290 l 792 0 l 726 0 l 726 -290 q 726 -339 695 -371 q 663 -402 614 -402 q 564 -402 534 -371 q 504 -339 504 -290 l 504 -290 l 504 0 l 433 0 l 433 -290 q 433 -402 297 -402 l 297 -402 q 228 -402 180 -344 q 133 -287 128 -214 l 128 -214 q 150 -272 226 -272 l 226 -272 q 283 -272 319 -233 q 355 -193 355 -134 q 355 -74 317 -32 q 279 11 219 11 l 219 11 q 146 11 108 -52 q 70 -115 70 -193 l 70 -193 q 70 -306 136 -383 q 202 -460 308 -460 q 414 -460 467 -398 l 467 -398 q 506 -460 615 -460 q 724 -460 758 -398 l 758 -398 q 807 -460 895 -460 l 895 -460 q 961 -460 1002 -441 l 1002 -441 q 1032 -469 1032 -500 q 1032 -531 1014 -554 q 995 -577 968 -577 l 968 -577 q 920 -577 875 -527 l 875 -527 l 837 -566 q 879 -636 970 -636 z m 1083 -183 l 1083 -183 q 1083 -298 1007 -364 l 1007 -364 q 906 -282 906 -186 l 906 -186 q 906 -139 929 -94 q 952 -49 996 -49 q 1041 -49 1062 -92 q 1083 -135 1083 -183 z m 216 -48 q 250 -48 271 -73 q 292 -98 292 -132 q 292 -167 271 -192 q 251 -218 217 -218 q 183 -218 162 -193 q 142 -168 141 -134 q 141 -100 162 -74 q 183 -48 216 -48 z"},"ൻ":{"ha":814,"x_min":71,"x_max":816,"o":"m 816 -180 l 816 -180 q 816 -106 774 -48 q 732 11 660 11 l 660 11 q 588 11 549 -47 q 510 -105 510 -181 l 510 -181 q 510 -295 618 -390 l 618 -390 q 593 -402 550 -402 q 507 -402 481 -366 q 455 -331 455 -289 l 455 -289 l 455 0 l 389 0 l 389 -289 q 389 -333 359 -367 q 329 -402 284 -402 l 284 -402 q 220 -402 179 -350 q 138 -299 138 -231 l 138 -231 q 138 -164 170 -109 q 201 -55 259 -31 l 259 -31 l 214 12 q 146 -21 109 -85 q 71 -148 71 -226 l 71 -226 q 71 -323 130 -392 q 189 -460 284 -460 l 284 -460 q 379 -460 421 -396 l 421 -396 q 464 -460 558 -460 l 558 -460 q 623 -460 667 -439 l 667 -439 q 697 -466 697 -498 l 697 -498 q 697 -530 678 -554 q 660 -577 633 -577 l 633 -577 q 584 -577 539 -528 l 539 -528 l 501 -566 q 546 -636 637 -636 l 637 -636 q 697 -636 728 -597 q 759 -558 759 -506 q 759 -453 722 -405 l 722 -405 q 816 -325 816 -180 z m 749 -181 l 749 -181 q 749 -295 672 -361 l 672 -361 q 572 -279 572 -183 l 572 -183 q 572 -134 594 -91 q 616 -48 660 -48 l 660 -48 q 704 -48 726 -90 q 749 -132 749 -181 z"},"ർ":{"ha":574,"x_min":71,"x_max":575,"o":"m 575 -180 l 575 -180 q 575 -102 535 -46 q 495 11 424 11 l 424 11 q 354 11 315 -47 q 276 -105 276 -181 l 276 -181 q 276 -296 382 -391 l 382 -391 q 367 -402 328 -402 l 328 -402 q 240 -402 186 -341 q 132 -281 132 -187 l 132 -187 q 132 -92 214 -29 l 214 -29 l 169 10 q 71 -68 71 -189 l 71 -189 q 71 -311 140 -385 q 209 -460 325 -460 l 325 -460 q 384 -460 431 -440 l 431 -440 q 459 -468 459 -499 l 459 -499 q 459 -530 441 -553 q 423 -576 397 -576 l 397 -576 q 349 -576 307 -529 l 307 -529 l 269 -565 q 312 -636 401 -636 l 401 -636 q 464 -636 495 -597 q 525 -558 525 -498 l 525 -498 q 525 -461 483 -406 l 483 -406 q 575 -326 575 -180 z m 508 -181 l 508 -181 q 508 -296 434 -361 l 434 -361 q 340 -282 340 -184 l 340 -184 q 340 -133 360 -90 q 380 -48 424 -48 l 424 -48 q 467 -48 488 -89 q 508 -130 508 -181 z"},"ൽ":{"ha":914,"x_min":70,"x_max":916,"o":"m 916 -180 l 916 -180 q 916 -106 874 -48 q 833 11 761 11 l 761 11 q 689 11 649 -46 q 609 -103 609 -168 q 609 -232 637 -277 q 665 -321 720 -374 l 720 -374 q 683 -402 614 -402 q 544 -402 489 -386 l 489 -386 q 531 -354 560 -293 q 589 -232 589 -169 l 589 -169 q 589 -107 543 -48 q 497 11 424 11 l 424 11 q 352 11 310 -44 q 268 -98 268 -178 l 268 -178 q 268 -302 370 -386 l 370 -386 q 330 -402 306 -402 l 306 -402 q 231 -402 182 -346 q 132 -290 132 -214 l 132 -214 q 132 -89 224 -26 l 224 -26 l 185 12 q 70 -63 70 -220 l 70 -220 q 70 -318 139 -389 q 208 -460 329 -460 l 329 -460 q 387 -460 433 -425 l 433 -425 q 486 -460 588 -460 q 689 -460 757 -427 l 757 -427 q 791 -457 791 -493 l 791 -493 q 791 -529 776 -553 q 761 -577 733 -577 l 733 -577 q 687 -577 641 -528 l 641 -528 l 601 -566 q 646 -636 738 -636 l 738 -636 q 859 -636 859 -495 l 859 -495 q 859 -448 815 -389 l 815 -389 q 916 -299 916 -180 z m 760 -48 q 805 -48 828 -90 q 850 -132 850 -191 l 850 -191 q 850 -273 775 -341 l 775 -341 q 671 -253 671 -167 l 671 -167 q 671 -124 693 -86 q 714 -48 760 -48 z m 520 -178 l 520 -178 q 520 -283 426 -353 l 426 -353 q 332 -287 332 -178 l 332 -178 q 332 -45 428 -45 l 428 -45 q 474 -45 497 -87 q 520 -128 520 -178 z"},"ൾ":{"ha":825,"x_min":71,"x_max":826,"o":"m 256 -50 l 256 -50 q 367 -50 370 -185 l 370 -185 q 370 -185 372 -275 l 372 -275 q 373 -353 427 -407 q 482 -460 568 -460 l 568 -460 q 627 -460 678 -435 l 678 -435 q 707 -464 707 -497 l 707 -497 q 707 -530 688 -553 q 670 -576 644 -576 l 644 -576 q 595 -576 547 -523 l 547 -523 l 512 -565 q 557 -636 648 -636 l 648 -636 q 708 -636 739 -598 q 770 -559 770 -505 l 770 -505 q 770 -451 732 -400 l 732 -400 q 826 -316 826 -180 l 826 -180 q 826 -100 784 -44 q 743 11 671 11 q 599 11 559 -46 q 520 -104 520 -181 l 520 -181 q 520 -286 629 -385 l 629 -385 q 607 -402 573 -402 l 573 -402 q 436 -402 436 -219 l 436 -219 l 436 -171 q 436 -94 385 -41 q 334 11 248 11 q 161 11 116 -55 q 71 -121 71 -221 l 71 -221 q 71 -391 208 -460 l 208 -460 l 249 -421 q 137 -367 137 -230 l 137 -230 q 137 -158 165 -104 q 193 -50 256 -50 z m 670 -48 q 715 -48 737 -89 q 758 -130 758 -185 l 758 -185 q 758 -240 742 -277 q 726 -314 683 -354 l 683 -354 q 582 -269 582 -183 l 582 -183 q 582 -131 604 -90 q 625 -48 670 -48 l 670 -48 z"},"ൿ":{"ha":785,"x_min":71,"x_max":786,"o":"m 786 -134 l 786 -134 q 786 -73 753 -31 q 720 11 660 11 l 660 11 q 579 11 559 -56 l 559 -56 q 526 11 428 11 l 428 11 q 329 11 297 -56 l 297 -56 q 277 11 197 11 l 197 11 q 136 11 103 -31 q 71 -73 71 -139 q 71 -205 114 -242 q 158 -279 235 -279 l 235 -279 l 263 -279 q 263 -360 305 -410 q 348 -460 418 -460 l 418 -460 q 555 -460 584 -354 l 584 -354 q 591 -364 641 -413 q 691 -461 691 -496 q 691 -531 671 -554 q 650 -577 622 -577 l 622 -577 q 570 -577 514 -521 l 514 -521 l 479 -566 q 526 -636 626 -636 l 626 -636 q 691 -636 725 -598 q 758 -559 758 -504 l 758 -504 q 758 -450 698 -389 q 637 -328 627 -311 q 617 -293 613 -279 l 613 -279 q 692 -279 739 -250 q 786 -220 786 -134 z m 727 -136 l 727 -136 q 727 -220 625 -220 l 625 -220 l 599 -220 q 599 -211 593 -175 q 588 -139 588 -116 q 588 -93 606 -70 q 624 -46 656 -46 q 688 -46 708 -73 q 727 -100 727 -136 z m 326 -279 l 530 -279 l 530 -294 q 530 -339 502 -371 q 474 -402 429 -402 l 429 -402 q 384 -402 355 -371 q 326 -339 326 -294 l 326 -294 l 326 -279 z m 531 -201 l 531 -220 l 326 -220 l 326 -201 q 326 -45 431 -45 l 431 -45 q 531 -45 531 -201 l 531 -201 z m 267 -123 l 267 -123 l 263 -220 l 231 -220 q 129 -220 129 -136 l 129 -136 q 129 -101 149 -73 q 168 -46 200 -46 q 233 -46 250 -69 q 267 -92 267 -123 z"},"‌":{"ha":157,"x_min":32,"x_max":110,"o":"m 32 -21 l 32 -504 l 110 -504 l 110 -21 l 32 -21 z"},"‍":{"ha":157,"x_min":-44,"x_max":189,"o":"m 138 -393 l 72 -494 l 7 -393 l -44 -393 l 47 -525 l -37 -646 l 16 -646 l 54 -587 q 59 -581 71 -559 l 71 -559 l 132 -646 l 184 -646 l 97 -527 l 189 -393 l 138 -393 z m 34 -6 l 34 -434 l 109 -434 l 109 -6 l 34 -6 z"},"–":{"ha":409,"x_min":70,"x_max":379,"o":"m 379 -215 l 379 -157 l 70 -157 l 70 -215 l 379 -215 z"},"—":{"ha":671,"x_min":69,"x_max":647,"o":"m 647 -215 l 647 -157 l 69 -157 l 69 -215 l 647 -215 z"},"‘":{"ha":152,"x_min":49,"x_max":162,"o":"m 144 -601 l 162 -582 q 109 -532 112 -486 l 112 -486 l 112 -481 q 133 -480 146 -465 q 160 -450 160 -432 q 160 -415 155 -405 q 151 -394 144 -387 l 144 -387 q 128 -371 110 -371 q 91 -371 81 -377 q 70 -383 63 -394 l 63 -394 q 49 -415 49 -442 q 49 -470 55 -494 q 62 -519 74 -540 l 74 -540 q 102 -586 144 -601 l 144 -601 z"},"’":{"ha":152,"x_min":37,"x_max":150,"o":"m 55 -371 l 37 -389 q 88 -437 86 -485 l 86 -485 l 86 -490 q 65 -491 52 -506 q 39 -521 39 -539 q 39 -556 43 -566 q 48 -577 55 -584 l 55 -584 q 71 -601 89 -601 q 107 -601 118 -594 q 129 -588 136 -577 l 136 -577 q 150 -557 150 -529 q 150 -501 143 -477 q 137 -453 124 -432 l 124 -432 q 97 -385 55 -371 l 55 -371 z"},"‚":{"ha":152,"x_min":37,"x_max":150,"o":"m 55 5 l 37 -13 q 88 -62 86 -109 l 86 -109 l 86 -114 q 65 -115 52 -130 q 39 -145 39 -163 q 39 -180 43 -190 q 48 -201 55 -208 l 55 -208 q 71 -225 89 -225 q 107 -225 118 -218 q 129 -212 136 -201 l 136 -201 q 150 -181 150 -153 q 150 -125 143 -101 q 137 -77 124 -56 l 124 -56 q 97 -8 55 5 l 55 5 z"},"“":{"ha":278,"x_min":45,"x_max":287,"o":"m 270 -601 l 287 -582 q 237 -532 240 -486 l 240 -486 l 240 -481 q 260 -480 273 -465 q 285 -450 285 -432 q 285 -415 281 -405 q 277 -394 270 -387 l 270 -387 q 255 -371 238 -371 q 220 -371 210 -377 q 200 -383 193 -394 l 193 -394 q 180 -415 180 -442 q 180 -470 186 -494 q 192 -519 204 -540 l 204 -540 q 230 -586 270 -601 l 270 -601 z m 136 -601 l 153 -582 q 103 -532 106 -486 l 106 -486 l 106 -481 q 126 -480 138 -465 q 151 -450 151 -432 q 151 -415 147 -405 q 143 -394 136 -387 l 136 -387 q 121 -371 103 -371 q 86 -371 76 -377 q 65 -383 59 -394 l 59 -394 q 45 -415 45 -442 q 45 -470 52 -494 q 58 -519 70 -540 l 70 -540 q 96 -586 136 -601 l 136 -601 z"},"”":{"ha":284,"x_min":41,"x_max":282,"o":"m 222 -481 l 222 -486 q 223 -534 175 -582 l 175 -582 l 192 -601 q 231 -586 258 -540 l 258 -540 q 282 -496 282 -446 l 282 -446 q 282 -396 252 -377 l 252 -377 q 241 -371 229 -371 q 217 -371 208 -375 q 199 -379 192 -387 l 192 -387 q 177 -403 177 -426 q 177 -450 189 -465 q 202 -480 222 -481 l 222 -481 z m 87 -481 l 87 -486 q 89 -534 41 -582 l 41 -582 l 58 -601 q 97 -586 123 -540 l 123 -540 q 148 -496 148 -446 l 148 -446 q 148 -396 117 -377 l 117 -377 q 107 -371 95 -371 q 83 -371 74 -375 q 65 -379 58 -387 l 58 -387 q 42 -403 42 -426 q 42 -450 55 -465 q 67 -480 87 -481 l 87 -481 z"},"„":{"ha":284,"x_min":41,"x_max":282,"o":"m 222 -101 l 222 -105 q 223 -153 175 -201 l 175 -201 l 192 -220 q 231 -206 258 -159 l 258 -159 q 282 -115 282 -65 l 282 -65 q 282 -15 252 3 l 252 3 q 241 10 229 10 q 217 10 208 6 q 199 1 192 -6 l 192 -6 q 177 -22 177 -46 q 177 -69 189 -84 q 202 -100 222 -101 l 222 -101 z m 87 -101 l 87 -105 q 89 -153 41 -201 l 41 -201 l 58 -220 q 97 -206 123 -159 l 123 -159 q 148 -115 148 -65 l 148 -65 q 148 -15 117 3 l 117 3 q 107 10 95 10 q 83 10 74 6 q 65 1 58 -6 l 58 -6 q 42 -22 42 -46 q 42 -69 55 -84 q 67 -100 87 -101 l 87 -101 z"},"•":{"ha":174,"x_min":44,"x_max":176,"o":"m 176 -300 l 176 -300 q 176 -250 136 -237 l 136 -237 q 124 -233 110 -233 l 110 -233 q 63 -233 49 -270 l 49 -270 q 44 -282 44 -300 l 44 -300 q 44 -364 110 -364 l 110 -364 q 156 -364 171 -330 l 171 -330 q 176 -317 176 -300 z"},"…":{"ha":560,"x_min":60,"x_max":562,"o":"m 562 -90 l 562 0 l 486 0 l 486 -90 l 562 -90 z m 349 -90 l 349 0 l 273 0 l 273 -90 l 349 -90 z m 136 -90 l 136 0 l 60 0 l 60 -90 l 136 -90 z"},"‹":{"ha":199,"x_min":45,"x_max":197,"o":"m 124 -222 l 197 -65 l 192 3 l 45 -220 l 192 -448 l 197 -379 l 124 -222 z"},"›":{"ha":198,"x_min":45,"x_max":197,"o":"m 50 -448 l 197 -220 l 50 3 l 45 -65 l 118 -222 l 45 -379 l 50 -448 z"},"⁄":{"ha":328,"x_min":62,"x_max":320,"o":"m 286 -444 l 320 -425 l 96 2 l 62 -17 l 286 -444 z"},"⁴":{"ha":249,"x_min":49,"x_max":249,"o":"m 249 -410 l 249 -368 l 218 -368 l 218 -316 l 170 -316 l 170 -368 l 49 -368 l 49 -400 l 167 -591 l 218 -591 l 218 -410 l 249 -410 z m 109 -410 l 170 -410 l 170 -515 l 109 -410 z"},"€":{"ha":463,"x_min":48,"x_max":470,"o":"m 311 -46 l 311 -46 q 376 -46 413 -108 l 413 -108 l 470 -79 q 412 10 311 10 l 311 10 q 233 10 178 -55 l 178 -55 q 132 -108 111 -189 l 111 -189 l 48 -189 l 48 -245 l 100 -245 q 98 -256 98 -271 l 98 -271 l 98 -297 l 98 -323 q 98 -331 100 -349 l 100 -349 l 48 -349 l 48 -404 l 111 -404 q 146 -536 235 -585 l 235 -585 q 269 -604 316 -604 q 363 -604 403 -580 q 443 -556 470 -515 l 470 -515 l 413 -485 q 376 -547 311 -547 l 311 -547 q 261 -547 225 -498 l 225 -498 q 198 -462 183 -404 l 183 -404 l 405 -404 l 405 -349 l 172 -349 q 170 -331 170 -323 l 170 -323 l 170 -297 l 170 -271 q 170 -262 172 -245 l 172 -245 l 405 -245 l 405 -189 l 183 -189 q 207 -96 262 -60 l 262 -60 q 283 -46 311 -46 z"},"₹":{"ha":538,"x_min":103,"x_max":527,"o":"m 501 -610 l 385 -610 q 406 -583 414 -543 l 414 -543 l 527 -543 l 501 -484 l 415 -484 q 403 -397 327 -353 l 327 -353 q 281 -327 224 -323 l 224 -323 l 451 -1 l 351 -1 l 125 -307 l 125 -367 l 185 -367 q 277 -367 318 -423 l 318 -423 q 338 -451 338 -484 l 338 -484 l 338 -484 l 103 -484 l 134 -543 l 332 -543 q 311 -598 245 -607 l 245 -607 q 218 -610 179 -610 l 179 -610 l 103 -610 l 134 -669 l 527 -669 l 501 -610 z"},"−":{"ha":373,"x_min":41,"x_max":377,"o":"m 55 -245 l 377 -245 l 364 -194 l 41 -194 l 55 -245 z"},"∕":{"ha":312,"x_min":34,"x_max":323,"o":"m 277 -532 l 323 -532 l 81 87 l 34 87 l 277 -532 z"},"◌":{"ha":552,"x_min":15,"x_max":543,"o":"m 507 -383 l 454 -347 q 423 -399 388 -412 l 388 -412 l 424 -461 q 463 -436 479 -420 l 479 -420 l 480 -419 q 499 -396 507 -383 l 507 -383 z m 335 -497 l 335 -497 l 325 -438 q 294 -443 277 -443 q 261 -443 229 -438 l 229 -438 l 220 -497 q 254 -504 278 -504 q 302 -504 335 -497 z m 475 -297 l 536 -308 q 543 -280 543 -253 q 543 -226 536 -198 l 536 -198 l 475 -208 q 479 -237 479 -251 q 479 -265 475 -297 l 475 -297 z m 454 -159 l 507 -122 q 479 -83 466 -69 l 466 -69 l 465 -69 q 464 -68 424 -44 l 424 -44 l 388 -94 q 423 -115 434 -127 l 434 -127 q 451 -152 454 -159 l 454 -159 z m 132 -461 l 170 -412 q 129 -389 123 -376 l 123 -376 l 104 -347 l 51 -383 q 76 -420 91 -434 l 91 -434 q 97 -438 132 -461 l 132 -461 z m 83 -208 l 83 -208 l 21 -198 q 15 -225 15 -252 q 15 -280 21 -308 l 21 -308 l 83 -297 q 77 -281 77 -253 q 77 -224 83 -208 z m 325 -67 l 335 -9 q 313 -2 279 -2 q 245 -2 220 -9 l 220 -9 l 229 -67 q 261 -62 278 -62 q 294 -62 325 -67 l 325 -67 z m 170 -94 l 170 -94 l 132 -44 q 87 -73 77 -85 l 77 -85 l 76 -85 l 51 -122 l 104 -159 q 128 -121 136 -116 q 144 -110 170 -94 z"},"":{"ha":1000,"x_min":0,"x_max":0,"o":""},"":{"ha":1000,"x_min":0,"x_max":0,"o":""},"":{"ha":1000,"x_min":0,"x_max":0,"o":""}}}
